<svg width="23" height="23" viewBox="0 0 23 23" fill="none" xmlns="http://www.w3.org/2000/svg">
<path d="M1.5 0.25H21.5C21.8315 0.25 22.1495 0.381696 22.3839 0.616116C22.6183 0.850537 22.75 1.16848 22.75 1.5V21.5C22.75 21.8315 22.6183 22.1495 22.3839 22.3839C22.1495 22.6183 21.8315 22.75 21.5 22.75H1.5C1.16848 22.75 0.850537 22.6183 0.616116 22.3839C0.381696 22.1495 0.25 21.8315 0.25 21.5V1.5C0.25 1.16848 0.381696 0.850537 0.616116 0.616116C0.850537 0.381696 1.16848 0.25 1.5 0.25ZM10.2537 16.5L19.0912 7.66125L17.325 5.89375L10.2537 12.965L6.7175 9.42875L4.95 11.1962L10.2537 16.5Z" fill="white"/>
</svg>
