<svg width="489" height="902" viewBox="0 0 489 902" fill="none" xmlns="http://www.w3.org/2000/svg">
<path d="M486.931 536.724C486.183 535.49 482.42 536.947 481.159 536.947C470.697 536.946 460.328 534.944 450.581 531.041C467.525 535.915 481.513 534.843 485.375 527.845C486.121 526.452 486.501 524.884 486.478 523.295C481.019 523.618 475.546 523.618 470.086 523.295C463.695 522.957 457.332 522.2 451.035 521.029C454.812 520.461 458.43 519.083 461.654 516.984C467.17 513.324 472.313 506.872 470.973 504.688C470.638 504.142 469.712 503.616 467.032 504C460.741 506.967 454.224 509.402 447.547 511.281C438.898 513.748 435.194 513.809 431.786 512.434C428.729 511.091 426.125 508.855 424.299 506.002C411.473 487.335 392.087 474.37 377.645 456.997C361.884 438.026 332.883 403.481 294.03 372.679C282.387 363.436 272.358 356.499 265.601 352.069V337.042L245.781 336.557L223.498 337.042V352.069C216.78 356.499 206.732 363.436 195.068 372.679C156.216 403.502 127.215 438.026 111.453 456.997C97.0119 474.37 77.6253 487.335 64.7994 506.002C62.9734 508.855 60.3695 511.091 57.3127 512.434C53.924 513.809 50.22 513.748 41.5512 511.281C34.8731 509.405 28.3562 506.97 22.0661 504C19.3275 503.616 18.4015 504.142 18.1257 504.688C16.786 506.852 21.9282 513.324 27.4447 516.984C30.6659 519.089 34.2854 520.467 38.064 521.029C31.7665 522.198 25.4031 522.954 19.0123 523.295C13.5529 523.618 8.07979 523.618 2.62035 523.295C2.59733 524.884 2.97755 526.452 3.72366 527.845C7.66403 534.843 21.5735 535.935 38.5171 531.041C28.755 534.965 18.3645 536.982 7.88075 536.987C6.61983 536.987 2.85677 535.531 2.1081 536.765C1.35943 537.998 3.54634 540.526 4.76785 541.76C11.0133 548.07 22.4995 546.796 35.5816 545.178C40.4676 544.571 44.3686 543.823 46.654 543.358C41.5751 545.634 36.6399 548.235 31.8776 551.145C20.5687 557.981 20.4111 560.428 20.5687 561.379C20.9037 563.522 23.8984 564.635 24.3318 564.776C28.9617 566.435 33.5917 563.057 40.507 558.709C44.802 555.958 50.9293 552.217 58.6721 548.01L65.1146 557.556C70.0992 565.019 71.5965 567.264 74.4139 567.81C75.6946 568.109 77.033 568.009 78.2579 567.522C79.4827 567.036 80.5384 566.185 81.2899 565.08C82.3735 562.693 80.3836 559.578 79.7334 558.466C77.2116 554.219 74.9853 546.23 76.6205 529.807L189.138 432.14C183.405 451.941 178.026 473.622 173.376 497.063C170.126 513.769 167.623 529.787 165.693 544.976C163.839 547.742 162.255 550.689 160.964 553.774C158.481 559.945 157.08 566.518 156.827 573.19C155.98 586.053 158.009 589.471 158.166 602.759C158.167 609.912 157.674 617.056 156.689 624.137C159.624 598.572 154.876 674.963 146.05 769.757C144.631 784.886 142.109 807.882 138.169 836.177C138.406 838.846 138.169 842.588 135.963 844.813C134.15 846.552 132.022 846.35 127.097 846.633C120.771 846.751 114.497 847.828 108.478 849.828C104.341 851.386 101.878 852.296 100.499 854.824C97.9182 859.536 100.736 866.797 104.44 871.206C109.207 876.809 112.576 874.361 123.925 882.128C127.566 884.529 130.982 887.271 134.13 890.319C138.386 894.485 138.425 895.679 141.203 897.6C145.717 900.418 151.045 901.54 156.275 900.775C161.751 900.214 166.895 897.819 170.914 893.96C175.211 889.57 177.874 883.773 178.44 877.577C179.287 869.346 175.76 866.858 174.499 854.824C173.987 849.836 173.987 844.806 174.499 839.817C175.918 819.491 185.907 800.762 186.892 798.861C194.024 785.311 209.115 740.896 244.52 601.889C242.55 604.842 246.49 604.842 244.52 601.889C279.983 740.896 295.016 785.311 302.128 798.861C303.113 800.762 313.102 819.491 314.54 839.817C315.013 844.808 315.013 849.833 314.54 854.824C313.22 866.959 309.713 869.346 310.6 877.577C311.157 883.776 313.822 889.575 318.126 893.96C322.145 897.819 327.289 900.214 332.764 900.775C337.955 901.472 343.221 900.315 347.679 897.499C350.457 895.578 350.496 894.384 354.752 890.218C357.9 887.2 361.317 884.491 364.957 882.128C376.325 874.361 379.674 876.809 384.462 871.206C388.205 866.797 391.023 859.536 388.402 854.824C387.023 852.296 384.56 851.386 380.522 849.828C374.502 847.829 368.229 846.753 361.903 846.633C356.919 846.35 354.85 846.633 353.057 844.813C350.732 842.588 350.594 838.846 350.831 836.177C346.694 807.861 344.27 784.886 342.95 769.757C337.828 714.846 333.946 638.294 332.311 624.137C331.307 617.058 330.813 609.913 330.834 602.759C330.991 589.471 333.02 586.053 332.173 573.19C331.92 566.518 330.519 559.945 328.036 553.774C326.737 550.693 325.154 547.747 323.307 544.976C321.337 529.787 318.874 513.769 315.624 497.063C311.43 475.165 306.17 453.497 299.862 432.14L412.439 529.726C414.074 546.149 411.848 554.138 409.326 558.385C408.676 559.498 406.686 562.612 407.769 564.999C408.521 566.105 409.576 566.955 410.801 567.441C412.026 567.928 413.365 568.028 414.645 567.729C417.463 567.183 418.96 564.938 423.964 557.475C427.333 552.439 429.875 548.799 430.387 547.929C438.13 552.136 444.178 555.877 448.552 558.628C455.467 563.037 460.097 566.415 464.727 564.695C465.161 564.554 468.155 563.441 468.49 561.298C468.648 560.347 468.49 557.9 457.201 551.064C452.41 548.17 447.449 545.583 442.346 543.318C444.631 543.783 448.532 544.531 453.418 545.138C466.52 546.756 477.987 548.03 484.232 541.72C485.493 540.486 487.621 537.897 486.931 536.724Z" fill="#FAC497"/>
<path d="M165.161 542.104C188.074 542.347 214.297 548.92 238.058 548.657C264.872 548.374 297.163 541.012 322.992 540.102C323.367 543.944 330.381 557.091 330.381 560.974C330.145 592.809 331.566 624.635 334.636 656.315C329.198 653.564 307.054 646.789 290.208 648.063C279.062 648.63 268.357 652.713 259.552 659.753C253.819 639.811 250.233 625.613 244.52 605.671C239.22 625.997 233.901 642.663 228.601 662.989C215.968 657.351 202.565 653.743 188.862 652.29C177.431 651.382 165.933 652.511 154.876 655.627C157.615 625.856 157.615 595.741 157.615 566.475C158.482 557.596 162.343 550.133 165.161 542.104Z" fill="#F9F5F2"/>
<path d="M205.569 526.308C203.748 525.042 201.538 524.508 199.358 524.806C197.179 525.105 195.182 526.215 193.748 527.926C191.266 530.859 188.527 534.358 185.71 538.382C178.519 548.657 171.918 558.001 169.377 571.147C167.82 579.095 165.673 589.875 171.071 599.745C179.681 615.541 200.979 616.916 209.707 617.483C219.557 618.11 231.201 618.858 238.511 611.071C248.243 600.696 243.574 582.271 241.643 574.666C235.437 550.032 217.41 534.358 205.569 526.308Z" fill="#EE779A"/>
<path d="M177.868 483.471C173.928 504.788 169.988 526.092 166.047 547.382C172.223 543.402 177.815 538.54 182.656 532.942C188.054 526.712 192.507 521.575 193.748 514.861C196.605 499.125 179.661 484.948 177.868 483.471Z" fill="#EE779A"/>
<path d="M311.151 485.15L322.972 549.041C316.801 545.08 311.209 540.238 306.364 534.661C300.965 528.452 296.513 523.295 295.272 516.58C292.415 500.784 309.319 486.607 311.151 485.15Z" fill="#EE779A"/>
<path d="M283.45 527.967C285.273 526.706 287.482 526.174 289.66 526.472C291.839 526.77 293.835 527.878 295.272 529.585C297.734 532.518 300.473 536.017 303.29 540.041C310.481 550.316 317.082 559.66 319.623 572.806C321.199 580.754 323.327 591.534 317.948 601.404C309.319 617.2 288.021 618.575 279.293 619.142C269.442 619.769 257.799 620.537 250.489 612.73C240.757 602.355 245.426 583.93 247.357 576.325C253.582 551.651 271.61 536.017 283.45 527.967Z" fill="#EE779A"/>
<path d="M265.561 337.002V352.029C272.28 356.458 282.347 363.396 293.991 372.639C332.843 403.441 361.844 437.986 377.606 456.957C392.047 474.33 411.434 487.294 424.26 505.962C426.086 508.814 428.69 511.051 431.746 512.394C435.135 513.769 438.839 513.708 447.508 511.241C454.185 509.362 460.702 506.927 466.993 503.96C469.732 503.576 470.658 504.101 470.933 504.648C472.273 506.812 467.131 513.284 461.614 516.944C458.39 519.043 454.772 520.421 450.995 520.989C457.292 522.16 463.656 522.916 470.047 523.255C475.506 523.578 480.979 523.578 486.439 523.255C486.462 524.844 486.082 526.412 485.335 527.805C481.395 534.803 467.486 535.895 450.542 531.001C460.283 534.931 470.653 536.961 481.119 536.987C482.38 536.987 486.143 535.531 486.892 536.765C487.641 537.999 485.454 540.527 484.232 541.761C477.987 548.071 466.5 546.797 453.418 545.179C448.532 544.572 444.631 543.824 442.346 543.358C447.449 545.623 452.41 548.21 457.201 551.105C468.51 557.941 468.648 560.388 468.49 561.338C468.155 563.482 465.161 564.595 464.727 564.736C460.097 566.395 455.467 563.017 448.552 558.669C444.257 555.918 438.13 552.176 430.387 547.97C429.796 548.839 427.333 552.48 423.964 557.516C418.96 564.979 417.463 567.224 414.645 567.77C413.365 568.069 412.026 567.969 410.801 567.482C409.576 566.996 408.521 566.145 407.769 565.04C406.686 562.653 408.676 559.538 409.326 558.426C411.848 554.179 414.074 546.19 412.439 529.767L299.862 432.1C305.595 451.901 310.974 473.582 315.624 497.023C318.874 513.729 321.377 529.747 323.307 544.936C325.154 547.707 326.737 550.653 328.036 553.734C330.519 559.905 331.92 566.478 332.173 573.15C333.02 586.013 330.991 589.431 330.834 602.719C330.813 609.873 331.307 617.018 332.311 624.097C333.946 638.254 337.828 714.766 342.95 769.717C344.369 784.846 346.891 807.842 350.831 836.137C350.594 838.806 350.831 842.548 353.057 844.773C354.85 846.512 356.998 846.31 361.903 846.593C368.229 846.713 374.502 847.789 380.522 849.788C384.659 851.346 387.122 852.256 388.402 854.784C390.983 859.496 388.166 866.757 384.462 871.166C379.674 876.769 376.325 874.321 364.957 882.088C361.312 884.483 357.895 887.226 354.752 890.279C350.496 894.445 350.457 895.639 347.679 897.56C343.167 900.386 337.838 901.509 332.607 900.735C327.196 900.126 322.129 897.71 318.185 893.859C313.858 889.489 311.184 883.683 310.639 877.477C309.812 869.245 313.319 866.757 314.579 854.723C315.052 849.733 315.052 844.707 314.579 839.716C313.141 819.39 303.152 800.662 302.167 798.761C295.055 785.21 279.963 740.796 244.559 601.789C247.814 606.884 252.222 611.096 257.405 614.065C263.951 617.97 271.562 619.569 279.077 618.616C294.247 616.432 302.246 603.75 303.448 601.789" stroke="black" stroke-width="2" stroke-linecap="round" stroke-linejoin="round"/>
<path d="M223.458 337.002V352.029C216.74 356.458 206.692 363.396 195.029 372.639C156.177 403.502 127.175 437.986 111.414 456.957C96.9725 474.33 77.5859 487.294 64.76 505.962C62.934 508.814 60.3301 511.051 57.2733 512.394C53.8846 513.769 50.1806 513.708 41.5118 511.241C34.8337 509.365 28.3168 506.93 22.0267 503.96C19.2881 503.576 18.3621 504.101 18.0863 504.648C16.7466 506.812 21.8888 513.284 27.4053 516.944C30.6265 519.049 34.246 520.427 38.0246 520.989C31.7271 522.157 25.3637 522.914 18.9729 523.255C13.5135 523.578 8.04038 523.578 2.58095 523.255C2.55793 524.844 2.93815 526.412 3.68425 527.805C7.62462 534.803 21.5341 535.895 38.4777 531.001C28.7305 534.934 18.3538 536.964 7.88075 536.987C6.61983 536.987 2.85677 535.531 2.1081 536.765C1.35943 537.999 3.54634 540.527 4.76785 541.761C11.0133 548.071 22.4995 546.797 35.5816 545.179C40.4676 544.572 44.3686 543.824 46.654 543.358C41.5559 545.619 36.601 548.207 31.8185 551.105C20.5096 557.941 20.352 560.388 20.5096 561.338C20.8446 563.482 23.8392 564.595 24.2727 564.736C28.9026 566.395 33.5326 563.017 40.4479 558.669C44.7429 555.918 50.8702 552.176 58.613 547.97L65.0161 557.435C70.0007 564.898 71.498 567.143 74.3154 567.689C75.5961 567.988 76.9345 567.888 78.1593 567.401C79.3842 566.915 80.4399 566.064 81.1913 564.959C82.2749 562.572 80.2851 559.457 79.6349 558.345C77.1131 554.098 74.8867 546.109 76.522 529.686L189.138 432.1C183.405 451.901 178.026 473.582 173.376 497.023C170.126 513.729 167.623 529.747 165.693 544.936C163.839 547.702 162.255 550.649 160.964 553.734C158.481 559.905 157.08 566.478 156.827 573.15C155.98 586.013 158.009 589.431 158.166 602.719C158.167 609.872 157.674 617.016 156.689 624.097C159.624 598.532 154.876 674.922 146.05 769.717C144.631 784.846 142.109 807.842 138.169 836.136C138.406 838.806 138.169 842.548 135.962 844.773C134.15 846.512 132.022 846.31 127.097 846.593C120.771 846.711 114.497 847.788 108.478 849.788C104.341 851.346 101.878 852.256 100.598 854.784C98.0167 859.496 100.834 866.757 104.538 871.166C109.306 876.769 112.675 874.321 124.023 882.088C127.664 884.489 131.081 887.231 134.229 890.279C138.484 894.445 138.524 895.639 141.302 897.56C145.816 900.378 151.143 901.5 156.374 900.735C161.849 900.174 166.993 897.779 171.012 893.919C175.309 889.53 177.972 883.733 178.538 877.537C179.385 869.306 175.859 866.818 174.598 854.784C174.086 849.795 174.086 844.765 174.598 839.777C176.016 819.552 186.005 800.722 186.99 798.821C194.122 785.27 209.214 740.856 244.618 601.849C241.339 606.931 236.929 611.139 231.753 614.126C225.205 618.027 217.595 619.625 210.081 618.677C194.91 616.492 186.911 603.811 185.71 601.849" stroke="black" stroke-width="2" stroke-linecap="round" stroke-linejoin="round"/>
<path d="M270.034 336.638C284.16 337.71 323.367 338.033 359.618 314.977C375.658 304.729 389.522 291.267 400.381 275.396C402.791 278.766 405.825 281.614 409.308 283.779C412.791 285.945 416.656 287.384 420.681 288.015C424.707 288.646 428.814 288.457 432.768 287.457C436.722 286.458 440.445 284.669 443.725 282.192L444.277 281.767C462.501 268.864 467.387 239.295 457.576 223.539C455.829 220.691 453.512 218.258 450.778 216.4C438.563 208.573 422.27 217.189 420.043 218.422C422.703 208.431 439.529 140.596 392.559 79.6176C361.785 39.7136 318.54 27.7808 300.453 22.7649C284.692 18.4166 250.371 9.4164 208.268 20.9447C179.237 28.8272 152.861 44.7187 132.002 66.8961C96.5391 105.89 91.7318 151.174 90.3527 165.999C88.7724 183.186 89.682 200.518 93.0518 217.431C82.6887 211.242 70.5326 210.413 61.5289 216.076C46.4569 225.582 49.1167 247.142 49.5501 250.641C50.4517 257.4 52.9259 263.836 56.7634 269.405C60.6009 274.975 65.6888 279.513 71.5965 282.637C75.5369 284.659 86.6684 290.444 97.4256 285.226C101.931 282.931 105.644 279.275 108.065 274.749C116.536 285.428 129.737 302.7 151.409 315.199C174.521 328.349 200.373 335.605 226.788 336.355L270.034 336.638Z" fill="#FAC497" stroke="black" stroke-width="2" stroke-linecap="round" stroke-linejoin="round"/>
<path d="M107.946 275.133C100.65 260.739 96.2034 245.005 94.8643 228.837L107.946 275.133Z" fill="#FAC497"/>
<path d="M107.946 275.133C100.65 260.739 96.2034 245.005 94.8643 228.837" stroke="black" stroke-width="2" stroke-linecap="round" stroke-linejoin="round"/>
<path d="M400.657 275.133C403.367 269.735 405.698 264.146 407.631 258.406C410.832 248.842 412.883 238.912 413.739 228.837" fill="#FAC497"/>
<path d="M400.657 275.133C403.367 269.735 405.698 264.146 407.631 258.406C410.832 248.842 412.883 238.912 413.739 228.837" stroke="black" stroke-width="2" stroke-linecap="round" stroke-linejoin="round"/>
<path d="M245.288 5.06775C231.95 2.39804 199.166 -2.2335 163.683 13.5623C121.383 32.3918 102.607 68.0284 94.7267 83.3186C72.1483 126.418 74.5323 166.585 76.1281 193.161C78.5514 233.611 81.8022 288.077 115.138 306.583C143.824 322.5 171.347 298.837 211.145 319.325C224.579 326.442 236.256 336.61 245.288 349.056C259.08 329.741 273.994 321.55 282.426 317.929C296.69 311.862 309.378 311.397 334.104 310.83C365.627 310.122 368.523 313.965 377.901 312.044C413.069 304.864 437.913 237.514 437.913 182.239C437.913 123.02 409.424 41.2909 337.71 11.7825C299.685 -3.89196 263.788 1.02273 245.288 5.06775Z" fill="#683B13" stroke="black" stroke-width="2" stroke-linecap="round" stroke-linejoin="round"/>
<path d="M237.408 29.3374C217.607 29.2078 198.096 34.2168 180.686 43.8995C135.766 69.464 117.423 122.797 117.758 164.845C118.034 201.251 132.259 229.08 141.676 244.006" fill="#683B13"/>
<path d="M237.408 29.3374C217.607 29.2078 198.096 34.2168 180.686 43.8995C135.766 69.464 117.423 122.797 117.758 164.845C118.034 201.251 132.259 229.08 141.676 244.006" stroke="black" stroke-width="2" stroke-linecap="round" stroke-linejoin="round"/>
<path d="M225.783 70.2935C214.573 79.3138 193.492 99.0131 183.247 131.373C161.082 200.988 210.81 261.926 214.258 265.971" fill="#683B13"/>
<path d="M225.783 70.2935C214.573 79.3138 193.492 99.0131 183.247 131.373C161.082 200.988 210.81 261.926 214.258 265.971" stroke="black" stroke-width="2" stroke-linecap="round" stroke-linejoin="round"/>
<path d="M267.315 29.3377C287.135 29.2004 306.667 34.2097 324.096 43.8998C369.016 69.444 387.358 122.778 387.023 164.906C386.748 201.311 372.523 229.141 363.105 244.067" fill="#683B13"/>
<path d="M267.315 29.3377C287.135 29.2004 306.667 34.2097 324.096 43.8998C369.016 69.444 387.358 122.778 387.023 164.906C386.748 201.311 372.523 229.141 363.105 244.067" stroke="black" stroke-width="2" stroke-linecap="round" stroke-linejoin="round"/>
<path d="M278.781 70.2935C290.011 79.3138 311.073 99.0737 321.318 131.272C343.502 200.887 293.735 261.805 290.307 265.931" fill="#683B13"/>
<path d="M278.781 70.2935C290.011 79.3138 311.073 99.0737 321.318 131.272C343.502 200.887 293.735 261.805 290.307 265.931" stroke="black" stroke-width="2" stroke-linecap="round" stroke-linejoin="round"/>
</svg>
