<svg width="487" height="903" viewBox="0 0 487 903" fill="none" xmlns="http://www.w3.org/2000/svg">
<path d="M75.2904 269.664C49.0835 217.699 67.5936 146.726 102.773 102.885C116.788 85.5831 134.107 71.2347 153.723 60.6736C202.874 34.2312 251.544 40.2465 271.894 43.0453C289.379 45.4473 326.274 50.5436 359.299 75.0226C429.993 127.469 423.551 225.176 422.735 235.327C417.758 252.308 407.718 277.1 385.799 298.53C308.161 373.972 122.831 364.594 75.2904 269.664Z" fill="#572318"/>
<path d="M217.181 350.328C210.209 349.744 203.237 348.88 196.266 347.738C137.515 338.068 92.5048 309.976 72.8653 270.709C60.3161 245.812 57.1161 215.38 63.4743 182.693C69.2032 152.957 81.9837 125.025 100.745 101.235C114.948 83.6326 132.535 69.0459 152.469 58.3345C203.46 30.9731 253.427 37.8657 272.251 40.4556C290.134 42.9202 327.342 48.0374 360.869 72.9133C432.086 125.756 426.229 224.362 425.33 235.432C425.306 235.601 425.271 235.768 425.226 235.933C417.696 261.644 405.063 283.262 387.578 300.201C350.035 336.815 283.482 355.926 217.181 350.328ZM77.5294 268.516C96.4996 306.3 140.129 333.369 197.186 342.788C268.465 354.547 343.593 336 383.96 296.671C400.692 280.4 412.865 259.597 420.164 234.805C421.084 222.879 426.25 127.782 357.732 76.9444C325.25 52.8831 288.962 47.8703 271.561 45.4893C253.218 42.9411 204.485 36.2365 155.021 62.7624C135.664 73.1296 118.593 87.2789 104.824 104.368C60.5044 159.551 57.5344 228.706 77.4876 268.495L77.5294 268.516Z" fill="#1D1E1C"/>
<path d="M465.822 546.077C459.966 545.868 454.388 545.513 449.09 545.011C454.337 544.491 459.264 542.251 463.103 538.641C466.156 535.591 470.151 529.701 468.269 527.091C467.202 525.608 464.609 525.649 462.789 525.858C460.464 527.548 458.025 529.077 455.49 530.432C450.303 533.169 443.442 536.698 434.804 536.197C431.991 535.993 429.222 535.381 426.585 534.38L350.495 456.578C331.566 432.955 308.33 405.886 276.413 384.77C273.025 382.535 269.845 381.115 266.478 379.068V365.178C293.681 364.403 320.302 357.133 344.116 343.978C366.6 331.446 380.111 314.09 388.853 303.396C391.36 307.908 395.182 311.55 399.813 313.839C410.898 319.061 422.318 313.317 426.417 311.249C432.507 308.126 437.75 303.58 441.702 297.998C445.653 292.416 448.195 285.963 449.11 279.188C449.571 275.679 452.311 254.124 436.791 244.537C427.568 238.877 415.039 239.713 404.373 245.916C407.832 228.999 408.777 211.665 407.175 194.472C405.774 179.539 400.775 134.152 364.278 95.0734C342.781 72.8955 315.624 57.0062 285.741 49.123C257.828 41.5622 228.403 41.5622 200.49 49.123C170.611 57.0018 143.46 72.892 121.974 95.0734C85.4143 134.131 80.4782 179.518 79.1397 194.472C77.507 211.682 78.4303 229.038 81.8796 245.979C71.2128 239.713 58.6845 238.94 49.4608 244.6C33.9626 254.145 36.6816 275.742 37.1417 279.251C38.061 286.024 40.604 292.476 44.5549 298.058C48.5057 303.64 53.7475 308.186 59.8348 311.312C64.0179 313.4 75.3749 319.123 86.4391 313.902C91.0651 311.607 94.8862 307.966 97.3987 303.458C106.141 314.152 119.653 331.446 142.137 344.041C165.955 357.182 192.573 364.451 219.774 365.241V379.13C216.407 381.219 213.228 382.598 209.839 384.832C177.923 405.949 154.769 433.018 135.757 456.64L59.6884 534.38C57.0505 535.378 54.282 535.99 51.4687 536.197C42.8098 536.782 35.9496 533.169 30.7626 530.432C28.2246 529.081 25.7854 527.553 23.4631 525.858C21.6435 525.649 19.05 525.608 17.9833 527.091C16.1009 529.701 20.0748 535.591 23.1494 538.641C26.9918 542.246 31.9171 544.485 37.1626 545.011C31.8501 545.513 26.2727 545.868 20.4304 546.077C13.3192 546.327 6.58446 546.306 0.268037 546.077C0.00272045 547.785 0.265384 549.534 1.02099 551.089C4.63934 558.149 20.0539 559.193 39.3587 554.139C29.3332 558.933 18.3692 561.451 7.25375 561.512C5.80856 561.541 4.36289 561.485 2.92428 561.345C2.47094 561.961 2.16068 562.671 2.01599 563.423C1.87129 564.174 1.89577 564.948 2.08767 565.689C3.9561 570.646 17.8996 571.099 43.9183 567.047C37.7245 570.115 31.8169 573.729 26.2658 577.845C21.5389 581.333 16.833 584.863 17.5859 586.805C18.5689 589.333 28.0436 587.787 29.0684 587.641C35.6149 586.596 47.2229 583.046 59.9603 568.843C60.0082 572.881 61.0039 576.851 62.8675 580.435C64.4571 583.484 67.4062 589.04 73.3252 590.356C74.2929 590.533 75.2894 590.464 76.2235 590.156C77.1576 589.848 77.9994 589.311 78.6717 588.594C79.344 587.877 79.8253 587.002 80.0715 586.051C80.3177 585.1 80.3209 584.103 80.0808 583.15C79.6997 581.616 79.4616 580.05 79.3697 578.472C79.0769 573.313 79.2233 571.099 78.9514 566.316C79.2889 562.144 78.3634 557.967 76.2952 554.327L194.508 458.583C180.286 505.807 170.205 545.241 167.319 573.856C161.274 632.463 156.861 679.124 152.845 732.802C152.071 743.245 152.134 778.92 145.399 815.158C143.781 824.604 141.616 833.949 138.916 843.146C136.995 849.382 134.177 855.306 130.549 860.732C129.231 863.241 127.142 865.262 124.589 866.497C120.806 867.498 116.93 868.107 113.022 868.314C106.936 868.669 95.3072 871.134 87.443 877.316C80.2661 883.691 75.6075 892.417 74.3082 901.921C91.4588 901.921 162.55 904.302 166.984 901.921C174.283 898.036 172.61 883.332 173.259 879.593C174.346 873.891 175.099 864.011 175.998 860.795C179.24 848.973 207.643 777.98 242.927 640.901C278.149 777.98 306.552 848.973 309.856 860.795C310.756 864.053 311.488 873.933 312.596 879.593C313.307 883.332 311.634 898.036 318.871 901.921C323.305 904.302 394.396 901.921 411.547 901.921C410.276 892.505 405.712 883.842 398.663 877.462C390.799 871.196 379.17 868.815 373.104 868.46C369.197 868.253 365.321 867.644 361.538 866.643C358.976 865.42 356.883 863.396 355.577 860.879C351.917 855.471 349.096 849.542 347.211 843.292C344.481 834.102 342.309 824.755 340.706 815.304C333.972 779.066 334.034 743.433 333.261 732.948C329.245 679.27 324.894 632.693 318.808 574.002C315.859 545.408 305.778 505.953 291.493 458.729L409.643 554.368C407.575 558.009 406.65 562.186 406.987 566.357C406.715 571.14 406.862 573.354 406.569 578.513C406.467 580.09 406.229 581.656 405.858 583.192C405.475 584.69 405.7 586.278 406.483 587.612C407.266 588.945 408.545 589.917 410.041 590.314C410.862 590.48 411.708 590.48 412.53 590.314H412.655C418.595 588.998 421.544 583.443 423.113 580.393C424.97 576.808 425.958 572.837 425.999 568.801C438.736 582.983 450.365 586.534 456.891 587.599C457.811 587.745 467.349 589.291 468.374 586.764C469.126 584.821 464.42 581.291 459.694 577.803C454.139 573.691 448.232 570.078 442.041 567.005C468.171 571.057 482.115 570.604 483.872 565.647C484.067 564.91 484.098 564.14 483.965 563.39C483.831 562.639 483.535 561.927 483.098 561.303C481.697 561.303 480.253 561.449 478.768 561.47C467.652 561.415 456.687 558.897 446.663 554.097C465.989 559.151 481.383 558.107 485.001 551.048C485.755 549.491 486.025 547.745 485.775 546.035C479.647 546.306 472.912 546.327 465.822 546.077Z" fill="#FAC497"/>
<path d="M166.084 585.051C189.697 585.301 216.699 591.881 241.17 591.63C268.799 591.338 293.228 583.965 319.77 583.046C320.167 586.91 320.543 590.774 320.941 594.638C324.413 629.309 327.696 663.863 330.792 698.298C319.568 692.752 307.052 690.339 294.567 691.313C282.082 692.287 270.093 696.613 259.868 703.833C253.97 683.823 248.065 663.835 242.153 643.867L225.881 704.981C203.934 694.584 178.972 692.426 155.563 698.903C158.352 668.952 161.078 639.015 163.741 609.091C166.544 601.113 163.135 593.155 166.084 585.051Z" fill="#F9F5F2"/>
<path d="M163.011 424.643C179.477 406.698 198.557 391.335 219.607 379.068C220.28 381.515 221.68 383.699 223.623 385.334C224.383 385.865 225.172 386.353 225.987 386.796C228.775 388.277 231.403 390.041 233.83 392.06C234.793 392.893 235.682 393.808 236.486 394.796C239.551 398.908 241.633 403.666 242.572 408.706C242.907 410.356 243.242 412.737 242.572 423.974C241.485 442.542 239.895 446.949 238.85 449.268C237.574 452.234 235.88 456.014 232.575 457.622C228.957 459.502 225.443 457.81 222.766 456.474C219.993 455.244 217.297 453.849 214.692 452.296C211.66 450.542 209.15 449.038 207.393 447.952C203.21 451.503 198.922 455.06 194.53 458.625C190.849 461.633 187.21 464.599 183.57 467.502C183.691 459.255 181.895 451.093 178.324 443.657C174.753 436.22 169.504 429.712 162.99 424.643H163.011Z" fill="#EE779A"/>
<path d="M156.526 430.95C152.134 436.673 145.525 444.986 136.928 454.594C123.208 469.987 112.75 479.428 113.922 480.806C114.695 481.746 120.364 478.3 125.906 474.896C135.276 469.152 143.663 463.805 152.071 454.364C155.71 450.187 165.541 439.2 162.341 433.833C161.652 432.945 160.771 432.224 159.764 431.725C158.757 431.226 157.65 430.961 156.526 430.95Z" fill="#EE779A"/>
<path d="M137.347 502.34C136.505 502.811 135.574 503.104 134.614 503.201C133.653 503.298 132.683 503.197 131.763 502.904C127.58 501.108 127.914 493.819 127.977 492.774C128.222 489.872 129.208 487.082 130.843 484.67C136.216 476.563 143.209 469.652 151.381 464.369C160.689 458.103 165.416 454.99 169.912 456.745C171.653 457.554 173.208 458.714 174.478 460.152C175.749 461.589 176.708 463.274 177.296 465.1C177.779 466.611 178.005 468.192 177.965 469.778L137.347 502.34Z" fill="#EE779A"/>
<path d="M106.873 487.699L61.3823 532.835C62.5007 533.913 63.8755 534.689 65.3771 535.091C68.299 535.585 71.299 534.926 73.7433 533.253C84.3892 527.133 96.4573 514.455 96.4573 514.455C107.961 502.403 110.617 498.852 110.052 494.236C109.655 491.794 108.55 489.521 106.873 487.699Z" fill="#EE779A"/>
<path d="M127.956 509.546C123.82 509.863 119.743 510.712 115.825 512.073C112.186 513.347 109.132 514.893 100.913 520.428C90.7059 527.32 82.6535 533.503 77.9057 540.813C75.8142 543.988 74.9776 546.661 75.9815 548.666C76.5579 549.61 77.4234 550.342 78.4495 550.755L127.956 509.546Z" fill="#EE779A"/>
<path d="M322.866 424.643C306.406 406.7 287.334 391.336 266.29 379.068C265.618 381.515 264.217 383.699 262.275 385.334C261.515 385.865 260.726 386.353 259.911 386.796C257.123 388.277 254.495 390.041 252.068 392.06C251.1 392.887 250.21 393.803 249.412 394.796C246.341 398.905 244.259 403.664 243.325 408.706C242.991 410.356 242.656 412.737 243.325 423.974C244.413 442.542 246.003 446.949 247.048 449.268C248.324 452.234 250.018 456.014 253.323 457.622C256.628 459.231 260.434 457.81 263.111 456.474C265.882 455.24 268.578 453.845 271.185 452.296C274.217 450.542 276.727 449.038 278.484 447.952C282.667 451.503 286.955 455.06 291.347 458.625C295.028 461.633 298.667 464.599 302.307 467.502C302.181 459.254 303.974 451.091 307.546 443.653C311.117 436.216 316.369 429.708 322.887 424.643H322.866Z" fill="#EE779A"/>
<path d="M329.266 430.95C333.658 436.673 340.267 444.986 348.863 454.594C362.584 469.987 373.041 479.428 371.87 480.807C371.096 481.747 365.428 478.3 359.886 474.896C350.516 469.152 342.129 463.805 333.721 454.364C330.081 450.187 320.251 439.201 323.451 433.833C324.14 432.945 325.02 432.225 326.027 431.726C327.034 431.226 328.142 430.961 329.266 430.95Z" fill="#EE779A"/>
<path d="M348.529 502.34C349.371 502.813 350.301 503.106 351.262 503.203C352.223 503.3 353.193 503.199 354.113 502.904C358.296 501.108 357.962 493.819 357.899 492.774C357.653 489.841 356.667 487.017 355.033 484.566C349.654 476.464 342.662 469.554 334.495 464.264C325.187 457.998 320.46 454.886 315.964 456.641C314.223 457.45 312.668 458.61 311.398 460.048C310.127 461.485 309.168 463.17 308.58 464.995C308.076 466.502 307.85 468.087 307.911 469.674L348.529 502.34Z" fill="#EE779A"/>
<path d="M379.002 487.699L424.576 532.835C423.455 533.909 422.081 534.684 420.581 535.091C417.659 535.59 414.658 534.93 412.215 533.253C401.569 527.133 389.501 514.455 389.501 514.455C377.998 502.403 375.342 498.852 375.906 494.236C376.261 491.798 377.34 489.521 379.002 487.699Z" fill="#EE779A"/>
<path d="M357.919 509.546C362.055 509.866 366.132 510.715 370.05 512.073C373.69 513.347 376.743 514.893 384.963 520.428C395.17 527.32 403.222 533.503 407.865 540.813C409.957 543.988 410.793 546.661 409.789 548.666C409.208 549.606 408.344 550.337 407.321 550.755L357.919 509.546Z" fill="#EE779A"/>
<path d="M200.888 289.528C196.37 295.209 203.314 308.325 209.254 315.427C214.69 321.572 221.808 325.993 229.73 328.147C237.642 330.387 246.01 330.481 253.971 328.418C257.987 327.458 273.255 323.781 281.642 310.184C284.714 305.189 286.389 299.462 286.494 293.6C286.494 289.841 285.783 282.969 283.127 282.384C281.495 282.008 280.01 284.264 278.337 285.914C276.246 287.898 271.791 291.324 253.385 291.157C243.576 291.157 241.066 290.071 225.861 288.65C204.422 286.708 202.101 288.003 200.888 289.528Z" fill="#461C19"/>
<mask id="mask0_117_168" style="mask-type:luminance" maskUnits="userSpaceOnUse" x="199" y="282" width="88" height="48">
<path d="M200.888 289.528C196.37 295.209 203.314 308.325 209.254 315.427C214.69 321.572 221.808 325.993 229.73 328.147C237.642 330.387 246.01 330.481 253.971 328.418C257.987 327.458 273.255 323.781 281.642 310.184C284.714 305.189 286.389 299.462 286.494 293.6C286.494 289.841 285.783 282.969 283.127 282.384C281.495 282.008 280.01 284.264 278.337 285.914C276.246 287.898 271.791 291.324 253.385 291.157C243.576 291.157 241.066 290.071 225.861 288.65C204.422 286.708 202.101 288.003 200.888 289.528Z" fill="white"/>
</mask>
<g mask="url(#mask0_117_168)">
<path d="M260.12 326.706C260.956 323.113 256.481 318.602 253.301 316.596C251.971 315.594 250.44 314.888 248.813 314.528C247.185 314.167 245.499 314.16 243.869 314.508C241.987 315.091 240.32 316.218 239.079 317.745C237.494 316.867 235.649 316.578 233.871 316.931C228.391 318.184 224.606 327.04 226.865 331.071C231.027 338.59 258.279 334.413 260.12 326.706Z" fill="#BD1823"/>
<path d="M230.399 335.687C228.309 335.129 226.503 333.81 225.338 331.99C224.684 330.501 224.378 328.882 224.443 327.257C224.508 325.633 224.943 324.044 225.714 322.612C226.361 320.876 227.399 319.311 228.748 318.04C230.098 316.769 231.722 315.825 233.495 315.281C235.206 314.905 236.991 315.051 238.619 315.698C239.939 314.375 241.572 313.405 243.367 312.879C245.233 312.448 247.169 312.423 249.046 312.805C250.922 313.187 252.695 313.967 254.243 315.093C257.882 317.411 262.923 322.486 261.835 327.102C260.601 332.303 252.151 335.29 244.685 336.334C239.931 337.144 235.059 336.923 230.399 335.687ZM237.197 318.978C236.261 318.628 235.245 318.555 234.269 318.769C233.042 319.199 231.927 319.899 231.008 320.818C230.088 321.736 229.387 322.849 228.956 324.074C228.431 325.022 228.111 326.07 228.017 327.149C227.923 328.229 228.058 329.316 228.412 330.34C229.856 332.93 236.507 334.016 244.183 332.93C251.858 331.844 257.757 329.066 258.384 326.371C258.928 324.116 255.644 320.252 252.36 318.163C251.232 317.315 249.937 316.715 248.56 316.401C247.183 316.088 245.756 316.069 244.371 316.346C242.816 316.812 241.443 317.745 240.439 319.019L239.539 320.085L238.305 319.479C237.951 319.269 237.58 319.087 237.197 318.936V318.978Z" fill="#1D1E1C"/>
</g>
<path d="M227.011 330.235C219.367 327.795 212.549 323.292 207.309 317.223C201.034 309.787 193.003 295.271 198.817 287.981C200.909 285.204 204.422 284.138 226.007 286.164C231.884 286.707 235.9 287.209 239.121 287.606C243.821 288.253 248.557 288.609 253.301 288.671C271.707 288.838 275.2 285.35 276.308 284.201C276.664 283.867 276.977 283.491 277.312 283.136C278.86 281.444 280.784 279.334 283.587 279.94C288.502 281.047 289.025 289.966 289.004 293.746C288.911 300.101 287.105 306.313 283.775 311.729C279.592 318.351 271.226 327.102 254.494 331.154C246.074 333.311 237.232 333.195 228.872 330.82L227.011 330.235ZM202.875 291.282C199.926 294.978 204.966 306.424 211.241 313.797C216.285 319.565 222.919 323.721 230.315 325.744C237.774 327.884 245.672 327.971 253.176 325.995C265.265 323.092 274.091 317.369 279.215 308.952C282.04 304.367 283.579 299.108 283.67 293.725C283.766 290.886 283.333 288.053 282.395 285.371C282.018 285.705 281.558 286.227 281.202 286.603C280.847 286.979 280.429 287.459 280.031 287.856C277.145 290.739 271.456 294.122 253.197 293.851C248.248 293.817 243.308 293.447 238.41 292.744C235.231 292.368 231.257 291.866 225.463 291.323C207.978 289.694 203.523 290.342 202.854 291.177L202.875 291.282Z" fill="#1D1E1C"/>
<path d="M236.631 259.221C236.305 259.217 235.987 259.123 235.711 258.949C234.175 257.986 232.848 256.724 231.809 255.239C230.771 253.753 230.042 252.074 229.667 250.302C229.36 248.926 229.335 247.503 229.594 246.117C229.853 244.732 230.39 243.413 231.172 242.24C232.49 240.536 234.264 239.24 236.288 238.501C238.313 237.762 240.506 237.61 242.613 238.063C242.833 238.098 243.044 238.177 243.233 238.293C243.422 238.41 243.587 238.563 243.717 238.744C243.847 238.924 243.94 239.128 243.991 239.345C244.042 239.561 244.05 239.786 244.014 240.005C243.933 240.447 243.682 240.841 243.315 241.102C242.948 241.363 242.494 241.472 242.048 241.404C240.58 241.066 239.046 241.141 237.617 241.62C236.188 242.099 234.92 242.965 233.954 244.12C233.437 244.918 233.087 245.812 232.925 246.749C232.763 247.686 232.793 248.646 233.013 249.571C233.294 250.897 233.842 252.152 234.622 253.261C235.402 254.371 236.398 255.311 237.552 256.025C237.741 256.14 237.906 256.292 238.036 256.472C238.166 256.651 238.259 256.855 238.31 257.071C238.36 257.286 238.367 257.51 238.331 257.728C238.294 257.947 238.214 258.156 238.095 258.343C237.939 258.59 237.723 258.794 237.467 258.936C237.211 259.079 236.924 259.155 236.631 259.158V259.221Z" fill="#1D1E1C"/>
<path d="M172.63 244.35C179.972 244.35 185.912 233.906 185.912 221.061C185.912 208.216 179.972 197.773 172.63 197.773C165.289 197.773 159.349 208.216 159.349 221.061C159.349 233.906 165.226 244.35 172.63 244.35Z" fill="#000100"/>
<path d="M297.6 244.35C304.941 244.35 310.881 233.906 310.881 221.061C310.881 208.216 304.941 197.773 297.6 197.773C290.259 197.773 284.34 208.216 284.34 221.061C284.34 233.906 290.28 244.35 297.6 244.35Z" fill="#000100"/>
<path d="M173.258 148.814C165.352 146.141 157.258 152.01 153.702 154.579C149.399 158.081 145.83 162.396 143.199 167.278C140.568 172.159 138.928 177.511 138.371 183.027C138.204 184.906 137.702 190.003 139.626 190.838C141.55 191.674 143.809 188.749 145.733 186.932C152.782 179.873 161.399 174.588 169.033 168.134C178.194 160.448 180.829 158.464 180.453 155.477C180.055 152.073 175.956 149.713 173.258 148.814Z" fill="#572318"/>
<path d="M140.255 193.783C139.658 193.783 139.068 193.662 138.519 193.428C134.712 191.778 135.277 185.909 135.591 182.755C136.17 176.839 137.926 171.098 140.756 165.869C143.586 160.64 147.433 156.027 152.072 152.302C155.899 149.524 164.893 142.987 174.179 146.036C178.007 147.331 182.713 150.485 183.257 155.08C183.8 159.675 180.956 161.764 172.569 168.803L170.854 170.244C167.821 172.771 164.579 175.173 161.526 177.471C156.663 180.914 152.056 184.704 147.742 188.812L147.408 189.146C145.379 191.298 142.911 193.783 140.255 193.783ZM169.076 150.966C163.533 150.966 158.012 154.976 155.397 156.877C147.393 163.494 142.303 172.978 141.217 183.298C141.042 184.683 140.993 186.081 141.07 187.475C141.886 186.807 142.848 185.825 143.413 185.261L143.748 184.927C148.261 180.627 153.077 176.656 158.158 173.043C161.191 170.787 164.328 168.448 167.235 166.025L168.95 164.584C174.849 159.634 177.777 157.148 177.777 155.874C177.568 154.099 174.89 152.302 172.485 151.488C171.391 151.106 170.235 150.929 169.076 150.966Z" fill="#1D1E1C"/>
<path d="M465.633 546.077C459.777 545.868 454.2 545.513 448.901 545.011C454.139 544.48 459.057 542.241 462.894 538.641C465.947 535.592 469.963 529.702 468.06 527.091C467.014 525.608 464.42 525.65 462.58 525.858C460.254 527.548 457.816 529.077 455.28 530.433C450.114 533.169 443.233 536.699 434.595 536.197C431.781 535.993 429.013 535.381 426.375 534.38L350.286 456.578C331.462 432.955 308.141 405.886 276.203 384.77C272.815 382.535 269.636 381.115 266.29 379.068V365.178C293.493 364.403 320.114 357.133 343.927 343.978C366.411 331.446 379.943 314.09 388.665 303.396C391.171 307.908 394.994 311.551 399.625 313.839C410.71 319.061 422.13 313.317 426.229 311.249C432.319 308.125 437.564 303.579 441.519 297.997C445.473 292.416 448.02 285.963 448.943 279.188C449.382 275.679 452.122 254.124 436.603 244.538C427.379 238.877 414.851 239.713 404.205 245.916C407.644 228.996 408.588 211.665 407.008 194.472C405.586 179.539 400.587 134.152 364.09 95.0734C342.604 72.892 315.452 57.0019 285.574 49.123C257.654 41.5625 228.222 41.5625 200.302 49.123C170.423 57.0019 143.271 72.892 121.786 95.0734C85.2677 134.152 80.2898 179.539 78.8676 194.472C77.2425 211.681 78.1515 229.034 81.5657 245.979C70.8989 239.713 58.3915 238.94 49.1469 244.6C33.6487 254.145 36.3886 275.742 36.8278 279.251C37.7514 286.028 40.3008 292.483 44.2592 298.065C48.2175 303.647 53.4676 308.191 59.5628 311.312C63.7458 313.4 75.1028 319.123 86.167 313.902C90.7931 311.607 94.6142 307.966 97.1267 303.458C105.869 314.152 119.401 331.446 141.865 344.041C165.715 357.198 192.37 364.467 219.607 365.241V379.13C216.239 381.219 213.06 382.598 209.672 384.832C177.839 405.886 154.539 432.872 135.715 456.578L59.5209 534.38C56.883 535.378 54.1145 535.99 51.3012 536.197C42.6632 536.782 35.7821 533.169 30.5951 530.433C28.0571 529.081 25.6179 527.553 23.2956 525.858C21.476 525.65 18.8825 525.608 17.8158 527.091C15.9334 529.702 19.9074 535.592 23.0028 538.641C26.8371 542.245 31.7558 544.485 36.9952 545.011C31.7036 545.513 26.0983 545.868 20.2629 546.077C13.1517 546.327 6.41698 546.306 0.100557 546.077C-0.16476 547.785 0.0979034 549.534 0.853508 551.089C4.47186 558.149 19.8864 559.193 39.2122 554.139C29.1803 558.936 18.2088 561.454 7.08627 561.512C5.64109 561.54 4.19547 561.484 2.7568 561.345C2.33701 561.977 2.05976 562.693 1.9442 563.443C1.82865 564.193 1.87754 564.96 2.08751 565.689C3.92806 570.646 17.8716 571.099 43.9181 567.047C37.7243 570.115 31.8167 573.729 26.2656 577.845C21.4551 581.333 16.7282 584.926 17.5021 586.805C18.4851 589.333 27.9597 587.787 29.0055 587.641C35.5311 586.596 47.1391 583.046 59.8974 568.843C59.9044 572.878 60.8798 576.853 62.7419 580.435C64.3524 583.484 67.2805 589.04 73.1995 590.356H73.325C74.0859 590.491 74.8661 590.475 75.6208 590.309C76.3755 590.143 77.09 589.83 77.7234 589.387C78.3567 588.945 78.8965 588.382 79.3117 587.731C79.727 587.08 80.0096 586.354 80.1434 585.594C80.3109 584.788 80.3109 583.956 80.1434 583.15C79.7691 581.615 79.5381 580.049 79.4532 578.472C79.1604 573.313 79.2859 571.099 79.0349 566.316C78.8676 563.475 79.4114 559.235 76.3578 554.327L194.508 458.583C180.14 505.807 170.079 545.241 167.13 573.856C161.086 632.463 156.673 679.124 152.678 732.802C151.883 743.246 151.946 778.92 145.211 815.158C143.605 824.607 141.44 833.953 138.727 843.146C136.824 849.389 134.005 855.315 130.361 860.732C129.043 863.241 126.954 865.262 124.4 866.497C120.618 867.498 116.742 868.107 112.834 868.314C106.664 868.669 95.1188 871.071 87.2546 877.337C80.0825 883.712 75.4309 892.44 74.1407 901.942C91.2704 901.942 162.362 904.323 166.816 901.942C174.095 898.057 172.443 883.352 173.091 879.614C174.179 873.912 174.932 864.032 175.831 860.816C179.094 848.994 207.476 778.001 242.76 640.922C277.981 778.001 306.384 848.994 309.689 860.816C310.588 864.074 311.341 873.954 312.429 879.614C313.14 883.352 311.467 898.057 318.703 901.942C323.158 904.323 394.249 901.942 411.379 901.942C410.09 892.518 405.504 883.855 398.433 877.483C390.589 871.217 378.939 868.836 372.874 868.481C368.966 868.274 365.091 867.665 361.308 866.664C358.746 865.441 356.653 863.417 355.347 860.899C351.687 855.492 348.866 849.563 346.981 843.313C344.251 834.123 342.079 824.776 340.476 815.325C333.762 779.087 333.825 743.454 333.03 732.969C329.015 679.291 324.664 632.714 318.578 574.023C315.629 545.429 305.548 505.974 291.263 458.75L409.371 554.494C406.339 559.402 406.882 563.642 406.715 566.483C406.443 571.266 406.59 573.48 406.297 578.639C406.212 580.216 405.981 581.782 405.606 583.317C405.219 584.813 405.441 586.401 406.226 587.733C407.01 589.064 408.292 590.031 409.79 590.419C410.615 590.641 411.479 590.677 412.32 590.523H412.446C418.407 589.207 421.335 583.651 422.903 580.602C424.761 577.017 425.749 573.046 425.79 569.01C438.548 583.192 450.156 586.743 456.682 587.808C457.602 587.954 467.139 589.5 468.164 586.972C468.917 585.03 464.232 581.5 459.505 578.012C453.951 573.9 448.044 570.287 441.853 567.214C467.955 571.266 481.899 570.813 483.683 565.856C483.881 565.121 483.916 564.351 483.786 563.601C483.656 562.851 483.364 562.138 482.93 561.512C481.508 561.616 480.065 561.658 478.58 561.679C467.465 561.614 456.502 559.096 446.475 554.306C465.801 559.36 481.215 558.316 484.834 551.256C485.57 549.695 485.831 547.952 485.587 546.244C479.458 546.306 472.682 546.327 465.633 546.077Z" stroke="black" stroke-width="2" stroke-linecap="round" stroke-linejoin="round"/>
<path d="M249.013 31.0355C219.672 28.7803 190.209 33.3932 162.968 44.5073C116.431 63.5141 89.764 95.9509 78.2397 110.195C62.7519 129.505 50.2972 151.056 41.3032 174.108L46.3856 177.638C51.6975 163.524 58.3878 149.966 66.3598 137.16C68.8487 133.15 71.0239 129.975 72.0696 128.492C79.4147 117.819 87.7175 107.836 96.8752 98.6661C90.6006 108.295 82.2345 122.059 72.6134 139.019C49.2301 180.458 49.6066 188.081 50.8824 192.718C57.3243 215.15 100.222 218.054 105.116 218.346C109.722 187.679 119.115 157.923 132.954 130.163C152.05 92.254 165.687 87.0323 173.342 85.9671C178.633 85.3256 184.001 86.0893 188.903 88.1811C208.918 97.2458 216.971 135.03 211.282 181.314L216.49 180.834C216.852 166.339 217.201 151.85 217.536 137.369C217.71 150.221 221.258 162.803 227.826 173.858C237.656 189.961 251.335 196.833 260.517 201.303C298.164 219.599 338.363 209.219 352.544 204.832C350.829 181.384 349.128 157.928 347.441 134.466L360.136 200.739L364.131 200.384L354.531 134.382C361.416 148.245 365.893 163.176 367.77 178.536C368.98 188.279 369.155 198.123 368.293 207.903C377.111 209.738 386.176 210.077 395.107 208.905C408.009 207.131 420.324 202.391 431.081 195.058C431.779 187.241 431.659 179.373 430.725 171.581C425.706 129.808 398.077 102.76 386.092 92.4628C397.749 99.9026 408.996 107.963 419.787 116.608C422.757 119.01 425.643 121.391 428.466 123.793L431.206 119.448C424.073 110.508 416.322 102.078 408.011 94.2173C385.913 73.2577 359.941 56.7925 331.545 45.7396C311.905 38.1949 291.307 33.4217 270.347 31.5577C281.891 25.4679 295.073 23.1935 307.994 25.0619C316.46 26.0678 324.669 28.6164 332.214 32.5811C333.155 32.5811 334.306 32.3931 334.452 31.8292C335.038 29.7405 322.698 24.0385 315.838 21.6783C308.35 19.1093 293.981 16.0807 272.668 22.9315C277.269 19.511 282.169 16.5121 287.309 13.9712C293.442 10.8838 299.894 8.4745 306.551 6.78621L304.731 2.98486C293.515 5.34143 282.696 9.29454 272.606 14.7231C264.135 19.2299 256.218 24.7041 249.013 31.0355Z" fill="#683B13"/>
<path d="M84.7653 218.242C70.1246 214.983 52.5558 208.091 48.3936 193.554C46.6367 187.434 47.076 178.933 70.3756 137.682C72.5926 133.686 74.8654 129.738 77.194 125.839C76.1691 127.26 75.1025 128.68 74.1613 130.017C72.8436 131.938 70.7939 134.967 68.5141 138.601C60.6671 151.262 54.0621 164.65 48.791 178.578C48.6459 178.954 48.4213 179.294 48.1325 179.575C47.8438 179.856 47.4976 180.072 47.1178 180.207C46.7489 180.328 46.3571 180.363 45.9727 180.309C45.5882 180.254 45.2215 180.112 44.9008 179.894L39.7347 176.28C39.2391 175.923 38.8787 175.409 38.7117 174.821C38.5448 174.234 38.5809 173.607 38.8144 173.043C47.8916 149.682 60.4961 127.847 76.1901 108.295C86.5013 95.4913 113.838 61.4671 161.943 41.8129C189.2 30.6376 218.685 25.9399 248.072 28.0904C255.165 21.9297 262.924 16.5776 271.204 12.1331C281.54 6.55874 292.628 2.50657 304.125 0.102439C304.679 -0.0191074 305.258 0.0536847 305.765 0.308563C306.272 0.563441 306.675 0.984843 306.907 1.50184L308.706 5.30319C308.871 5.67821 308.957 6.08371 308.957 6.49372C308.957 6.90374 308.871 7.30924 308.706 7.68425C308.53 8.04695 308.282 8.36959 307.976 8.63196C307.67 8.89433 307.313 9.09077 306.928 9.20897C300.474 10.904 294.224 13.2993 288.292 16.3522L287.811 16.5819C297.459 15.1202 307.315 15.9357 316.591 18.963C321.757 20.7383 338.468 26.9416 336.816 32.4766C336.063 35.0039 333.135 35.1292 332.173 35.1709C331.738 35.1878 331.306 35.0944 330.918 34.8994C323.645 31.0777 315.735 28.6145 307.576 27.6309C299.743 26.5297 291.77 26.9768 284.109 28.9468C283.042 29.2392 282.018 29.5316 280.951 29.8866C298.611 32.2655 315.929 36.7101 332.549 43.1287C361.28 54.3015 387.562 70.9433 409.936 92.1286C418.34 100.064 426.168 108.586 433.361 117.631C433.708 118.089 433.908 118.642 433.934 119.217C433.961 119.791 433.812 120.36 433.507 120.848L430.788 125.192C430.585 125.506 430.322 125.777 430.013 125.989C429.704 126.2 429.356 126.348 428.989 126.424C428.621 126.486 428.243 126.468 427.882 126.371C427.521 126.273 427.185 126.099 426.898 125.86C424.053 123.437 421.167 121.036 418.281 118.717C414.516 115.709 410.709 112.764 406.819 109.903C421.255 127.42 430.479 148.63 433.444 171.121C434.406 179.107 434.533 187.171 433.821 195.183C433.785 195.599 433.657 196.001 433.448 196.362C433.238 196.723 432.951 197.034 432.608 197.271C421.508 204.812 408.82 209.7 395.525 211.558C386.315 212.769 376.967 212.416 367.875 210.513C367.241 210.366 366.681 209.995 366.297 209.47C365.914 208.945 365.731 208.3 365.783 207.652C365.951 205.793 366.076 203.913 366.16 202.034C365.71 202.595 365.056 202.956 364.34 203.036L360.345 203.391C359.714 203.438 359.088 203.251 358.586 202.865C358.085 202.48 357.743 201.924 357.626 201.303L353.339 178.87L355.2 204.54C355.248 205.163 355.087 205.784 354.742 206.306C354.398 206.828 353.889 207.22 353.297 207.422C333.553 213.5 295.131 221.124 259.408 203.746C250.707 199.569 236.067 192.384 225.609 175.361C223.144 171.326 221.097 167.05 219.502 162.6L219.063 180.834C219.052 181.5 218.801 182.14 218.355 182.635C217.909 183.13 217.298 183.447 216.636 183.528L211.449 184.029C211.063 184.073 210.671 184.023 210.307 183.885C209.944 183.747 209.618 183.524 209.358 183.236C209.09 182.938 208.889 182.586 208.77 182.204C208.651 181.822 208.616 181.419 208.668 181.022C214.294 135.197 205.907 98.8958 187.752 90.6665C183.275 88.7702 178.386 88.0511 173.551 88.5778C169.054 89.2044 155.417 91.1051 135.171 131.291C121.49 158.798 112.189 188.268 107.605 218.638C107.508 219.301 107.171 219.904 106.659 220.335C106.146 220.766 105.493 220.995 104.823 220.978C98.0787 220.562 91.3744 219.647 84.7653 218.242ZM97.4609 95.9926C97.8682 96.0779 98.2443 96.2729 98.5485 96.5565C99.0424 97.001 99.3619 97.6064 99.45 98.2645C99.5381 98.9226 99.3891 99.5905 99.0296 100.149C90.6634 113.182 82.5483 126.717 74.8515 140.376C50.8198 182.964 52.4721 188.771 53.3715 191.883C58.684 210.388 92.8805 214.607 102.962 215.464C107.747 185.384 117.085 156.207 130.654 128.931C149.958 90.6038 164.118 84.505 173.049 83.2518C178.816 82.6048 184.653 83.4611 189.99 85.7373C203.711 92.0032 212.453 110.801 214.942 137.39C214.931 136.689 215.193 136.012 215.673 135.501C216.153 134.99 216.814 134.686 217.515 134.654C217.853 134.651 218.188 134.715 218.501 134.841C218.814 134.968 219.099 135.155 219.34 135.391C219.581 135.628 219.773 135.91 219.904 136.22C220.036 136.531 220.106 136.864 220.108 137.202C220.268 149.59 223.703 161.717 230.064 172.354C239.706 188.144 253.468 194.828 261.688 198.838C294.671 214.879 330.29 208.571 349.846 202.848L344.91 134.737C344.825 134.034 345.014 133.324 345.438 132.757C345.863 132.189 346.49 131.806 347.19 131.688C347.518 131.634 347.854 131.645 348.177 131.721C348.501 131.797 348.807 131.936 349.077 132.13C349.347 132.324 349.576 132.569 349.751 132.852C349.926 133.134 350.044 133.448 350.097 133.776L357.647 173.315L352.042 134.842C351.937 134.209 352.055 133.559 352.375 133.004C352.696 132.448 353.199 132.02 353.799 131.792C354.384 131.581 355.027 131.594 355.603 131.83C356.179 132.065 356.646 132.506 356.915 133.066C363.954 147.209 368.537 162.443 370.468 178.118C371.601 187.25 371.846 196.469 371.2 205.647C379.045 207.049 387.06 207.232 394.96 206.19C407.033 204.522 418.58 200.183 428.759 193.491C429.297 186.322 429.143 179.118 428.299 171.978C423.614 133.317 398.85 106.874 384.503 94.5514C383.997 94.0944 383.675 93.4689 383.598 92.7922C383.521 92.1155 383.694 91.434 384.084 90.8754C384.445 90.3105 385.016 89.9119 385.671 89.767C386.326 89.6221 387.011 89.7428 387.577 90.1026C399.315 97.5911 410.64 105.707 421.502 114.414C423.593 116.169 425.852 117.944 428.006 119.761C421.315 111.476 414.084 103.64 406.359 96.3059C384.499 75.5476 358.805 59.2318 330.708 48.2668C311.286 40.7931 290.912 36.0687 270.18 34.231C269.574 34.2081 268.995 33.9741 268.545 33.5697C268.094 33.1653 267.799 32.6159 267.712 32.0171C267.611 31.437 267.697 30.8402 267.956 30.3114C268.215 29.7827 268.635 29.349 269.155 29.0721C280.432 23.1555 293.212 20.7062 305.882 22.0333C294.886 20.6389 283.715 21.8188 273.254 25.4796C272.665 25.6707 272.025 25.6354 271.46 25.3804C270.895 25.1255 270.446 24.6693 270.2 24.1011C269.934 23.5157 269.875 22.8568 270.035 22.2338C270.195 21.6108 270.563 21.061 271.079 20.6757C275.813 17.1851 280.845 14.1169 286.117 11.5065L287.769 10.7128C282.898 12.5329 278.154 14.6751 273.568 17.125C265.307 21.5456 257.586 26.9074 250.561 33.1032C250.309 33.3347 250.011 33.5116 249.687 33.6231C249.364 33.7345 249.02 33.7779 248.679 33.7507C219.723 31.4957 190.641 36.0452 163.762 47.0345C116.912 66.1666 90.1824 99.3971 80.1012 111.908C65.2632 130.421 53.2595 151.031 44.4825 173.064L45.1727 173.565C50.3432 160.452 56.6925 147.834 64.1428 135.865C66.4854 132.147 68.5769 129.035 69.9364 127.093C77.376 116.273 85.776 106.144 95.0347 96.828C95.3378 96.5022 95.7223 96.2627 96.1487 96.1343C96.575 96.0058 97.0279 95.9929 97.4609 96.097V95.9926ZM360.283 155.853L366.264 196.895C366.31 190.899 365.968 184.906 365.24 178.954C364.26 171.125 362.602 163.396 360.283 155.853Z" fill="#1D1E1C"/>
<path d="M411.797 207.318C411.272 207.188 410.799 206.9 410.444 206.493C410.088 206.085 409.867 205.579 409.81 205.041C406.756 177.889 399.227 159.446 393.078 144.679C384.879 124.712 373.689 97.3921 346.939 75.7536C331.618 63.3728 313.647 54.6822 294.42 50.3556C293.751 50.1599 293.181 49.7165 292.827 49.1157C292.474 48.515 292.363 47.8022 292.518 47.1227C292.673 46.4433 293.081 45.8484 293.66 45.4594C294.239 45.0704 294.945 44.9167 295.633 45.0295C315.616 49.4986 334.297 58.5116 350.222 71.3675C378.019 93.8414 389.522 121.892 397.909 142.382C404.184 157.504 411.818 176.281 414.955 204.269C415.036 204.974 414.845 205.683 414.422 206.253C413.999 206.823 413.374 207.211 412.675 207.339C412.383 207.374 412.087 207.367 411.797 207.318Z" fill="#1D1E1C"/>
<path d="M351.959 202.576C351.379 202.455 350.857 202.141 350.477 201.686C350.098 201.231 349.883 200.662 349.867 200.07C348.947 175.382 343.195 138.726 320.942 104.389C311.592 89.9771 295.843 65.8531 266.143 54.47C258.474 51.5497 250.448 49.6671 242.279 48.8724C241.616 48.7403 241.029 48.3588 240.64 47.8068C240.251 47.2548 240.089 46.5744 240.188 45.9065C240.246 45.2004 240.583 44.5463 241.124 44.0881C241.665 43.6299 242.367 43.405 243.074 43.4628C251.665 44.3027 260.106 46.2835 268.172 49.3528C299.545 61.3208 315.713 86.322 325.397 101.277C348.403 136.638 354.26 174.38 355.201 199.736C355.232 200.094 355.193 200.455 355.085 200.797C354.977 201.14 354.803 201.458 354.572 201.734C354.34 202.009 354.057 202.236 353.738 202.402C353.419 202.569 353.07 202.67 352.712 202.702C352.457 202.692 352.204 202.65 351.959 202.576Z" fill="#1D1E1C"/>
<path d="M299.879 202.41C299.496 202.325 299.138 202.153 298.833 201.906C298.528 201.66 298.285 201.346 298.122 200.989C291.26 186.357 285.663 171.166 281.39 155.582C278.961 146.778 277.027 137.846 275.596 128.826C274.305 119.839 271.982 111.029 268.673 102.572C262.964 87.8261 254.325 65.2687 234.247 57.29C228.462 55.0258 222.253 54.0424 216.05 54.4077C215.71 54.4188 215.37 54.3628 215.051 54.2429C214.732 54.1229 214.44 53.9413 214.192 53.7086C213.943 53.4758 213.743 53.1964 213.602 52.8863C213.462 52.5762 213.384 52.2414 213.373 51.9013C213.339 51.1912 213.585 50.4959 214.058 49.9648C214.531 49.4337 215.194 49.1091 215.904 49.0607C222.819 48.643 229.742 49.7335 236.192 52.2564C258.32 60.9869 267.377 84.7349 273.505 100.546C276.913 109.374 279.306 118.561 280.637 127.928C282.024 136.767 283.916 145.519 286.305 154.141C290.537 169.373 296.051 184.22 302.786 198.525C303.087 199.172 303.132 199.908 302.911 200.587C302.689 201.265 302.219 201.834 301.594 202.18C301.069 202.463 300.46 202.544 299.879 202.41Z" fill="#1D1E1C"/>
<path d="M77.5083 209.469H77.3828C76.7038 209.266 76.1332 208.803 75.796 208.18C75.4588 207.558 75.3826 206.827 75.584 206.148C81.3988 184.309 89.6712 163.197 100.243 143.217C115.7 113.976 134.921 77.8423 173.656 61.5508C184.223 57.103 195.466 54.4691 206.911 53.7601C207.59 53.7259 208.255 53.9616 208.761 54.4156C209.266 54.8696 209.571 55.505 209.609 56.1829V56.3083C209.639 57.0247 209.39 57.7247 208.914 58.2619C208.438 58.7991 207.773 59.1319 207.058 59.1906C196.175 59.8593 185.483 62.3591 175.434 66.5844C138.539 82.1449 119.82 117.422 104.782 145.765C94.4168 165.376 86.3059 186.095 80.6037 207.527C80.4261 208.18 80.0091 208.742 79.4356 209.101C78.8622 209.461 78.1742 209.593 77.5083 209.469Z" fill="#1D1E1C"/>
<path d="M258.405 196.561C258.043 196.48 257.703 196.321 257.41 196.093C257.117 195.866 256.878 195.576 256.711 195.245C250.753 183.896 246.027 171.944 242.614 159.592C241.192 154.412 239.226 144.115 235.314 123.583L234.666 120.2C231.194 102.008 229.625 93.6948 224.501 83.0009C222.19 78.1985 219.497 73.5887 216.449 69.2158C216.046 68.6258 215.883 67.9054 215.992 67.1999C216.101 66.4945 216.473 65.8564 217.034 65.4145C217.537 64.997 218.184 64.7955 218.835 64.8542C219.486 64.913 220.087 65.2271 220.506 65.7277C220.56 65.7938 220.609 65.8636 220.653 65.9366C223.887 70.5688 226.734 75.4588 229.165 80.5572C234.603 92.003 236.339 100.984 239.79 119.156L240.418 122.518C244.308 142.904 246.274 153.138 247.633 158.025C250.941 170 255.52 181.588 261.291 192.593C261.613 193.231 261.685 193.966 261.491 194.654C261.297 195.342 260.853 195.933 260.245 196.31C259.681 196.609 259.029 196.698 258.405 196.561Z" fill="#1D1E1C"/>
</svg>
