<svg width="489" height="903" viewBox="0 0 489 903" fill="none" xmlns="http://www.w3.org/2000/svg">
<path d="M486.944 537.816C486.199 536.569 482.458 538.037 481.185 538.037C470.725 538.033 460.357 536.028 450.612 532.125C467.554 536.991 481.538 535.926 485.396 528.928C486.145 527.538 486.529 525.973 486.513 524.384C474.643 525.047 462.74 524.285 451.043 522.112C454.825 521.56 458.45 520.189 461.678 518.091C467.201 514.432 472.333 508.038 471.001 505.806C470.648 505.263 469.728 504.72 467.084 505.122C460.753 508.077 454.204 510.511 447.498 512.401C438.86 514.854 435.159 514.934 431.829 513.547C428.759 512.228 426.15 509.985 424.347 507.113C411.499 488.454 392.128 475.485 377.674 458.112C361.908 439.132 332.92 404.588 294.062 373.785C282.311 364.536 272.322 357.599 265.604 353.155V338.135L245.783 337.653L223.514 338.135V353.155C216.796 357.599 206.729 364.536 195.056 373.785C156.197 404.588 127.308 439.132 111.444 458.112C96.9893 475.485 77.6188 488.454 64.7705 507.113C62.9578 509.976 60.3522 512.217 57.2887 513.547C53.9004 514.934 50.1986 514.854 41.62 512.401C34.913 510.514 28.3636 508.08 22.0342 505.122C19.3117 504.72 18.3912 505.263 18.117 505.806C16.7852 507.977 21.9167 514.432 27.4399 518.091C30.6677 520.189 34.2927 521.56 38.075 522.112C26.3782 524.285 14.4742 525.047 2.60502 524.384C2.57916 525.974 2.96439 527.542 3.72141 528.928C7.63858 535.926 21.5641 536.971 38.5059 532.125C28.7607 536.028 18.3927 538.033 7.93237 538.037C6.65929 538.037 2.91839 536.569 2.17413 537.816C1.42987 539.062 3.58431 541.556 4.81822 542.822C11.0661 549.116 22.4455 547.849 35.6268 546.22C40.5232 545.617 44.4208 544.873 46.7124 544.411C41.6118 546.672 36.6535 549.257 31.8663 552.152C20.5457 558.988 20.4086 561.441 20.5652 562.386C20.8982 564.538 23.8948 565.643 24.3257 565.784C28.9676 567.433 33.5898 564.055 40.5036 559.752C44.8125 557.018 50.9233 553.258 58.6793 549.055L65.1035 558.606C70.1175 566.066 71.5864 568.318 74.4068 568.861C75.6875 569.181 77.0334 569.091 78.2627 568.602C79.492 568.113 80.5456 567.249 81.2814 566.126C82.2803 564.015 80.3804 560.617 79.7341 559.531C77.2271 555.268 74.9747 547.266 76.6395 530.859L189.219 433.26C183.48 453.046 178.094 474.741 173.55 498.165C170.397 514.894 167.792 530.819 165.873 546.1C164.015 548.882 162.427 551.846 161.133 554.947C158.643 561.111 157.243 567.681 157 574.35C156.158 587.218 158.195 590.636 158.332 603.927C158.333 611.084 157.842 618.233 156.863 625.32C155.218 639.536 151.34 716.002 146.228 770.913C144.818 786.074 142.311 809.116 138.237 837.266C138.472 839.94 138.355 843.66 136.024 845.912C134.222 847.641 132.107 847.44 127.151 847.721C120.831 847.839 114.562 848.909 108.545 850.898C104.412 852.466 101.944 853.391 100.573 855.905C97.9881 860.63 100.789 867.969 104.491 872.292C109.27 877.901 112.638 875.448 124.076 883.21C127.716 885.617 131.132 888.363 134.281 891.413C138.531 895.595 138.59 896.782 141.371 898.692C145.881 901.509 151.205 902.632 156.432 901.869C161.908 901.315 167.051 898.918 171.063 895.052C175.365 890.663 178.033 884.865 178.603 878.665C179.426 870.422 175.92 867.949 174.686 855.905C174.197 850.917 174.197 845.892 174.686 840.905C176.116 820.557 186.105 801.838 187.104 799.948C194.213 786.396 209.314 741.96 244.725 602.901C242.767 605.857 246.684 605.857 244.725 602.901C280.117 741.94 295.218 786.375 302.327 799.948C303.326 801.838 313.315 820.557 314.745 840.905C315.234 845.892 315.234 850.917 314.745 855.905C313.432 867.969 309.927 870.422 310.828 878.665C311.39 884.867 314.06 890.668 318.368 895.052C322.378 898.921 327.522 901.318 332.999 901.869C338.226 902.63 343.549 901.508 348.06 898.692C350.841 896.782 350.9 895.595 355.15 891.413C358.207 888.379 361.524 885.633 365.061 883.21C376.421 875.448 379.789 877.901 384.647 872.292C388.407 867.888 391.208 860.63 388.564 855.905C387.193 853.391 384.647 852.466 380.592 850.898C374.575 848.909 368.306 847.839 361.986 847.721C356.991 847.44 354.915 847.721 353.113 845.912C350.783 843.66 350.665 839.88 350.9 837.266C346.748 808.955 344.339 785.973 342.909 770.913C337.797 716.002 333.919 639.536 332.274 625.32C331.276 618.236 330.785 611.085 330.805 603.927C330.942 590.636 332.979 587.218 332.137 574.35C331.885 567.682 330.486 561.114 328.004 554.947C326.693 551.867 325.106 548.919 323.265 546.14C321.306 530.939 318.838 514.934 315.587 498.205C311.043 474.781 305.657 453.086 299.918 433.301L412.498 530.818C414.163 547.226 411.91 555.228 409.403 559.491C408.757 560.577 406.759 563.693 407.856 566.086C408.953 568.478 412.067 569.323 414.731 568.82C417.394 568.318 419.02 566.025 424.034 558.566L430.458 549.015C438.292 553.217 444.325 557.058 448.634 559.712C455.547 564.115 460.17 567.493 464.812 565.744C465.242 565.603 468.239 564.497 468.572 562.346C468.729 561.401 468.572 558.948 457.271 552.112C452.482 549.221 447.524 546.636 442.425 544.37C444.716 544.833 448.614 545.577 453.511 546.18C466.613 547.809 478.071 549.075 484.319 542.782C485.533 541.556 487.688 538.861 486.944 537.816Z" fill="#FAC497"/>
<path d="M164.893 543.184C187.809 543.445 214.054 550 237.792 549.739C264.625 549.457 296.98 542.098 322.755 541.193C323.128 545.034 330.139 558.184 330.139 562.064C329.92 593.928 331.339 625.781 334.389 657.491C328.945 654.736 306.695 647.96 289.949 649.227C278.809 649.812 268.111 653.889 259.297 660.909C253.578 640.963 249.994 626.727 244.255 606.822C238.967 627.15 233.64 643.838 228.352 664.166C215.714 658.52 202.303 654.912 188.592 653.47C177.162 652.542 165.662 653.672 154.611 656.807C157.255 626.929 157.412 596.809 157.333 567.533C158.234 558.686 162.151 551.227 164.893 543.184Z" fill="#F9F5F2"/>
<path d="M195.604 372.317L150.811 413.134C152.139 413.933 153.536 414.606 154.983 415.144C161.427 417.517 168.987 417.336 189.297 408.871C210.489 400.024 212.487 395.942 213.231 393.952C213.407 393.51 216.482 384.864 211.273 378.007C209.398 375.703 206.955 373.958 204.198 372.957C201.441 371.956 198.473 371.735 195.604 372.317Z" fill="#EE779A"/>
<path d="M226.784 404.005C226.402 402.508 225.458 401.228 224.159 400.445C222.859 399.661 221.31 399.437 219.851 399.823C219.146 400.03 218.483 400.363 217.892 400.808C214.171 403.703 210.339 406.599 206.395 409.494C204.574 410.821 202.772 412.128 200.97 413.395C200.268 413.886 199.684 414.533 199.26 415.289C198.836 416.044 198.584 416.888 198.522 417.758C198.189 422.785 197.562 429.601 196.367 437.623C195.545 443.093 194.409 449.688 192.979 457.73C190.061 474.137 189.062 478.34 191.491 483.588C193.165 487.217 195.816 490.28 199.129 492.414C201.891 494.162 204.975 495.303 208.187 495.767C211.399 496.23 214.671 496.006 217.794 495.109C221.485 494.032 224.822 491.947 227.45 489.077C232.288 483.728 232.856 476.912 232.856 464.124C232.856 444.017 232.856 433.321 229.644 416.712C228.743 411.947 227.724 407.705 226.784 404.005Z" fill="#EE779A"/>
<path d="M222.985 340.407C223.253 344.892 223.148 349.392 222.671 353.859L201.323 368.275C205.578 367.747 209.894 368.321 213.877 369.944C215.836 370.789 223.67 374.368 230.721 390.875C237.772 407.383 238.555 423.348 238.888 441.142C239.084 449.667 238.888 456.685 238.555 461.249C238.272 463.145 238.405 465.082 238.944 466.918C239.482 468.755 240.414 470.445 241.67 471.865C242.12 472.328 244.823 475.082 246.977 474.58C249.543 473.977 252.128 468.548 251.854 446.43C250.366 416.672 249.641 393.529 249.778 374.669C250.247 365.956 248.305 357.284 244.177 349.656C238.164 339.281 227.059 334.395 224.277 336.466C223.474 336.989 222.867 337.974 222.985 340.407Z" fill="#EE779A"/>
<path d="M293.024 372.317L337.777 413.133C336.447 413.929 335.051 414.602 333.606 415.144C327.162 417.517 319.602 417.336 299.291 408.871C278.119 400.124 276.16 395.942 275.357 393.952C275.181 393.509 272.106 384.863 277.316 378.007C279.193 375.696 281.644 373.947 284.408 372.946C287.172 371.944 290.149 371.727 293.024 372.317Z" fill="#EE779A"/>
<path d="M261.863 404.005C262.236 402.516 263.17 401.24 264.458 400.456C265.747 399.672 267.286 399.445 268.737 399.823C269.444 400.023 270.109 400.357 270.696 400.808C274.417 403.704 278.237 406.599 282.193 409.494C284.014 410.822 285.816 412.128 287.618 413.395C288.314 413.893 288.894 414.542 289.317 415.296C289.741 416.05 289.996 416.891 290.066 417.758C290.399 422.785 291.026 429.601 292.221 437.624C293.043 443.093 294.179 449.688 295.609 457.731C298.527 474.138 299.526 478.34 297.098 483.588C295.423 487.217 292.773 490.28 289.459 492.415C286.698 494.162 283.614 495.303 280.401 495.767C277.189 496.231 273.918 496.007 270.794 495.109C267.104 494.029 263.768 491.945 261.138 489.077C256.3 483.729 255.732 476.912 255.732 464.125C255.732 444.018 255.732 433.321 258.945 416.713C259.904 411.947 260.903 407.705 261.863 404.005Z" fill="#EE779A"/>
<path d="M265.643 340.407C265.365 344.892 265.47 349.393 265.956 353.859L287.383 368.275C283.128 367.747 278.812 368.321 274.829 369.944C272.87 370.789 265.134 374.368 257.985 390.875C250.836 407.383 250.15 423.348 249.817 441.142C249.622 449.667 249.817 456.685 250.15 461.249C250.432 463.143 250.3 465.078 249.765 466.914C249.23 468.75 248.305 470.441 247.056 471.865C246.586 472.328 243.883 475.082 241.728 474.58C239.163 473.977 236.577 468.548 236.852 446.43C238.34 416.672 239.065 393.529 238.928 374.669C238.459 365.956 240.401 357.284 244.529 349.656C250.542 339.281 261.647 334.395 264.428 336.466C265.153 336.989 265.702 337.974 265.643 340.407Z" fill="#EE779A"/>
<path d="M265.545 338.055V353.095C272.263 357.518 282.33 364.455 294.003 373.704C332.862 404.508 361.849 439.051 377.615 458.032C392.07 475.404 411.44 488.373 424.288 507.032C426.091 509.904 428.7 512.148 431.77 513.466C435.158 514.854 438.86 514.773 447.439 512.32C454.145 510.43 460.694 507.996 467.025 505.042C469.747 504.639 470.668 505.182 470.942 505.725C472.274 507.897 467.142 514.351 461.619 518.01C458.391 520.109 454.766 521.479 450.984 522.032C462.681 524.204 474.585 524.967 486.454 524.304C486.471 525.892 486.086 527.458 485.337 528.848C481.42 535.845 467.495 536.891 450.553 532.045C460.298 535.947 470.666 537.952 481.126 537.956C482.4 537.956 486.14 536.489 486.885 537.735C487.629 538.982 485.475 541.475 484.241 542.742C477.993 549.035 466.613 547.768 453.432 546.14C448.536 545.537 444.638 544.793 442.346 544.33C447.445 546.595 452.403 549.181 457.193 552.071C468.513 558.908 468.65 561.361 468.494 562.306C468.161 564.457 465.164 565.563 464.733 565.704C460.091 567.352 455.469 563.975 448.555 559.672C444.246 556.937 438.136 553.177 430.38 548.975L423.955 558.526C418.941 565.985 417.472 568.237 414.652 568.78C413.371 569.101 412.025 569.011 410.796 568.522C409.567 568.033 408.513 567.168 407.777 566.045C406.779 564.035 408.678 560.536 409.325 559.45C411.832 555.188 414.084 547.185 412.419 530.778L299.84 433.18C305.578 452.965 310.965 474.66 315.508 498.085C318.76 514.733 321.208 530.818 323.167 546.019C325.008 548.798 326.595 551.746 327.906 554.826C330.388 560.993 331.787 567.562 332.039 574.229C332.881 587.097 330.844 590.515 330.707 603.806C330.687 610.964 331.178 618.115 332.176 625.2C333.821 639.415 337.699 715.881 342.811 770.793C344.241 785.953 346.728 808.996 350.802 837.145C350.567 839.819 350.685 843.539 353.015 845.791C354.817 847.52 356.933 847.319 361.888 847.6C368.208 847.718 374.477 848.788 380.494 850.777C384.627 852.346 387.095 853.271 388.466 855.784C391.051 860.509 388.25 867.848 384.549 872.171C379.77 877.781 376.401 875.328 364.963 883.089C361.32 885.491 357.904 888.238 354.759 891.292C350.508 895.475 350.45 896.661 347.668 898.571C343.157 901.387 337.834 902.51 332.607 901.748C327.131 901.197 321.986 898.8 317.976 894.932C313.668 890.547 310.998 884.746 310.436 878.545C309.613 870.301 313.119 867.828 314.353 855.784C314.843 850.797 314.843 845.772 314.353 840.784C312.923 820.436 302.934 801.717 301.935 799.827C294.826 786.275 279.725 741.839 244.333 602.781C247.6 607.869 252.006 612.081 257.182 615.066C263.77 619.065 271.461 620.719 279.059 619.771C294.238 617.599 302.229 604.912 303.424 602.941" stroke="black" stroke-width="2" stroke-linecap="round" stroke-linejoin="round"/>
<path d="M223.455 338.055V353.095C216.737 357.518 206.67 364.455 194.997 373.704C156.138 404.508 127.151 439.051 111.385 458.032C96.9303 475.404 77.5599 488.373 64.6332 507.032C62.8205 509.895 60.2148 512.136 57.1514 513.466C53.7631 514.854 50.0613 514.773 41.4827 512.32C34.7757 510.433 28.2263 507.999 21.8969 505.042C19.1744 504.639 18.2539 505.182 17.9797 505.725C16.6479 507.897 21.7794 514.351 27.3026 518.01C30.5304 520.109 34.1554 521.479 37.9377 522.032C26.2665 524.198 14.3892 524.961 2.54604 524.304C2.5271 525.88 2.91211 527.433 3.66244 528.808C7.57961 535.805 21.5052 536.85 38.4469 532.005C28.6921 535.926 18.3102 537.944 7.83423 537.956C6.56114 537.956 2.82025 536.489 2.07598 537.735C1.33172 538.982 3.48617 541.475 4.72007 542.742C10.968 549.035 22.3473 547.768 35.5286 546.14C40.4251 545.537 44.3227 544.793 46.6142 544.33C41.5136 546.591 36.5553 549.177 31.7681 552.071C20.4475 558.908 20.3104 561.361 20.4671 562.306C20.8001 564.457 23.7967 565.563 24.2276 565.704C28.8694 567.352 33.4917 563.974 40.4055 559.672C44.7144 556.937 50.8252 553.177 58.5812 548.975L65.0053 558.526C70.0193 565.985 71.4882 568.237 74.3086 568.78C75.5894 569.101 76.9352 569.011 78.1645 568.522C79.3938 568.033 80.4475 567.168 81.1833 566.045C82.1821 564.035 80.2823 560.536 79.636 559.45C77.129 555.188 74.8766 547.185 76.5414 530.778L189.121 433.18C183.382 452.965 177.996 474.66 173.452 498.085C170.26 514.733 167.733 530.818 165.814 546.019C163.958 548.789 162.37 551.739 161.074 554.826C158.584 560.99 157.184 567.56 156.941 574.229C156.099 587.097 158.136 590.515 158.273 603.806C158.274 610.964 157.783 618.113 156.804 625.2C155.159 639.415 151.281 715.881 146.169 770.793C144.759 785.953 142.252 808.995 138.178 837.145C138.413 839.819 138.296 843.539 135.965 845.791C134.163 847.52 132.048 847.319 127.092 847.6C120.772 847.718 114.503 848.788 108.486 850.777C104.353 852.346 101.885 853.271 100.514 855.784C97.9292 860.509 100.73 867.848 104.432 872.171C109.211 877.781 112.579 875.328 124.018 883.089C127.657 885.496 131.073 888.242 134.222 891.292C138.472 895.475 138.531 896.661 141.312 898.571C145.823 901.389 151.146 902.511 156.373 901.748C161.849 901.194 166.992 898.798 171.004 894.932C175.306 890.542 177.974 884.744 178.545 878.545C179.367 870.301 175.861 867.828 174.627 855.784C174.138 850.797 174.138 845.771 174.627 840.784C176.057 820.356 186.065 801.717 187.045 799.827C194.154 786.275 209.255 741.839 244.666 602.781C241.381 607.86 236.972 612.07 231.798 615.066C225.209 619.064 217.519 620.717 209.921 619.771C194.742 617.599 186.751 604.912 185.556 602.941" stroke="black" stroke-width="2" stroke-linecap="round" stroke-linejoin="round"/>
<path d="M269.07 337.673C283.211 338.759 322.422 339.08 358.676 316.018C374.759 305.782 388.663 292.316 399.551 276.428C401.958 279.796 404.987 282.644 408.466 284.809C411.945 286.975 415.806 288.415 419.828 289.048C423.849 289.681 427.953 289.495 431.904 288.499C435.856 287.503 439.577 285.717 442.856 283.244L443.424 282.801C461.658 269.893 466.555 240.276 456.723 224.492C454.994 221.635 452.674 219.205 449.926 217.374C437.705 209.532 421.409 218.158 419.176 219.385C421.84 209.331 438.664 141.551 391.756 80.648C360.948 40.6959 317.702 28.7726 299.507 23.7459C283.681 19.4028 249.406 10.395 207.297 21.9162C178.242 29.8041 151.841 45.6987 130.951 67.8802C95.5006 106.887 90.6629 152.188 89.2919 167.087C87.739 184.271 88.6696 201.596 92.0535 218.5C81.6926 212.307 69.5298 211.463 60.579 217.133C45.5175 226.643 48.1812 248.218 48.6121 251.716C49.4795 258.466 51.9238 264.9 55.7365 270.47C59.5493 276.04 64.6175 280.581 70.5091 283.706C74.4262 285.717 85.5902 291.508 96.3428 286.3C100.85 284.009 104.562 280.352 106.978 275.824C115.478 286.501 128.522 303.773 150.419 316.319C173.535 329.47 199.388 336.73 225.805 337.492L269.07 337.673Z" fill="#FAC497" stroke="black" stroke-width="2" stroke-linecap="round" stroke-linejoin="round"/>
<path d="M106.958 276.166C99.6973 261.777 95.2588 246.065 93.8945 229.921L106.958 276.166Z" fill="#FAC497"/>
<path d="M106.958 276.166C99.6973 261.777 95.2588 246.065 93.8945 229.921" stroke="black" stroke-width="2" stroke-linecap="round" stroke-linejoin="round"/>
<path d="M399.708 276.166C406.996 261.787 411.443 246.071 412.791 229.921L399.708 276.166Z" fill="#FAC497"/>
<path d="M399.708 276.166C406.996 261.787 411.443 246.071 412.791 229.921" stroke="black" stroke-width="2" stroke-linecap="round" stroke-linejoin="round"/>
<path d="M243.609 6.03194C230.271 3.35774 197.406 -1.26681 161.995 14.517C119.689 33.3369 100.985 68.9862 92.9741 84.2875C70.372 127.396 72.7811 167.57 74.4263 194.131C76.855 234.686 80.1062 289.075 113.441 307.593C142.135 323.518 169.672 299.832 209.412 320.321C222.863 327.438 234.558 337.608 243.609 350.059C257.319 330.756 272.322 322.553 280.822 318.933C295.1 312.901 307.792 312.399 332.529 311.836C364.003 311.132 366.941 314.952 376.342 313.042C411.499 305.864 436.334 238.506 436.353 183.213C436.353 123.978 407.856 42.2442 336.113 12.7275C298.018 -2.89546 262.039 2.01059 243.609 6.03194Z" fill="#683B13" stroke="black" stroke-width="2" stroke-linecap="round" stroke-linejoin="round"/>
<path d="M229.487 30.3409C209.661 30.1968 190.122 35.2046 172.688 44.8982C127.758 70.3735 109.407 123.757 109.681 165.941C110.167 194.133 118.469 221.599 133.615 245.121" fill="#683B13"/>
<path d="M229.487 30.3409C209.661 30.1968 190.122 35.2046 172.688 44.8982C127.758 70.3735 109.407 123.757 109.681 165.941C110.167 194.133 118.469 221.599 133.615 245.121" stroke="black" stroke-width="2" stroke-linecap="round" stroke-linejoin="round"/>
<path d="M217.971 71.2986C206.748 80.4271 185.674 100.071 175.411 132.262C153.24 201.892 202.968 262.836 206.454 266.978" fill="#683B13"/>
<path d="M217.971 71.2986C206.748 80.4271 185.674 100.071 175.411 132.262C153.24 201.892 202.968 262.836 206.454 266.978" stroke="black" stroke-width="2" stroke-linecap="round" stroke-linejoin="round"/>
<path d="M259.512 30.3409C279.338 30.1968 298.878 35.2046 316.311 44.8982C361.241 70.4539 379.593 123.757 379.26 165.941C378.774 194.133 370.472 221.599 355.326 245.121" fill="#683B13"/>
<path d="M259.512 30.3409C279.338 30.1968 298.878 35.2046 316.311 44.8982C361.241 70.4539 379.593 123.757 379.26 165.941C378.774 194.133 370.472 221.599 355.326 245.121" stroke="black" stroke-width="2" stroke-linecap="round" stroke-linejoin="round"/>
<path d="M271.029 71.2986C282.252 80.3265 303.326 100.071 313.589 132.262C335.76 201.892 286.032 262.836 282.545 266.978" fill="#683B13"/>
<path d="M271.029 71.2986C282.252 80.3265 303.326 100.071 313.589 132.262C335.76 201.892 286.032 262.836 282.545 266.978" stroke="black" stroke-width="2" stroke-linecap="round" stroke-linejoin="round"/>
</svg>
