<svg width="487" height="903" viewBox="0 0 487 903" fill="none" xmlns="http://www.w3.org/2000/svg">
<path d="M75.4798 269.109C49.3937 217.123 67.8317 146.258 102.93 102.461C116.915 85.1698 134.183 70.8188 153.738 60.2357C202.83 33.8707 251.302 39.8674 271.559 42.6797C288.984 45.0784 325.84 50.1653 358.726 74.6072C429.254 127.027 422.805 224.65 421.999 234.783C417.038 251.76 407.033 276.615 385.164 297.914C307.774 373.37 123.022 363.94 75.4798 269.109Z" fill="#572318"/>
<path d="M217.031 349.755C210.085 349.156 203.14 348.308 196.236 347.17C137.636 337.493 92.7395 309.432 73.082 270.185C60.6797 245.37 57.3931 214.911 63.7183 182.26C69.4629 152.565 82.2196 124.673 100.925 100.911C115.121 83.3183 132.691 68.7437 152.601 58.0443C203.45 30.7074 253.287 37.5933 272.076 40.1781C289.894 42.6389 326.997 47.7671 360.442 72.6226C431.466 125.415 425.637 223.948 424.727 235.011C424.748 235.168 424.748 235.328 424.727 235.486C417.203 261.169 404.594 282.778 387.231 299.589C349.528 336.252 283.176 355.359 217.031 349.755ZM77.7535 268.013C96.6669 305.772 140.157 332.799 197.084 342.208C268.19 353.953 343.058 335.425 383.366 296.136C400.598 279.047 413.05 257.735 419.477 234.328C420.407 222.417 425.533 127.4 357.197 76.6136C324.848 52.5645 288.654 47.6637 271.27 45.1617C252.956 42.6389 204.38 35.9391 155.02 62.4488C135.749 72.8388 118.743 86.9689 104.997 104.013C60.8037 159.224 57.8479 228.249 77.7535 268.013Z" fill="#1D1E1C"/>
<path d="M464.931 545.332C459.102 545.125 453.521 544.753 448.229 544.256C453.464 543.741 458.379 541.501 462.203 537.887C465.241 534.848 469.251 528.954 467.37 526.349C466.295 524.881 463.711 524.922 461.892 525.129C459.594 526.84 457.161 528.361 454.616 529.678C449.449 532.428 442.586 536.047 433.946 535.447C431.113 535.268 428.324 534.654 425.678 533.628L349.9 455.856C331.028 432.179 307.857 405.297 275.983 384.122C272.613 381.889 269.43 380.462 266.082 378.436V364.54C293.229 363.748 319.79 356.451 343.534 343.262C365.961 330.71 379.438 313.423 388.161 302.732C390.654 307.259 394.469 310.917 399.096 313.216C410.134 318.427 421.523 312.699 425.616 310.631C431.714 307.531 436.968 302.997 440.928 297.417C444.889 291.838 447.437 285.381 448.353 278.6C448.808 275.085 451.537 253.517 436.075 243.985C426.877 238.319 414.371 239.146 403.747 245.349C407.163 228.418 408.082 211.078 406.475 193.881C405.07 178.971 400.088 133.624 363.667 94.624C342.27 72.4465 315.225 56.5374 285.45 48.6145C257.603 41.0875 228.258 41.0875 200.412 48.6145C170.541 56.5242 143.405 72.4645 121.947 94.7068C85.5256 133.748 80.606 179.096 79.1591 193.963C77.5413 211.161 78.4606 228.502 81.8876 245.432C71.2423 239.228 58.7574 238.401 49.5591 244.067C34.0769 253.6 36.8054 275.085 37.1568 278.683C38.0836 285.461 40.6354 291.913 44.5947 297.491C48.5539 303.068 53.8031 307.605 59.8943 310.714C64.0283 312.782 75.3971 318.51 86.4351 313.299C91.0623 311 94.8773 307.342 97.3697 302.815C106.072 313.505 119.57 330.855 141.976 343.262C165.722 356.419 192.275 363.687 219.408 364.457V378.415C216.059 380.483 212.897 381.868 209.507 384.102C177.757 405.297 154.627 432.303 135.755 455.856L59.9356 533.628C57.289 534.654 54.5004 535.268 51.6674 535.447C43.0479 536.047 36.206 532.428 30.997 529.678C28.4876 528.385 26.0826 526.899 23.8037 525.232C21.9847 525.025 19.4009 524.984 18.3467 526.452C16.4657 529.058 20.4138 534.951 23.5143 537.991C27.3296 541.604 32.2383 543.845 37.4669 544.36C32.1752 544.856 26.6149 545.228 20.7652 545.435C13.6959 545.683 6.978 545.642 0.673527 545.435C0.408018 547.14 0.667566 548.885 1.41766 550.439C5.03498 557.491 20.3931 558.524 39.6786 553.479C29.6773 558.281 18.7329 560.796 7.63946 560.84C6.13407 560.838 4.6299 560.755 3.13331 560.592C2.70305 561.216 2.41204 561.924 2.28006 562.67C2.14809 563.416 2.17825 564.181 2.3685 564.914C4.21506 569.849 18.1538 570.304 44.1847 566.279C38.0224 569.369 32.1312 572.973 26.5736 577.052C21.8607 580.547 17.1892 584.062 17.9333 586.006C18.9048 588.55 28.4752 586.999 29.3847 586.854C35.8959 585.799 47.492 582.263 60.2043 568.099C60.2385 572.131 61.2229 576.098 63.0775 579.678C64.6898 582.718 67.625 588.281 73.5574 589.583H73.6814C74.6475 589.76 75.6424 589.691 76.5747 589.382C77.5069 589.073 78.3464 588.534 79.0156 587.815C79.6849 587.096 80.1625 586.22 80.4043 585.268C80.6461 584.316 80.6444 583.318 80.3993 582.367C80.0195 580.841 79.7842 579.284 79.6965 577.714C79.4071 572.544 79.5518 570.353 79.2831 565.576C79.1384 562.743 79.6758 558.483 76.6373 553.582L194.459 457.924C180.196 505.112 170.15 544.525 167.215 573.082C161.2 631.643 156.88 678.294 152.746 731.893C151.96 742.397 152.022 777.985 145.304 814.193C143.699 823.631 141.539 832.966 138.835 842.15C136.973 848.39 134.185 854.314 130.566 859.727C128.809 862.353 127.032 864.71 124.613 865.475C120.845 866.495 116.978 867.105 113.079 867.295C107.023 867.667 95.4267 870.128 87.5926 876.29C80.4426 882.668 75.7967 891.384 74.4876 900.877C91.582 900.877 162.482 903.255 166.926 900.877C174.202 896.989 172.527 882.266 173.251 878.565C174.326 872.858 175.07 863.015 175.979 859.747C179.225 847.919 207.543 777.034 242.683 640.039C277.822 776.992 306.141 847.919 309.386 859.747C310.275 863.015 311.019 872.858 312.115 878.565C312.817 882.308 311.164 896.989 318.44 900.877C322.863 903.255 393.763 900.877 410.857 900.877C409.601 891.408 405.022 882.694 397.938 876.29C390.104 870.087 378.487 867.667 372.431 867.295C368.532 867.103 364.665 866.493 360.897 865.475C358.342 864.263 356.257 862.243 354.964 859.727C351.342 854.317 348.554 848.391 346.696 842.15C343.927 832.972 341.711 823.636 340.061 814.193C333.343 777.985 333.405 742.397 332.62 731.893C328.61 678.294 324.227 631.643 318.15 573.082C315.215 544.525 305.169 505.112 290.927 457.924L408.749 553.582C405.71 558.483 406.248 562.743 406.082 565.576C405.834 570.353 405.958 572.544 405.669 577.714C405.591 579.285 405.356 580.843 404.966 582.367C404.777 583.115 404.737 583.893 404.849 584.656C404.961 585.42 405.222 586.154 405.617 586.817C406.013 587.479 406.535 588.057 407.154 588.518C407.773 588.978 408.476 589.312 409.224 589.501C410.041 589.687 410.888 589.687 411.705 589.501H411.829C417.761 588.198 420.696 582.636 422.288 579.596C424.149 576.017 425.14 572.05 425.182 568.016C437.894 582.181 449.47 585.717 455.981 586.771C456.911 586.916 466.481 588.467 467.453 585.923C468.197 583.98 463.505 580.464 458.792 576.97C453.245 572.874 447.353 569.269 441.181 566.196C467.225 570.249 481.164 569.794 482.997 564.831C483.193 564.099 483.226 563.332 483.094 562.586C482.962 561.839 482.667 561.13 482.232 560.51C480.827 560.51 479.4 560.654 477.912 560.654C466.825 560.607 455.888 558.092 445.894 553.293C465.158 558.338 480.537 557.304 484.134 550.253C484.89 548.701 485.156 546.956 484.899 545.249C478.739 545.538 472.021 545.58 464.931 545.332Z" fill="#FAC497"/>
<path d="M167.546 584.311C191.11 584.559 218.044 591.135 242.456 590.866C270.009 590.577 294.38 583.215 320.838 582.305C321.231 586.172 321.623 590.018 321.995 593.885C325.468 628.542 328.748 663.061 331.835 697.443C320.621 691.944 308.136 689.564 295.687 690.554C283.238 691.543 271.284 695.866 261.08 703.067C255.209 683.133 249.325 663.144 243.427 643.1L227.118 704.163C205.25 693.823 180.394 691.694 157.087 698.167C159.843 668.266 162.558 638.364 165.231 608.463C168.022 600.316 164.673 592.334 167.546 584.311Z" fill="#F9F5F2"/>
<path d="M242.91 642.541L228.648 625.026C226.352 622.785 223.332 621.435 220.131 621.222C217.843 621.179 215.58 621.698 213.538 622.731C207.709 625.936 207.336 635.883 206.716 647.917C206.117 660.325 205.269 672.732 204.773 685.139C204.091 702.033 203.74 710.47 203.492 712.434C202.39 722.418 202.176 732.479 202.851 742.501C202.868 745.646 204.062 748.671 206.2 750.979C208.031 752.426 210.046 753.622 212.194 754.536C223.232 717.645 231.769 679.369 242.91 642.541Z" fill="#EE779A"/>
<path d="M189.167 628.77C182.015 631.83 188.878 648.6 183.938 672.939C179.948 692.563 177.943 702.364 171.308 711.38C170.977 711.835 166.513 717.853 161.2 726.351C154.999 736.236 153.573 740.02 154.028 744.321C154.028 745.045 155.02 752.882 160.477 755.032C162.708 755.739 165.096 755.787 167.355 755.171C169.613 754.555 171.646 753.301 173.21 751.558C173.684 750.725 174.407 750.06 175.277 749.656C175.971 749.478 176.694 749.44 177.404 749.543C178.113 749.646 178.795 749.888 179.411 750.256C182.305 751.724 182.139 753.585 184.392 755.136C185.664 755.949 187.113 756.445 188.617 756.582C190.12 756.719 191.635 756.492 193.033 755.922C196.795 754.309 198.138 750.028 198.779 747.919C202.396 735.946 198.076 722.278 196.133 717.108C195.529 715.557 195.079 713.95 194.79 712.311C192.769 700.521 192.014 688.549 192.537 676.599C193.674 652.074 200.205 632.161 193.508 628.77C192.822 628.477 192.084 628.327 191.338 628.327C190.592 628.327 189.854 628.477 189.167 628.77Z" fill="#EE779A"/>
<path d="M165.355 591.507C163.039 631.644 159.567 673.456 153.8 713.138C156.942 712.579 157.5 712.29 162.068 709.209C173.85 701.082 176.537 686.069 179.245 668.121C181 658.194 181.604 648.098 181.043 638.033C180.403 627.487 174.45 610.945 165.355 591.507Z" fill="#EE779A"/>
<path d="M152.539 770.417C153.304 769.879 163.143 767.894 167.008 769.383C167.752 769.652 170.688 770.934 172.527 777.655C174.367 784.375 173.623 791.426 169.654 803.999C167.217 811.719 164.303 819.282 160.931 826.642C153.655 842.854 148.074 850.794 140.095 856.646C137.439 858.365 134.303 859.191 131.145 859.004C139.765 843.681 143.258 831.067 152.539 770.417Z" fill="#EE779A"/>
<path d="M208.514 768.928C207.075 767.04 205.123 765.605 202.892 764.793C197.394 762.952 192.185 766.22 190.345 767.378C186.025 770.107 182.077 774.905 177.674 790.124C175.18 799.425 173.493 808.924 172.631 818.515C168.496 853.669 161.799 860.865 165.644 865.952C167.953 869.027 171.074 871.398 174.656 872.796C182.573 837.808 199.729 798.561 208.514 768.928Z" fill="#EE779A"/>
<path d="M243.613 642.541L257.855 625.026C260.155 622.792 263.172 621.444 266.371 621.222C268.666 621.179 270.936 621.698 272.985 622.731C278.794 625.936 279.187 635.883 279.786 647.917C280.385 660.325 281.233 672.732 281.729 685.139C282.432 702.033 282.763 710.47 283.031 712.434C284.126 722.418 284.334 732.48 283.651 742.501C283.651 745.649 282.454 748.68 280.303 750.979C278.472 752.426 276.456 753.622 274.308 754.536C263.27 717.645 254.651 679.369 243.613 642.541Z" fill="#EE779A"/>
<path d="M297.335 628.769C304.487 631.83 297.625 648.6 302.565 672.938C306.554 692.562 308.539 702.364 315.194 711.38C315.525 711.835 319.969 717.852 325.302 726.351C331.503 736.235 332.909 740.019 332.475 744.32C332.475 745.044 331.483 752.881 326.026 755.032C323.794 755.739 321.406 755.787 319.148 755.171C316.89 754.554 314.857 753.3 313.293 751.558C312.813 750.728 312.092 750.065 311.226 749.655C310.516 749.465 309.774 749.419 309.046 749.522C308.318 749.625 307.618 749.875 306.988 750.255C304.094 751.723 304.26 753.584 302.007 755.135C300.739 755.949 299.293 756.445 297.793 756.582C296.293 756.718 294.781 756.492 293.387 755.921C289.625 754.308 288.261 750.028 287.62 747.918C284.024 735.946 288.323 722.277 290.287 717.108C290.884 715.556 291.327 713.949 291.61 712.31C293.64 700.522 294.395 688.549 293.863 676.598C292.726 652.074 286.194 632.16 292.912 628.769C293.611 628.472 294.364 628.319 295.124 628.319C295.883 628.319 296.636 628.472 297.335 628.769Z" fill="#EE779A"/>
<path d="M320.982 591.507C323.297 631.644 326.791 673.456 332.537 713.138C329.395 712.579 328.837 712.29 324.269 709.209C312.487 701.082 309.923 686.069 307.112 668.121C305.35 658.195 304.74 648.099 305.293 638.033C306.037 627.487 311.99 610.945 320.982 591.507Z" fill="#EE779A"/>
<path d="M333.86 770.417C333.116 769.879 323.277 767.894 319.391 769.383C318.647 769.652 315.691 770.934 313.851 777.655C312.011 784.375 312.776 791.426 316.745 803.999C319.184 811.716 322.091 819.278 325.447 826.642C332.723 842.854 338.304 850.794 346.283 856.646C348.941 858.362 352.075 859.188 355.233 859.004C346.676 843.681 343.12 831.067 333.86 770.417Z" fill="#EE779A"/>
<path d="M277.926 768.928C279.366 767.04 281.317 765.605 283.548 764.793C289.026 762.952 294.255 766.22 296.095 767.378C300.415 770.107 304.363 774.905 308.766 790.124C311.271 799.425 312.979 808.924 313.872 818.515C318.006 853.669 324.703 860.865 320.858 865.952C318.549 869.027 315.428 871.398 311.846 872.796C303.846 837.808 286.69 798.561 277.926 768.928Z" fill="#EE779A"/>
<path d="M465.717 545.332C459.888 545.125 454.307 544.753 449.015 544.256C454.25 543.741 459.165 541.501 462.988 537.887C466.027 534.848 470.016 528.954 468.156 526.349C467.081 524.881 464.497 524.922 462.678 525.129C460.38 526.84 457.947 528.361 455.402 529.678C450.235 532.428 443.372 536.047 434.732 535.447C431.899 535.268 429.11 534.654 426.464 533.628L350.686 455.856C331.793 432.179 308.642 405.297 276.789 384.122C273.42 381.889 270.237 380.462 266.888 378.436V364.54C294.028 363.744 320.582 356.448 344.319 343.262C366.747 330.71 380.224 313.423 388.947 302.732C391.437 307.254 395.244 310.91 399.861 313.216C410.919 318.427 422.309 312.699 426.402 310.631C432.48 307.518 437.714 302.978 441.656 297.4C445.598 291.822 448.13 285.371 449.036 278.6C449.49 275.085 452.219 253.517 436.757 243.985C427.538 238.319 415.054 239.146 404.429 245.349C407.859 228.434 408.792 211.108 407.199 193.922C405.773 179.013 400.812 133.665 364.39 94.6654C342.984 72.4705 315.924 56.5471 286.132 48.6145C258.285 41.0875 228.941 41.0875 201.094 48.6145C171.272 56.5415 144.187 72.4813 122.774 94.7068C86.3526 133.748 81.4331 179.096 79.9861 193.963C78.334 211.172 79.2395 228.53 82.6733 245.473C72.028 239.27 59.5431 238.443 50.3448 244.109C34.8626 253.641 37.5911 275.126 38.0459 278.724C38.9709 285.503 41.5221 291.956 45.4816 297.534C49.441 303.112 54.691 307.648 60.7833 310.755C64.9174 312.823 76.2861 318.551 87.3241 313.34C91.9277 311.022 95.7245 307.368 98.2174 302.856C106.92 313.547 120.417 330.834 142.824 343.386C166.545 356.53 193.068 363.798 220.173 364.581V378.415C216.824 380.483 213.641 381.868 210.272 384.102C178.46 405.297 155.288 432.303 136.416 455.897L60.5353 533.628C57.8887 534.654 55.1001 535.268 52.2671 535.447C43.6475 536.047 36.785 532.428 31.5967 529.678C29.0483 528.357 26.6085 526.835 24.3 525.129C22.481 524.922 19.8972 524.881 18.843 526.349C16.962 528.954 20.9101 534.848 24.0106 537.887C27.8259 541.501 32.7346 543.741 37.9632 544.256C32.6715 544.753 27.1112 545.125 21.2615 545.332C14.1922 545.58 7.47431 545.538 1.16984 545.332C0.889336 547.036 1.14956 548.786 1.91397 550.336C5.5313 557.387 20.8894 558.421 40.1542 553.376C30.1602 558.177 19.2226 560.692 8.13577 560.737C6.69421 560.762 5.2523 560.714 3.81565 560.592C3.39936 561.222 3.12304 561.934 3.00536 562.679C2.88768 563.425 2.93139 564.187 3.13353 564.914C4.98008 569.849 18.9188 570.304 44.9498 566.279C38.7874 569.369 32.8962 572.973 27.3386 577.052C22.6257 580.547 17.9542 584.062 18.6983 586.006C19.6699 588.55 29.2403 586.999 30.1498 586.854C36.6609 585.799 48.2364 582.263 60.9693 568.099C60.9941 572.132 61.9791 576.102 63.8425 579.678C65.4548 582.718 68.39 588.281 74.3224 589.583H74.4465C75.4125 589.76 76.4075 589.691 77.3397 589.382C78.2719 589.073 79.1114 588.534 79.7807 587.815C80.4499 587.096 80.9275 586.22 81.1693 585.268C81.4111 584.316 81.4094 583.318 81.1643 582.367C80.7845 580.841 80.5492 579.284 80.4615 577.714C80.1722 572.544 80.3169 570.353 80.0481 565.576C79.9034 562.743 80.4409 558.483 77.4023 553.582L195.224 457.924C180.961 505.112 170.915 544.525 167.98 573.082C161.965 631.643 157.645 678.294 153.511 731.893C152.725 742.397 152.787 777.985 146.069 814.193C144.451 823.632 142.276 832.967 139.558 842.15C137.696 848.39 134.909 854.314 131.29 859.727C129.533 862.353 127.755 864.71 125.337 865.475C121.569 866.495 117.702 867.105 113.803 867.295C107.746 867.667 96.1504 870.128 88.3163 876.29C81.1663 882.668 76.5204 891.384 75.2113 900.877C92.3057 900.877 163.205 903.255 167.649 900.877C174.925 896.989 173.251 882.266 173.975 878.565C175.049 872.858 175.794 863.015 176.703 859.747C179.948 847.919 208.267 777.034 243.406 640.039C278.546 776.992 306.844 847.919 310.11 859.747C310.999 863.015 311.743 872.858 312.838 878.565C313.541 882.308 311.888 896.989 319.163 900.877C323.587 903.255 394.486 900.877 411.581 900.877C410.281 891.386 405.642 882.669 398.497 876.29C390.662 870.087 379.046 867.667 372.989 867.295C369.09 867.103 365.224 866.493 361.455 865.475C358.899 864.258 356.809 862.239 355.502 859.727C351.883 854.314 349.096 848.39 347.234 842.15C344.61 832.97 342.539 823.641 341.033 814.214C334.315 778.006 334.377 742.418 333.591 731.913C329.581 678.315 325.199 631.664 319.122 573.103C316.228 544.546 306.1 505.133 291.837 457.924L409.659 553.582C406.62 558.483 407.157 562.743 406.992 565.576C406.744 570.353 406.868 572.544 406.579 577.714C406.501 579.285 406.266 580.843 405.876 582.367C405.687 583.115 405.647 583.893 405.759 584.656C405.871 585.42 406.132 586.154 406.527 586.817C406.922 587.479 407.445 588.057 408.063 588.518C408.682 588.978 409.386 589.312 410.134 589.501C410.95 589.687 411.798 589.687 412.614 589.501H412.738C418.671 588.198 421.606 582.636 423.198 579.596C425.059 576.017 426.05 572.05 426.092 568.016C438.804 582.181 450.379 585.717 456.89 586.771C457.821 586.916 467.391 588.467 468.363 585.923C469.107 583.98 464.415 580.464 459.702 576.97C454.155 572.874 448.262 569.269 442.09 566.196C468.135 570.249 482.074 569.794 483.907 564.831C484.103 564.099 484.136 563.332 484.003 562.586C483.871 561.839 483.577 561.13 483.142 560.51C481.736 560.51 480.31 560.654 478.822 560.654C467.735 560.607 456.798 558.092 446.803 553.293C466.068 558.338 481.447 557.304 485.044 550.253C485.799 548.701 486.066 546.956 485.808 545.249C479.545 545.538 472.786 545.58 465.717 545.332Z" stroke="black" stroke-width="2" stroke-linecap="round" stroke-linejoin="round"/>
<path d="M202.562 289.002C198.076 294.668 204.98 307.861 210.974 314.871C216.355 321.014 223.409 325.454 231.273 327.65C239.156 329.918 247.505 330.011 255.437 327.919C259.571 326.968 274.681 323.287 283.032 309.722C286.105 304.745 287.776 299.029 287.868 293.179C287.868 289.436 287.166 282.571 284.54 281.992C282.887 281.62 281.419 283.874 279.745 285.528C277.678 287.596 273.234 290.925 254.94 290.76C245.163 290.76 242.642 289.664 227.511 288.237C205.993 286.293 203.636 287.43 202.562 289.002Z" fill="#461C19"/>
<mask id="mask0_117_172" style="mask-type:luminance" maskUnits="userSpaceOnUse" x="201" y="281" width="87" height="49">
<path d="M202.562 289.002C198.076 294.668 204.98 307.861 210.974 314.871C216.355 321.014 223.409 325.454 231.273 327.65C239.156 329.918 247.505 330.011 255.437 327.919C259.571 326.968 274.681 323.287 283.032 309.722C286.105 304.745 287.776 299.029 287.868 293.179C287.868 289.436 287.166 282.571 284.54 281.992C282.887 281.62 281.419 283.874 279.745 285.528C277.678 287.596 273.234 290.925 254.94 290.76C245.163 290.76 242.642 289.664 227.511 288.237C205.993 286.293 203.636 287.43 202.562 289.002Z" fill="white"/>
</mask>
<g mask="url(#mask0_117_172)">
<path d="M261.513 326.14C262.361 322.563 257.875 318.055 254.713 316.049C253.385 315.051 251.858 314.349 250.235 313.993C248.612 313.636 246.932 313.632 245.308 313.981C243.438 314.573 241.78 315.693 240.533 317.207C238.945 316.357 237.115 316.073 235.345 316.401C229.867 317.662 226.084 326.492 228.358 330.524C232.575 337.989 259.715 333.853 261.513 326.14Z" fill="#BD1823"/>
<path d="M231.914 335.115C229.826 334.573 228.023 333.257 226.87 331.435C226.224 329.942 225.922 328.323 225.986 326.698C226.05 325.073 226.48 323.483 227.242 322.047C227.895 320.318 228.931 318.761 230.274 317.493C231.617 316.225 233.231 315.279 234.994 314.726C236.707 314.375 238.485 314.518 240.12 315.14C241.447 313.833 243.071 312.868 244.853 312.328C246.713 311.896 248.644 311.872 250.513 312.258C252.383 312.643 254.147 313.429 255.685 314.561C259.323 316.856 264.346 321.943 263.271 326.555C262.03 331.745 253.618 334.826 246.156 335.777C241.417 336.603 236.555 336.377 231.914 335.115ZM238.776 318.449C237.835 318.114 236.822 318.036 235.841 318.221C234.617 318.67 233.507 319.382 232.589 320.307C231.671 321.233 230.968 322.349 230.529 323.577C230.019 324.519 229.708 325.556 229.616 326.623C229.523 327.69 229.651 328.765 229.991 329.78C231.438 332.365 238.053 333.44 245.721 332.365C253.39 331.29 259.261 328.498 259.901 325.831C260.439 323.556 257.152 319.627 253.866 317.559C252.743 316.711 251.453 316.11 250.081 315.797C248.71 315.483 247.287 315.464 245.907 315.74C244.371 316.235 243.008 317.161 241.98 318.407L241.091 319.462L239.851 318.862L238.776 318.449Z" fill="#1D1E1C"/>
</g>
<path d="M228.544 329.593C220.918 327.154 214.115 322.653 208.887 316.587C202.541 309.163 194.624 294.647 200.412 287.368C202.603 284.597 206.013 283.522 227.593 285.548C233.443 286.107 237.432 286.603 240.657 286.996C245.339 287.677 250.064 288.03 254.796 288.05C273.151 288.216 276.644 284.742 277.802 283.584L278.794 282.529C280.323 280.834 282.246 278.724 284.995 279.345C289.915 280.441 290.431 289.353 290.411 293.137C290.341 299.484 288.556 305.694 285.243 311.107C281.109 317.724 272.841 326.471 256.015 330.503C247.631 332.69 238.812 332.576 230.487 330.172L228.544 329.593ZM204.628 290.656C201.693 294.357 206.695 305.793 212.897 313.154C217.933 318.92 224.553 323.077 231.934 325.106C239.35 327.256 247.211 327.341 254.672 325.354C266.743 322.459 275.466 316.731 280.634 308.336C283.528 303.778 285.121 298.515 285.243 293.117C285.363 290.304 284.935 287.495 283.982 284.845C283.61 285.197 283.155 285.693 282.804 286.086L281.626 287.327C278.732 290.201 273.089 293.53 254.858 293.323C249.926 293.279 245.003 292.913 240.12 292.227C236.936 291.835 232.968 291.338 227.201 290.801C209.755 289.167 205.311 289.808 204.649 290.635L204.628 290.656Z" fill="#1D1E1C"/>
<path d="M238.135 258.749C237.814 258.742 237.5 258.65 237.226 258.48C235.69 257.515 234.365 256.25 233.328 254.762C232.291 253.273 231.564 251.591 231.19 249.816C230.878 248.444 230.849 247.024 231.105 245.64C231.361 244.257 231.896 242.941 232.678 241.772C234.01 240.086 235.785 238.806 237.805 238.076C239.825 237.345 242.008 237.193 244.109 237.636C244.329 237.672 244.54 237.75 244.73 237.866C244.919 237.983 245.084 238.136 245.215 238.317C245.345 238.497 245.439 238.702 245.49 238.919C245.542 239.135 245.55 239.36 245.515 239.58C245.524 239.621 245.524 239.663 245.515 239.704C245.478 239.936 245.394 240.157 245.269 240.355C245.143 240.552 244.979 240.722 244.785 240.854C244.591 240.986 244.373 241.077 244.143 241.121C243.913 241.165 243.676 241.161 243.448 241.11C241.985 240.789 240.462 240.871 239.042 241.348C237.622 241.826 236.359 242.68 235.386 243.819C234.872 244.616 234.523 245.508 234.36 246.442C234.197 247.376 234.222 248.334 234.435 249.258C234.72 250.581 235.267 251.835 236.045 252.943C236.822 254.051 237.814 254.992 238.962 255.709C239.336 255.965 239.595 256.357 239.683 256.802C239.772 257.246 239.684 257.707 239.438 258.087C239.289 258.32 239.085 258.513 238.843 258.646C238.601 258.78 238.329 258.851 238.053 258.852L238.135 258.749Z" fill="#1D1E1C"/>
<path d="M174.305 243.861C181.622 243.861 187.555 233.521 187.555 220.597C187.555 207.673 181.622 197.375 174.305 197.375C166.988 197.375 161.055 207.715 161.055 220.639C161.055 233.563 166.988 244.005 174.305 244.005V243.861Z" fill="#000100"/>
<path d="M298.947 243.861C306.265 243.861 312.197 233.521 312.197 220.597C312.197 207.673 306.265 197.375 298.947 197.375C291.63 197.375 285.698 207.715 285.698 220.639C285.698 233.563 291.651 244.005 298.947 244.005V243.861Z" fill="#000100"/>
<path d="M174.946 148.409C167.05 145.72 158.988 151.614 155.454 154.178C146.794 161.248 141.293 171.466 140.158 182.59C139.972 184.472 139.496 189.559 141.418 190.386C143.341 191.213 145.553 188.318 147.496 186.478C154.524 179.447 163.122 174.071 170.729 167.867C179.865 160.175 182.491 158.21 182.119 155.212C181.705 151.676 177.612 149.298 174.946 148.409Z" fill="#572318"/>
<path d="M141.997 193.343C141.405 193.343 140.82 193.216 140.282 192.971C136.478 191.337 137.057 185.465 137.346 182.322C137.953 176.409 139.727 170.675 142.565 165.453C145.404 160.232 149.251 155.626 153.883 151.904C157.727 149.112 166.678 142.598 175.959 145.7C179.803 147.003 184.475 150.167 185.033 154.757C185.591 159.348 182.739 161.436 174.346 168.467L172.652 169.894C169.634 172.437 166.45 174.815 163.35 177.131C158.501 180.581 153.901 184.367 149.583 188.463L149.273 188.773C147.124 190.862 144.684 193.343 141.997 193.343ZM170.771 150.559C165.231 150.559 159.712 154.571 157.107 156.453C149.133 163.092 144.061 172.58 142.969 182.901C142.807 184.273 142.759 185.656 142.824 187.036C143.647 186.347 144.427 185.608 145.16 184.824L145.491 184.493C150.024 180.195 154.859 176.229 159.96 172.623C162.978 170.369 166.161 168.033 169.014 165.593L170.708 164.166C176.6 159.224 179.555 156.722 179.411 155.46C179.204 153.703 176.538 151.883 174.119 151.076C173.039 150.719 171.908 150.544 170.771 150.559Z" fill="#1D1E1C"/>
<path d="M250.104 30.7489C220.868 28.5225 191.516 33.1239 164.363 44.1899C117.854 63.1934 91.2102 95.5966 79.7795 109.823C64.3375 129.126 51.9174 150.663 42.9448 173.699L48.0091 177.297C53.3309 163.207 59.9969 149.662 67.9147 136.85C70.4158 132.818 72.5862 129.654 73.6197 128.206C80.985 117.536 89.286 107.543 98.4242 98.3468C92.2231 107.942 83.7482 121.693 74.2192 138.546C50.9029 179.903 51.1923 187.554 52.5566 192.31C58.9644 214.725 101.752 217.641 106.651 217.91C111.241 187.282 120.586 157.56 134.349 129.819C153.47 91.9158 167.071 86.6842 174.698 85.7123C179.937 85.0757 185.252 85.7875 190.139 87.7801C210.086 96.858 218.127 134.596 212.442 180.833L217.63 180.337L218.685 136.912C218.872 149.761 222.437 162.334 229.02 173.368C238.818 189.456 252.46 196.321 261.596 200.788C299.134 219.088 339.255 208.687 353.414 204.303L348.33 133.996L360.959 200.168L364.949 199.816C361.765 177.842 358.575 155.86 355.378 133.872C362.243 147.724 366.723 162.636 368.628 177.98C369.823 187.716 369.996 197.55 369.145 207.322C377.931 209.178 386.97 209.52 395.871 208.336C408.751 206.562 421.042 201.819 431.776 194.481C432.459 186.679 432.334 178.828 431.404 171.052C426.36 129.137 398.807 102.276 386.839 91.9778C398.481 99.4018 409.708 107.458 420.469 116.11C423.446 118.508 426.34 120.886 429.151 123.285L431.859 118.963C424.763 110.1 417.047 101.753 408.77 93.9837C386.722 73.0339 360.818 56.5656 332.496 45.4927C312.902 37.9652 292.36 33.1913 271.456 31.3073C282.99 25.2259 296.152 22.953 309.056 24.8142C317.477 25.8516 325.642 28.4014 333.157 32.3412C334.108 32.3412 335.224 32.1551 335.39 31.5968C335.969 29.5289 323.67 23.801 316.786 21.4643C309.324 18.9002 294.979 15.8398 273.73 22.705C283.834 15.1969 295.297 9.71941 307.485 6.57583L305.707 2.771C294.482 5.11349 283.65 9.05498 273.544 14.475C265.137 18.989 257.272 24.449 250.104 30.7489Z" fill="#683B13"/>
<path d="M86.3523 217.785C71.6969 214.518 54.2511 207.632 50.0757 193.116C48.3394 186.912 48.7735 178.641 72.0277 137.284C74.2394 133.334 76.5132 129.385 78.8076 125.456C77.7741 126.862 76.7405 128.289 75.7897 129.716C74.4668 131.618 72.4204 134.658 70.1673 138.276C62.3459 150.94 55.7563 164.325 50.4891 178.248C50.3512 178.627 50.1286 178.969 49.8385 179.248C49.5483 179.528 49.1982 179.737 48.8148 179.861C48.4391 180.004 48.0329 180.049 47.6349 179.991C47.2369 179.934 46.8603 179.775 46.5411 179.53L41.4768 175.953C40.9837 175.592 40.626 175.075 40.4611 174.487C40.2962 173.898 40.3336 173.271 40.5673 172.706C49.6245 149.411 62.1702 127.629 77.7741 108.107C88.1093 95.3066 115.353 61.2906 163.35 41.6667C190.535 30.5211 219.932 25.8285 249.235 27.9569C256.322 21.8089 264.065 16.4622 272.324 12.0138C282.633 6.47168 293.679 2.42635 305.128 -0.000346806C305.683 -0.107252 306.257 -0.02473 306.759 0.23399C307.262 0.49271 307.663 0.912643 307.898 1.42647L309.696 5.21062C309.87 5.58294 309.96 5.98879 309.96 6.39963C309.96 6.81048 309.87 7.21633 309.696 7.58865C309.545 7.96167 309.312 8.29627 309.016 8.56812C308.719 8.83997 308.365 9.04224 307.98 9.16021C301.549 10.8147 295.313 13.1508 289.377 16.1288L288.902 16.3563C298.533 14.9314 308.364 15.774 317.613 18.817C322.76 20.5747 339.441 26.7783 337.787 32.2994C337.043 34.8222 334.129 34.9462 333.157 34.9876C332.726 35.0303 332.292 34.9363 331.917 34.7188C324.658 30.9259 316.772 28.4808 308.642 27.502C300.824 26.4089 292.868 26.8585 285.222 28.8254C284.175 29.1149 283.121 29.4251 282.06 29.7559C299.646 32.1376 316.897 36.5509 333.467 42.9074C362.074 54.116 388.242 70.7581 410.526 91.9154C418.896 99.8526 426.701 108.365 433.884 117.391C434.239 117.848 434.444 118.403 434.47 118.981C434.496 119.559 434.342 120.131 434.029 120.617L431.321 124.96C431.124 125.279 430.863 125.552 430.553 125.763C430.243 125.973 429.891 126.115 429.522 126.18C429.158 126.25 428.783 126.236 428.424 126.139C428.066 126.043 427.735 125.865 427.455 125.621C424.624 123.202 421.73 120.803 418.857 118.487C415.115 115.489 411.291 112.552 407.426 109.678C421.835 127.151 431.065 148.311 434.07 170.762C435.02 178.738 435.145 186.79 434.442 194.791C434.408 195.205 434.281 195.607 434.07 195.965C433.859 196.323 433.569 196.629 433.223 196.859C422.171 204.424 409.51 209.309 396.243 211.127C387.059 212.346 377.736 211.996 368.669 210.093C368.041 209.942 367.487 209.571 367.108 209.048C366.729 208.525 366.549 207.883 366.602 207.239C366.767 205.378 366.891 203.496 366.974 201.615C366.759 201.902 366.486 202.141 366.173 202.316C365.859 202.491 365.512 202.597 365.155 202.628L361.165 202.979C360.541 203.03 359.919 202.847 359.423 202.465C358.926 202.082 358.589 201.529 358.478 200.912L354.179 178.496L356.039 204.158C356.09 204.781 355.93 205.403 355.585 205.924C355.24 206.445 354.73 206.835 354.137 207.032C334.459 213.112 296.116 220.721 260.501 203.372C251.819 199.237 237.267 192.02 226.849 174.981C224.403 170.941 222.367 166.667 220.772 162.222L220.338 180.44C220.328 181.107 220.078 181.748 219.634 182.246C219.19 182.744 218.581 183.064 217.919 183.149L212.731 183.645C212.348 183.676 211.963 183.619 211.605 183.479C211.247 183.34 210.925 183.12 210.664 182.839C210.397 182.545 210.197 182.197 210.079 181.818C209.962 181.44 209.928 181.04 209.982 180.647C215.604 134.844 207.233 98.5738 189.167 90.3645C184.691 88.4856 179.812 87.7741 174.987 88.2967C170.564 88.917 156.9 90.8194 136.705 130.998C123.082 158.487 113.808 187.925 109.214 218.261C109.127 218.918 108.801 219.521 108.297 219.952C107.793 220.383 107.148 220.613 106.485 220.597C99.7109 220.19 92.9792 219.249 86.3523 217.785ZM99.0232 95.6375C99.4274 95.7342 99.8029 95.9256 100.119 96.1958C100.605 96.642 100.918 97.2463 101.001 97.9012C101.084 98.5561 100.933 99.2194 100.574 99.7732C92.3053 112.801 84.1612 126.324 76.4718 139.972C52.4941 182.528 54.1684 188.318 55.0573 191.441C60.3489 210.051 94.4551 214.187 104.501 214.994C109.299 184.945 118.616 155.795 132.137 128.537C151.381 90.2404 165.499 84.161 174.429 82.9202C180.144 82.2635 185.931 83.0896 191.234 85.319C204.918 91.5225 213.641 110.443 216.038 137.015C216.075 136.322 216.372 135.668 216.87 135.184C217.369 134.701 218.032 134.424 218.726 134.41C219.062 134.407 219.396 134.471 219.708 134.597C220.02 134.723 220.304 134.91 220.544 135.146C220.784 135.382 220.975 135.663 221.106 135.973C221.238 136.283 221.307 136.616 221.309 136.953C221.45 149.337 224.859 161.464 231.19 172.106C240.843 187.843 254.527 194.522 262.712 198.513C295.599 214.539 331.152 208.252 350.644 202.524L345.704 134.41C345.646 133.728 345.841 133.049 346.253 132.503C346.666 131.957 347.265 131.583 347.936 131.453C348.596 131.344 349.272 131.501 349.818 131.888C350.364 132.275 350.735 132.862 350.851 133.52L358.375 172.954L352.794 134.513C352.695 133.882 352.815 133.235 353.135 132.682C353.455 132.129 353.954 131.702 354.551 131.473C355.132 131.268 355.769 131.283 356.341 131.515C356.912 131.748 357.378 132.181 357.651 132.735C368.783 155.233 373.7 180.299 371.893 205.337C379.714 206.746 387.706 206.927 395.582 205.874C407.619 204.222 419.132 199.891 429.274 193.198C429.826 186.032 429.674 178.829 428.82 171.693C424.169 133.065 399.468 106.638 385.164 94.3348C384.655 93.8841 384.33 93.2622 384.25 92.5874C384.17 91.9126 384.341 91.2319 384.73 90.6747C385.09 90.115 385.656 89.7191 386.306 89.5722C386.955 89.4253 387.636 89.539 388.202 89.8889C399.905 97.3807 411.2 105.491 422.04 114.186C424.21 115.923 426.381 117.722 428.551 119.542C421.855 111.269 414.626 103.442 406.909 96.1131C385.14 75.3413 359.545 58.9988 331.545 47.9943C312.166 40.5741 291.854 35.87 271.187 34.0157C270.617 33.9602 270.082 33.7136 269.669 33.3157C269.256 32.9178 268.99 32.3921 268.913 31.8238C268.816 31.2467 268.901 30.6537 269.157 30.1274C269.413 29.6011 269.826 29.1676 270.34 28.8875C274.697 26.6148 279.294 24.8325 284.044 23.5731C291.526 21.6208 299.299 21.0393 306.988 21.8568C296.031 20.4726 284.901 21.6475 274.474 25.2894C273.883 25.4892 273.239 25.4574 272.671 25.2002C272.103 24.943 271.654 24.4797 271.414 23.9039C271.146 23.322 271.085 22.6651 271.243 22.0438C271.401 21.4225 271.768 20.8745 272.283 20.492C277.009 17.0004 282.022 13.9152 287.269 11.2694L288.922 10.463C275.328 15.6223 262.784 23.2106 251.902 32.8577C251.383 33.3097 250.707 33.5399 250.021 33.4987C221.122 31.2258 192.093 35.773 165.272 46.7743C118.474 65.8812 91.8093 99.0908 81.6808 111.663C66.9401 130.112 54.9954 150.631 46.231 172.561L46.9131 173.058C52.0884 159.946 58.425 147.323 65.8472 135.34C68.1623 131.618 70.2707 128.496 71.6143 126.552C79.0553 115.753 87.439 105.636 96.6668 96.3199C96.9733 96.0213 97.3487 95.8028 97.7597 95.6838C98.1707 95.5648 98.6046 95.5489 99.0232 95.6375ZM361.165 155.44L367.118 196.445C367.261 182.551 365.253 168.719 361.165 155.44Z" fill="#1D1E1C"/>
<path d="M412.552 206.784C412.008 206.679 411.513 206.401 411.14 205.99C410.768 205.58 410.538 205.061 410.485 204.509C407.426 177.317 399.902 159.016 393.949 144.19C385.784 124.235 374.602 96.9396 347.916 75.3099C332.641 62.9666 314.734 54.2999 295.579 49.9788C294.913 49.7833 294.347 49.3416 293.996 48.7435C293.644 48.1454 293.533 47.4358 293.686 46.759C293.839 46.0822 294.243 45.489 294.818 45.0999C295.392 44.7109 296.093 44.5552 296.777 44.6645C316.712 49.1668 335.343 58.2026 351.223 71.0708C378.942 93.5277 390.497 121.547 398.765 142.019C404.966 157.114 412.635 175.869 415.777 203.827C415.867 204.534 415.681 205.249 415.258 205.823C414.834 206.397 414.206 206.786 413.503 206.908C413.181 206.941 412.855 206.899 412.552 206.784Z" fill="#1D1E1C"/>
<path d="M352.856 202.111C352.283 201.99 351.767 201.679 351.392 201.229C351.017 200.779 350.805 200.215 350.789 199.629C349.88 174.939 344.133 138.338 321.851 104.033C312.528 89.558 296.943 65.5089 267.198 54.1565C259.598 51.2409 251.647 49.3359 243.551 48.4906C243.208 48.4498 242.876 48.3411 242.576 48.1708C242.275 48.0006 242.011 47.7721 241.799 47.4989C241.588 47.2256 241.433 46.9129 241.343 46.579C241.253 46.2452 241.231 45.8968 241.277 45.5542C241.341 44.8517 241.677 44.2023 242.215 43.7458C242.752 43.2893 243.447 43.0625 244.151 43.1142C252.731 43.957 261.161 45.9317 269.224 48.9868C300.477 60.939 316.642 85.9392 326.315 100.869C349.177 136.209 355.089 173.885 356.04 199.257C356.074 199.967 355.833 200.662 355.367 201.198C354.901 201.734 354.246 202.068 353.538 202.131C353.312 202.166 353.081 202.159 352.856 202.111Z" fill="#1D1E1C"/>
<path d="M300.911 201.966C300.527 201.883 300.167 201.711 299.862 201.463C299.557 201.215 299.314 200.898 299.154 200.539C292.282 185.93 286.674 170.758 282.39 155.191C279.965 146.393 278.033 137.467 276.603 128.454C275.358 119.485 273.069 110.692 269.781 102.254C264.076 87.4072 255.477 65.0331 235.448 57.0099C229.675 54.7603 223.485 53.7801 217.299 54.1356C216.623 54.1637 215.963 53.9228 215.463 53.4657C214.963 53.0085 214.665 52.3721 214.633 51.6955C214.615 50.9878 214.868 50.2999 215.341 49.7731C215.813 49.2463 216.47 48.9205 217.175 48.8626C224.065 48.4716 230.959 49.5646 237.391 52.0678C259.467 60.8561 268.583 84.5743 274.598 100.269C278.001 109.088 280.387 118.267 281.708 127.627C283.098 136.414 284.968 145.119 287.31 153.702C291.539 168.982 297.072 183.87 303.846 198.202C304.149 198.851 304.194 199.59 303.971 200.27C303.749 200.95 303.275 201.52 302.647 201.862C302.101 202.111 301.483 202.148 300.911 201.966Z" fill="#1D1E1C"/>
<path d="M79.1385 208.997H79.0145C78.3444 208.786 77.7822 208.324 77.4466 207.706C77.1111 207.089 77.0285 206.365 77.2162 205.688C83.0246 183.862 91.276 162.76 101.814 142.784C117.213 113.731 136.416 77.4406 175.008 61.1666C185.523 56.7534 196.701 54.1256 208.081 53.3915C208.768 53.3519 209.444 53.5864 209.959 54.0437C210.474 54.501 210.787 55.1439 210.83 55.8316C210.87 56.5413 210.635 57.2392 210.172 57.7789C209.71 58.3186 209.057 58.6582 208.349 58.7266C197.478 59.4191 186.801 61.9356 176.765 66.1708C139.951 81.7624 121.286 116.998 106.279 145.328C95.9484 164.916 87.8632 185.608 82.1771 207.012C82.0283 207.673 81.6277 208.25 81.0603 208.621C80.493 208.992 79.8036 209.126 79.1385 208.997Z" fill="#1D1E1C"/>
<path d="M259.55 196.156C259.187 196.08 258.847 195.924 258.553 195.698C258.26 195.473 258.021 195.184 257.855 194.853C251.952 183.507 247.275 171.563 243.902 159.224C242.476 154.055 240.512 143.757 236.606 123.244L235.965 119.935C232.513 101.738 230.942 93.4462 225.836 82.714C223.54 77.9094 220.851 73.3031 217.796 68.9422C217.393 68.3507 217.231 67.6279 217.342 66.921C217.453 66.2141 217.83 65.5762 218.395 65.1374C218.653 64.9336 218.948 64.7827 219.264 64.6932C219.581 64.6037 219.911 64.5774 220.238 64.6158C220.564 64.6542 220.88 64.7565 221.166 64.917C221.453 65.0775 221.705 65.2929 221.909 65.5509V65.675C225.109 70.2702 227.943 75.1101 230.384 80.1499C235.799 91.4817 237.515 100.56 240.946 118.674L241.587 122.044C245.473 142.413 247.416 152.628 248.78 157.591C252.084 169.553 256.65 181.129 262.402 192.124C262.726 192.763 262.797 193.501 262.602 194.191C262.407 194.88 261.959 195.471 261.348 195.846C260.813 196.182 260.167 196.294 259.55 196.156Z" fill="#1D1E1C"/>
</svg>
