<svg width="489" height="904" viewBox="0 0 489 904" fill="none" xmlns="http://www.w3.org/2000/svg">
<path d="M74.7763 269.174C48.738 217.203 67.1703 146.316 102.336 102.52C116.322 85.2208 133.607 70.871 153.188 60.3032C202.341 33.9229 250.861 39.9256 271.151 42.7295C288.595 45.1385 325.48 50.2132 358.413 74.6782C428.981 127.083 422.561 224.746 421.632 234.856C416.673 251.817 406.637 276.697 384.767 298.042C307.363 373.471 122.349 364.072 74.7763 269.174Z" fill="#572318"/>
<path d="M216.526 349.835C209.571 349.243 202.696 348.394 195.703 347.248C137.047 337.573 92.1221 309.514 72.4452 270.24C59.9792 245.38 56.6404 214.952 63.0611 182.292C68.7901 152.599 81.5531 124.71 100.281 100.96C114.463 83.3657 132.021 68.7839 151.923 58.0717C202.835 30.7436 252.679 37.6349 271.506 40.3006C289.287 42.749 326.487 47.8829 359.974 72.7428C431.095 125.523 425.168 224.074 424.319 235.132V235.626C416.792 261.295 404.168 283.015 386.783 299.839C349.167 336.329 282.649 355.423 216.526 349.835ZM77.1866 268.088C96.1128 305.841 139.655 332.893 196.631 342.292C267.753 354.14 342.826 335.519 383.108 296.225C399.802 279.955 411.952 259.162 419.242 234.401C420.17 222.554 425.326 127.458 356.912 76.6722C324.433 52.6022 288.22 47.6262 270.795 45.2173C252.481 42.6898 203.842 35.9762 154.452 62.4948C135.157 72.8799 118.135 87.019 104.391 104.079C60.1372 159.229 57.1738 228.32 77.0483 268.088H77.1866Z" fill="#1D1E1C"/>
<path d="M466.774 545.417C460.848 545.219 455.355 544.844 450.061 544.37C455.296 543.833 460.21 541.592 464.048 537.992C467.09 534.952 471.101 529.048 469.204 526.441C468.157 524.98 465.569 525.02 463.732 525.237C461.423 526.937 458.986 528.455 456.442 529.778C451.286 532.523 444.41 536.136 435.797 535.564C432.983 535.352 430.215 534.733 427.578 533.727L351.656 455.988C332.769 432.293 309.576 405.36 277.71 384.252C274.331 382.001 271.151 380.599 267.832 378.546V364.724C294.978 363.96 321.547 356.709 345.315 343.576C367.738 331.017 381.251 313.72 389.963 303.038C392.459 307.56 396.278 311.211 400.908 313.503C411.971 318.736 423.37 312.99 427.48 310.936C433.553 307.804 438.782 303.257 442.727 297.679C446.671 292.101 449.213 285.656 450.14 278.889C450.574 275.394 453.32 253.812 437.832 244.274C428.625 238.607 416.1 239.437 405.471 245.637C408.894 228.703 409.813 211.36 408.198 194.16C406.795 179.252 401.817 133.896 365.367 94.8583C343.924 72.6626 316.815 56.7525 286.975 48.8507C259.101 41.3076 229.721 41.3076 201.847 48.8507C172.027 56.7321 144.932 72.6146 123.494 94.7793C87.0446 133.817 82.0069 179.173 80.6634 194.081C79.029 211.28 79.9477 228.627 83.3898 245.558C72.7413 239.358 60.2358 238.528 51.0295 244.195C35.5408 253.733 38.2869 275.315 38.7215 278.81C39.6582 285.564 42.2058 291.993 46.1495 297.557C50.0932 303.121 55.3173 307.655 61.3816 310.778C65.4909 312.753 76.8901 318.676 87.9534 313.345C92.5785 311.053 96.3909 307.401 98.8784 302.88C107.611 313.562 121.104 330.86 143.547 343.418C167.322 356.571 193.906 363.836 221.069 364.605V378.427C217.73 380.402 214.55 381.883 211.191 384.134C179.364 405.36 156.21 432.432 137.264 455.988L61.3816 533.727C58.7516 534.731 55.9901 535.35 53.1829 535.564C44.5495 536.136 37.6942 532.523 32.5181 529.778C29.9853 528.436 27.5494 526.918 25.2282 525.237C23.4106 525.02 20.8226 524.98 19.7755 526.441C17.7999 529.048 21.8697 534.952 24.9318 537.992C28.7666 541.585 33.6719 543.825 38.8993 544.37C33.6245 544.844 28.0335 545.219 22.2055 545.417C15.1131 545.674 8.37632 545.634 2.07417 545.417C1.81615 547.126 2.07769 548.873 2.82489 550.432C6.44024 557.482 21.8301 558.528 41.112 553.473C31.0739 558.265 20.0934 560.761 8.969 560.779C7.52791 560.859 6.08353 560.859 4.64244 560.779C4.22729 561.391 3.95039 562.086 3.83098 562.816C3.71158 563.545 3.75253 564.292 3.95098 565.005C5.79488 569.941 19.7426 570.402 45.7941 566.387C39.6123 569.452 33.715 573.06 28.1718 577.168C23.4501 580.643 18.768 584.178 19.5187 586.113C20.4867 588.64 30.0684 587.1 30.9969 586.962C37.4966 585.896 49.0934 582.361 61.836 568.203C61.8754 572.233 62.8635 576.197 64.7204 579.774C66.3206 582.815 69.2445 588.384 75.191 589.647C75.959 589.774 76.7445 589.749 77.5026 589.573C78.2608 589.397 78.9768 589.073 79.6097 588.62C80.2426 588.167 80.7801 587.594 81.1914 586.933C81.6027 586.273 81.8798 585.538 82.0068 584.77C82.1551 584.001 82.1551 583.21 82.0068 582.44C81.64 580.91 81.4086 579.351 81.3154 577.78C81.0191 572.607 81.1573 570.415 80.9005 565.636C80.7425 562.793 81.2759 558.548 78.2335 553.631L196.157 457.983C181.755 505.175 171.877 544.588 168.834 573.16C162.908 631.726 158.403 678.365 154.393 731.975C153.622 742.46 153.682 778.061 146.965 814.275C145.362 823.717 143.192 833.054 140.465 842.235C138.597 848.479 135.807 854.408 132.187 859.828C130.429 862.435 128.651 864.804 126.26 865.574C122.478 866.565 118.607 867.173 114.703 867.391C108.638 867.747 96.9226 870.215 89.1783 876.375C82.0182 882.754 77.3731 891.479 76.0801 900.979C93.1887 900.979 164.152 903.348 168.597 900.979C175.887 897.029 174.208 882.398 174.919 878.646C176.026 872.959 176.757 863.087 177.665 859.828C180.905 847.981 209.275 777.074 244.421 640.117C279.586 777.074 307.936 848.021 311.196 859.828C312.085 863.087 312.836 872.959 313.922 878.646C314.653 882.398 312.974 897.089 320.264 900.979C324.689 903.348 395.673 900.979 412.781 900.979C411.48 891.482 406.836 882.76 399.683 876.375C391.781 870.215 380.223 867.747 374.158 867.391C370.255 867.173 366.383 866.565 362.601 865.574C360.191 864.804 358.413 862.435 356.674 859.828C353.056 854.405 350.26 848.476 348.377 842.235C345.672 833.071 343.515 823.754 341.917 814.334C335.199 778.121 335.259 742.519 334.469 732.034C330.517 678.424 326.072 631.785 320.047 573.219C317.103 544.647 307.047 505.234 292.783 458.042L410.707 553.69C407.664 558.607 408.198 562.852 408.04 565.696C407.783 570.474 407.921 572.666 407.625 577.839C407.545 579.409 407.326 580.968 406.973 582.499C406.794 583.257 406.766 584.042 406.89 584.81C407.015 585.578 407.289 586.314 407.698 586.976C408.107 587.638 408.643 588.212 409.275 588.668C409.906 589.123 410.621 589.449 411.379 589.628C412.142 589.776 412.927 589.776 413.69 589.628H413.828C419.755 588.324 422.699 582.756 424.299 579.755C426.156 576.177 427.144 572.214 427.183 568.184C439.926 582.341 451.503 585.955 458.022 586.942C458.951 587.08 468.533 588.621 469.501 586.093C470.251 584.119 465.549 580.624 460.828 577.148C455.284 573.04 449.387 569.432 443.205 566.367C469.283 570.395 483.238 569.935 485.068 564.985C485.263 564.253 485.296 563.487 485.167 562.741C485.037 561.994 484.747 561.285 484.318 560.661C482.895 560.661 481.453 560.819 479.971 560.819C468.876 560.765 457.931 558.249 447.927 553.453C467.209 558.508 482.599 557.403 486.214 550.413C486.961 548.854 487.223 547.106 486.965 545.397C480.584 545.634 473.867 545.674 466.774 545.417Z" fill="#FAC497"/>
<path d="M167.511 584.474C191.08 584.731 218.046 591.287 242.485 591.03C270.143 590.734 294.443 583.369 320.936 582.46C321.331 586.41 321.726 590.181 322.101 594.051C325.605 628.685 328.897 663.207 331.979 697.618C320.766 692.095 308.27 689.694 295.807 690.667C283.344 691.64 271.374 695.951 261.154 703.146L243.492 643.238L227.193 704.252C205.287 693.86 180.369 691.701 157 698.171C159.7 668.275 162.414 638.374 165.14 608.466C168.064 600.429 164.626 592.373 167.511 584.474Z" fill="#F9F5F2"/>
<path d="M191.771 473.068C200.533 474.064 209.196 475.787 217.671 478.222C222.215 479.426 226.384 480.71 228.814 484.56C232.192 489.931 229.801 496.605 229.525 497.356C228.116 500.75 225.739 503.655 222.689 505.708C220.555 507.173 218.262 508.392 215.854 509.341C210.796 512.086 208.505 518.227 205.976 531.358C203.566 543.995 204.336 545.358 202.341 557.481C199.575 574.147 196.414 581.551 194.122 586.172C191.258 591.879 189.084 596.045 184.244 599.086C176.342 604.062 167.313 602.285 164.192 601.514C167.926 558.804 178.732 516.272 191.771 473.068Z" fill="#EE779A"/>
<path d="M232.627 509.44C226.917 508.334 222.749 512.698 221.978 513.389C220.002 515.482 219.311 517.555 217.572 523.716C215.202 532.207 213.997 536.452 213.779 537.538C207.853 566.505 202.36 588.186 203.901 594.623C204.736 597.777 206.299 600.692 208.465 603.133C213.839 609.748 222.926 614.606 231.481 613.302C234.345 613.081 237.026 611.808 239.008 609.728C240.373 607.789 241.161 605.502 241.28 603.133C241.596 600.961 241.28 565.241 241.122 550.432C240.944 538.17 240.509 526.243 239.916 514.712C239.113 513.393 238.055 512.247 236.803 511.342C235.551 510.436 234.131 509.79 232.627 509.44Z" fill="#EE779A"/>
<path d="M297.229 473.068C288.294 474.082 279.455 475.806 270.795 478.222C266.271 479.426 262.102 480.71 259.672 484.56C256.294 489.931 258.685 496.605 258.961 497.356C260.363 500.754 262.742 503.661 265.797 505.708C267.926 507.207 270.22 508.459 272.632 509.44C277.67 512.185 279.982 518.326 282.51 531.457C284.94 544.094 284.17 545.456 286.165 557.58C288.911 574.246 292.092 581.65 294.364 586.271C297.248 591.977 299.421 596.144 304.242 599.184C312.144 604.16 321.173 602.383 324.294 601.613C320.363 558.804 310.169 516.272 297.229 473.068Z" fill="#EE779A"/>
<path d="M255.701 509.44C261.411 508.334 265.579 512.698 266.33 513.389C268.306 515.482 269.017 517.555 270.736 523.716C273.126 532.207 274.311 536.452 274.548 537.538C280.475 566.505 285.948 588.186 284.426 594.623C283.591 597.773 282.035 600.686 279.883 603.133C274.509 609.748 265.421 614.606 256.867 613.302C254.002 613.081 251.321 611.808 249.34 609.728C247.958 607.797 247.168 605.506 247.068 603.133C246.752 600.961 247.068 565.241 247.226 550.432C247.41 538.176 247.812 526.27 248.431 514.712C249.23 513.393 250.285 512.248 251.534 511.342C252.782 510.437 254.199 509.79 255.701 509.44Z" fill="#EE779A"/>
<path d="M466.774 545.417C460.847 545.219 455.355 544.844 450.061 544.37C455.296 543.833 460.21 541.592 464.048 537.992C467.09 534.952 471.101 529.048 469.204 526.441C468.157 524.98 465.569 525.019 463.732 525.237C461.423 526.937 458.986 528.455 456.442 529.778C451.286 532.523 444.411 536.136 435.797 535.564C432.983 535.352 430.215 534.733 427.578 533.727L351.656 455.988C332.769 432.293 309.576 405.36 277.71 384.252C274.331 382.001 271.151 380.599 267.832 378.546V364.723C294.978 363.96 321.547 356.709 345.315 343.576C367.738 331.017 381.251 313.72 389.963 303.038C392.459 307.56 396.278 311.211 400.908 313.503C411.971 318.736 423.37 312.99 427.48 310.936C433.553 307.804 438.782 303.257 442.727 297.679C446.671 292.101 449.213 285.656 450.14 278.889C450.574 275.394 453.32 253.812 437.832 244.274C428.625 238.607 416.1 239.437 405.471 245.637C408.894 228.703 409.813 211.36 408.198 194.16C406.795 179.252 401.817 133.896 365.367 94.8583C343.924 72.6626 316.815 56.7525 286.975 48.8507C259.101 41.3076 229.721 41.3076 201.847 48.8507C172.027 56.7321 144.932 72.6146 123.494 94.7793C87.0446 133.817 82.0069 179.173 80.6634 194.081C79.029 211.28 79.9477 228.627 83.3898 245.558C72.7413 239.358 60.2358 238.528 51.0295 244.195C35.5408 253.733 38.2869 275.315 38.7215 278.81C39.6582 285.564 42.2058 291.993 46.1495 297.557C50.0932 303.121 55.3173 307.655 61.3816 310.778C65.4909 312.753 76.8901 318.676 87.9534 313.345C92.5785 311.053 96.3909 307.401 98.8785 302.88C107.611 313.562 121.104 330.86 143.547 343.418C167.322 356.571 193.906 363.836 221.069 364.605V378.427C217.73 380.402 214.55 381.883 211.191 384.134C179.364 405.36 156.21 432.432 137.264 455.988L61.3816 533.727C58.7516 534.731 55.9901 535.35 53.1829 535.564C44.5495 536.136 37.6942 532.523 32.5181 529.778C29.9853 528.436 27.5494 526.918 25.2282 525.237C23.4106 525.019 20.8226 524.98 19.7755 526.441C17.7999 529.048 21.8697 534.952 24.9318 537.992C28.7666 541.585 33.6719 543.825 38.8993 544.37C33.6245 544.844 28.0335 545.219 22.2055 545.417C15.1131 545.674 8.37632 545.634 2.07417 545.417C1.81615 547.126 2.07769 548.873 2.82489 550.432C6.44024 557.482 21.8301 558.528 41.112 553.473C31.0739 558.265 20.0934 560.761 8.969 560.779C7.52791 560.859 6.08353 560.859 4.64244 560.779C4.22729 561.391 3.95039 562.086 3.83098 562.816C3.71158 563.545 3.75253 564.292 3.95098 565.005C5.79488 569.941 19.7426 570.402 45.7941 566.387C39.6123 569.452 33.715 573.06 28.1718 577.168C23.4501 580.643 18.768 584.178 19.5187 586.113C20.4867 588.64 30.0684 587.1 30.9969 586.962C37.4966 585.896 49.0934 582.361 61.836 568.203C61.8753 572.233 62.8635 576.197 64.7204 579.774C66.3206 582.815 69.2445 588.384 75.191 589.647C75.959 589.774 76.7445 589.749 77.5026 589.573C78.2608 589.397 78.9768 589.073 79.6097 588.62C80.2426 588.167 80.7801 587.594 81.1914 586.933C81.6027 586.273 81.8798 585.538 82.0068 584.77C82.1551 584.001 82.1551 583.21 82.0068 582.44C81.64 580.91 81.4086 579.351 81.3154 577.78C81.019 572.607 81.1573 570.415 80.9005 565.636C80.7425 562.793 81.2759 558.548 78.2335 553.631L196.157 457.983C181.755 505.175 171.877 544.588 168.834 573.16C162.908 631.726 158.403 678.365 154.393 731.975C153.622 742.46 153.682 778.061 146.965 814.275C145.362 823.717 143.192 833.054 140.465 842.235C138.597 848.479 135.807 854.408 132.187 859.828C130.429 862.435 128.651 864.804 126.26 865.574C122.478 866.565 118.607 867.173 114.703 867.391C108.638 867.747 96.9226 870.215 89.1783 876.375C82.0182 882.754 77.3731 891.479 76.0801 900.979C93.1887 900.979 164.152 903.348 168.597 900.979C175.887 897.029 174.208 882.398 174.919 878.646C176.026 872.959 176.757 863.087 177.665 859.828C180.905 847.981 209.275 777.074 244.421 640.117C279.586 777.074 307.936 848.021 311.196 859.828C312.085 863.087 312.836 872.959 313.922 878.646C314.653 882.398 312.974 897.089 320.264 900.979C324.689 903.348 395.673 900.979 412.781 900.979C411.48 891.482 406.836 882.76 399.683 876.375C391.781 870.215 380.223 867.747 374.158 867.391C370.255 867.173 366.383 866.565 362.601 865.574C360.191 864.804 358.413 862.435 356.674 859.828C353.056 854.405 350.26 848.476 348.377 842.235C345.672 833.071 343.515 823.754 341.917 814.334C335.199 778.121 335.259 742.519 334.469 732.034C330.517 678.424 326.072 631.785 320.047 573.219C317.103 544.647 307.047 505.234 292.783 458.042L410.707 553.69C407.664 558.607 408.198 562.852 408.04 565.696C407.783 570.474 407.921 572.666 407.625 577.839C407.545 579.409 407.326 580.968 406.973 582.499C406.794 583.257 406.766 584.042 406.89 584.81C407.015 585.578 407.289 586.314 407.698 586.976C408.107 587.638 408.643 588.212 409.274 588.668C409.906 589.123 410.621 589.449 411.379 589.628C412.142 589.776 412.927 589.776 413.69 589.628H413.828C419.755 588.324 422.699 582.756 424.299 579.755C426.156 576.177 427.144 572.214 427.183 568.184C439.926 582.341 451.503 585.955 458.022 586.942C458.951 587.08 468.533 588.621 469.501 586.093C470.251 584.119 465.549 580.624 460.828 577.148C455.284 573.04 449.387 569.432 443.205 566.367C469.283 570.395 483.238 569.935 485.068 564.985C485.263 564.253 485.296 563.487 485.167 562.741C485.037 561.994 484.747 561.285 484.318 560.661C482.895 560.661 481.453 560.819 479.971 560.819C468.876 560.765 457.931 558.249 447.927 553.453C467.209 558.508 482.599 557.403 486.214 550.413C486.961 548.854 487.223 547.106 486.965 545.397C480.584 545.634 473.867 545.674 466.774 545.417Z" stroke="black" stroke-width="2.5" stroke-linecap="round" stroke-linejoin="round"/>
<path d="M202.281 289.078C197.777 294.745 204.711 307.935 210.697 314.945C216.064 321.127 223.135 325.591 231.026 327.78C238.923 330.029 247.278 330.131 255.227 328.076C259.178 327.108 274.47 323.436 282.886 309.851C285.961 304.857 287.633 299.127 287.726 293.264C287.726 289.512 287.015 282.641 284.367 282.049C282.747 281.693 281.246 284.023 279.586 285.603C277.611 287.577 273.067 290.993 254.674 290.835C244.796 290.835 242.366 289.749 227.213 288.328C205.818 286.314 203.486 287.558 202.281 289.078Z" fill="#461C19"/>
<mask id="mask0_117_170" style="mask-type:luminance" maskUnits="userSpaceOnUse" x="200" y="282" width="88" height="48">
<path d="M202.281 289.078C197.777 294.745 204.711 307.935 210.697 314.945C216.064 321.127 223.135 325.591 231.026 327.78C238.923 330.029 247.278 330.131 255.227 328.076C259.178 327.108 274.47 323.436 282.886 309.851C285.961 304.857 287.633 299.127 287.726 293.264C287.726 289.512 287.015 282.641 284.367 282.049C282.747 281.693 281.246 284.023 279.586 285.603C277.611 287.577 273.067 290.993 254.674 290.835C244.796 290.835 242.366 289.749 227.213 288.328C205.818 286.314 203.486 287.558 202.281 289.078Z" fill="white"/>
</mask>
<g mask="url(#mask0_117_170)">
<path d="M261.411 326.22C262.261 322.646 257.776 318.124 254.615 316.13C253.277 315.147 251.743 314.462 250.118 314.121C248.492 313.78 246.812 313.792 245.192 314.156C243.311 314.735 241.646 315.862 240.411 317.394C238.835 316.522 237.002 316.235 235.235 316.584C229.743 317.848 225.969 326.674 228.221 330.702C232.39 338.008 259.574 334 261.411 326.22Z" fill="#BD1823"/>
<path d="M231.738 335.204C229.663 334.629 227.871 333.316 226.7 331.512C226.056 330.02 225.756 328.403 225.821 326.779C225.886 325.156 226.315 323.568 227.075 322.132C227.722 320.399 228.758 318.837 230.104 317.566C231.45 316.296 233.07 315.352 234.839 314.807C236.548 314.439 238.328 314.583 239.956 315.221C241.285 313.916 242.913 312.953 244.697 312.417C246.558 311.979 248.491 311.95 250.364 312.332C252.236 312.713 254.004 313.497 255.543 314.629C259.198 316.939 264.216 322.014 263.13 326.634C261.905 331.827 253.469 334.789 246.001 335.856C241.255 336.658 236.391 336.436 231.738 335.204ZM238.553 318.479C237.621 318.126 236.607 318.043 235.629 318.242C234.402 318.676 233.286 319.378 232.363 320.297C231.44 321.216 230.734 322.328 230.295 323.554C229.788 324.5 229.479 325.54 229.388 326.609C229.296 327.678 229.423 328.755 229.762 329.774C231.224 332.361 237.842 333.447 245.567 332.361C253.291 331.275 259.119 328.411 259.751 325.825C260.285 323.554 257.005 319.684 253.825 317.611C252.711 316.766 251.431 316.168 250.069 315.854C248.706 315.541 247.293 315.521 245.922 315.794C244.368 316.267 242.992 317.196 241.971 318.46L241.082 319.526L239.837 318.914C239.423 318.731 238.993 318.585 238.553 318.479Z" fill="#1D1E1C"/>
</g>
<path d="M228.359 329.754C220.699 327.331 213.86 322.834 208.603 316.761C202.261 309.337 194.339 294.824 200.128 287.537C202.34 284.773 205.738 283.707 227.332 285.721C233.258 286.274 237.21 286.767 240.41 287.162C245.105 287.813 249.836 288.169 254.575 288.229C272.948 288.387 276.445 284.911 277.591 283.766L278.598 282.719C280.139 281.021 282.056 278.909 284.822 279.521C289.741 280.607 290.254 289.532 290.254 293.343C290.159 299.694 288.351 305.902 285.019 311.311C280.93 317.946 272.553 326.693 255.761 330.721C247.362 332.889 238.538 332.78 230.196 330.405L228.359 329.754ZM204.355 290.835C201.412 294.547 206.331 305.98 212.712 313.325C217.757 319.095 224.386 323.256 231.777 325.291C239.221 327.432 247.107 327.514 254.595 325.528C266.666 322.626 275.418 316.899 280.594 308.507C283.411 303.929 284.946 298.678 285.039 293.303C285.136 290.491 284.707 287.685 283.774 285.03C283.399 285.385 282.925 285.899 282.589 286.274C282.253 286.649 281.819 287.123 281.404 287.518C278.519 290.401 272.849 293.678 254.615 293.441C249.677 293.39 244.747 293.02 239.857 292.336C236.676 291.941 232.705 291.467 226.917 290.914C209.472 289.275 205.027 289.927 204.355 290.756V290.835Z" fill="#1D1E1C"/>
<path d="M237.98 258.669C237.66 258.663 237.347 258.575 237.072 258.412C235.536 257.448 234.21 256.186 233.172 254.701C232.134 253.215 231.404 251.536 231.026 249.764C230.72 248.389 230.696 246.967 230.954 245.582C231.212 244.198 231.747 242.88 232.528 241.708C233.851 240.018 235.625 238.736 237.645 238.009C239.665 237.282 241.85 237.141 243.947 237.6C244.37 237.665 244.753 237.888 245.019 238.223C245.285 238.558 245.415 238.981 245.383 239.408C245.35 239.834 245.158 240.233 244.844 240.524C244.53 240.815 244.118 240.977 243.69 240.977H243.394C241.925 240.649 240.395 240.728 238.968 241.205C237.54 241.682 236.27 242.538 235.294 243.682C234.785 244.483 234.44 245.378 234.281 246.314C234.121 247.249 234.15 248.207 234.365 249.132C234.652 250.455 235.2 251.707 235.977 252.815C236.754 253.924 237.744 254.867 238.889 255.589C239.266 255.835 239.53 256.221 239.623 256.661C239.716 257.102 239.629 257.561 239.383 257.939C239.228 258.17 239.02 258.361 238.776 258.495C238.532 258.629 238.259 258.702 237.98 258.709V258.669Z" fill="#1D1E1C"/>
<path d="M174.089 243.939C181.399 243.939 187.346 233.513 187.346 220.658C187.346 207.804 181.419 197.457 174.089 197.457C166.76 197.457 160.833 207.883 160.833 220.718C160.833 233.552 166.76 243.939 174.089 243.939Z" fill="#000100"/>
<path d="M298.849 243.939C306.158 243.939 312.105 233.513 312.105 220.658C312.105 207.804 306.218 197.457 298.849 197.457C291.48 197.457 285.592 207.883 285.592 220.718C285.592 233.552 291.519 243.939 298.849 243.939Z" fill="#000100"/>
<path d="M174.721 148.468C166.819 145.803 158.739 151.667 155.202 154.254C146.54 161.318 141.04 171.531 139.911 182.648C139.714 184.623 139.22 189.618 141.156 190.547C143.092 191.475 145.364 188.572 147.241 186.597C154.274 179.548 162.888 174.276 170.513 167.859C179.66 160.178 182.367 158.203 181.913 155.221C181.498 151.746 177.408 149.377 174.721 148.468Z" fill="#572318"/>
<path d="M141.749 193.508C141.159 193.501 140.575 193.38 140.03 193.153C136.316 191.395 136.79 185.61 137.087 182.371C137.684 176.479 139.446 170.763 142.271 165.557C145.096 160.35 148.928 155.756 153.543 152.042C157.376 149.258 166.345 142.742 175.63 145.881C179.463 147.165 184.145 150.324 184.718 154.925C185.232 159.229 182.407 161.599 174.03 168.628L172.331 170.07C169.309 172.597 166.108 174.987 163.006 177.297C158.127 180.734 153.505 184.522 149.177 188.631L148.861 188.947C146.866 190.941 144.357 193.508 141.749 193.508ZM170.533 150.62C165.002 150.62 159.47 154.569 156.862 156.544C148.881 163.162 143.804 172.636 142.717 182.944C142.542 184.326 142.496 185.72 142.579 187.11C143.369 186.459 144.357 185.491 144.91 184.919L145.246 184.583C149.743 180.287 154.55 176.327 159.628 172.736C162.671 170.485 165.792 168.135 168.696 165.706L170.395 164.265C176.322 159.328 179.266 156.84 179.108 155.557C178.89 153.799 176.223 152.002 173.813 151.173C172.759 150.805 171.65 150.618 170.533 150.62Z" fill="#1D1E1C"/>
<path d="M248.333 30.8026C219.043 28.5499 189.631 33.1541 162.434 44.2495C115.968 63.2449 89.3365 95.5884 77.8385 109.884C62.3762 129.186 49.9394 150.724 40.9541 173.762L46.0314 177.356C51.3436 163.253 58.0198 149.703 65.9652 136.897C68.4742 132.947 70.6276 129.729 71.6746 128.228C79.0134 117.554 87.2982 107.562 96.4289 98.3726C90.2848 107.989 81.77 121.752 72.2081 138.693C48.8762 180.159 49.1528 187.623 50.4765 192.343C56.8972 214.754 99.7281 217.676 104.628 218.012C109.248 187.341 118.654 157.584 132.503 129.828C151.548 91.9552 165.16 86.7423 172.825 85.6761C178.106 85.0385 183.461 85.8012 188.353 87.8876C208.346 96.9509 216.387 134.705 210.697 180.949L215.893 180.456C216.249 165.975 216.598 151.495 216.94 137.015C217.109 149.853 220.644 162.421 227.194 173.466C237.072 189.539 250.664 196.43 259.811 200.873C297.347 219.177 337.551 208.771 351.735 204.407C350.01 180.976 348.304 157.537 346.619 134.093L359.282 200.32L363.233 199.964L353.632 134.014C360.527 147.866 365.016 162.789 366.908 178.145C368.116 187.881 368.288 197.716 367.422 207.488C376.226 209.311 385.274 209.652 394.191 208.495C407.077 206.723 419.377 201.992 430.127 194.673C430.812 186.868 430.687 179.013 429.752 171.234C424.753 129.314 397.095 102.46 385.242 92.2514C396.869 99.7179 408.081 107.812 418.827 116.499C421.803 118.869 424.694 121.258 427.5 123.667L430.226 119.343C423.157 110.37 415.459 101.911 407.19 94.0285C385.097 73.0172 359.122 56.5054 330.715 45.4145C311.104 37.8979 290.548 33.127 269.63 31.237C281.145 25.1739 294.283 22.9069 307.166 24.7604C315.601 25.7797 323.781 28.3221 331.308 32.2638C332.256 32.2638 333.283 32.0861 333.52 31.5332C334.113 29.5587 321.805 23.7337 314.95 21.3839C307.482 18.817 293.218 15.7761 271.862 22.6279C276.465 19.2772 281.35 16.3307 286.462 13.8213C292.583 10.757 299.014 8.35416 305.645 6.65358L303.847 2.76367C292.644 5.11295 281.839 9.06319 271.763 14.4926C263.342 18.9961 255.479 24.47 248.333 30.8026Z" fill="#683B13"/>
<path d="M84.338 217.855C69.6791 214.597 52.195 207.706 48.0265 193.173C46.2683 187.051 46.7226 178.64 69.9952 137.351C72.2342 133.402 74.493 129.453 76.7715 125.504L73.7488 129.769C72.4449 131.744 70.3903 134.686 68.1381 138.319C60.2694 150.968 53.6528 164.353 48.3821 178.284C48.242 178.663 48.0183 179.005 47.7275 179.286C47.4368 179.566 47.0866 179.777 46.7029 179.904C46.3431 180.044 45.955 180.098 45.5705 180.06C45.1859 180.023 44.8158 179.894 44.4902 179.686L39.5117 175.994C39.0223 175.631 38.6674 175.116 38.5029 174.53C38.3384 173.944 38.3736 173.32 38.6029 172.756C47.6399 149.452 60.1847 127.665 75.8034 108.147C86.0963 95.3325 113.34 61.3303 161.465 41.703C188.67 30.5137 218.1 25.7825 247.443 27.881C254.567 21.7273 262.353 16.383 270.657 11.9462C280.971 6.44697 292.022 2.45708 303.471 0.0986997C304.018 -0.0188637 304.589 0.0541465 305.088 0.305596C305.588 0.557046 305.986 0.971791 306.217 1.4809L308.015 5.27209C308.181 5.64515 308.266 6.04873 308.266 6.45683C308.266 6.86494 308.181 7.26851 308.015 7.64158C307.85 8.01103 307.605 8.33916 307.298 8.60214C306.99 8.86513 306.628 9.05637 306.237 9.162C299.778 10.8174 293.513 13.154 287.548 16.1322L287.094 16.3692C296.735 14.9237 306.581 15.7624 315.839 18.8177C320.975 20.5948 337.57 26.716 336.029 32.304C335.278 34.8315 332.355 34.9697 331.387 35.0092C330.948 35.0264 330.513 34.9313 330.122 34.7327C322.862 30.9207 314.97 28.4586 306.83 27.4663C299.008 26.3728 291.048 26.8223 283.399 28.7893C282.352 29.0657 281.285 29.3816 280.238 29.7173C297.847 32.0906 315.119 36.5107 331.703 42.8877C360.355 54.0626 386.562 70.6938 408.869 91.8572C417.254 99.7895 425.07 108.301 432.261 117.329C432.608 117.792 432.808 118.349 432.832 118.927C432.857 119.505 432.706 120.077 432.399 120.568L429.673 124.892C429.478 125.209 429.219 125.481 428.913 125.692C428.607 125.903 428.26 126.047 427.894 126.116C427.545 126.166 427.189 126.142 426.849 126.047C426.508 125.952 426.192 125.787 425.919 125.563C423.074 123.134 420.19 120.745 417.305 118.435C413.552 115.434 409.739 112.492 405.867 109.609C420.286 127.124 429.499 148.332 432.458 170.82C433.403 178.797 433.529 186.849 432.833 194.851C432.79 195.267 432.658 195.669 432.447 196.03C432.236 196.39 431.95 196.702 431.609 196.944C420.522 204.522 407.829 209.428 394.527 211.28C385.315 212.5 375.964 212.153 366.868 210.253C366.257 210.08 365.725 209.7 365.364 209.177C365.003 208.654 364.837 208.022 364.893 207.39C365.051 205.533 365.169 203.638 365.268 201.762C365.045 202.044 364.767 202.279 364.452 202.452C364.136 202.625 363.789 202.733 363.431 202.769L359.48 203.125C358.847 203.168 358.221 202.977 357.721 202.587C357.221 202.197 356.884 201.636 356.773 201.012L352.486 178.6L354.461 204.27C354.5 204.902 354.327 205.528 353.969 206.05C353.611 206.573 353.089 206.96 352.486 207.153C332.73 213.234 294.423 220.856 258.764 203.48C250.051 199.254 235.491 192.146 225.08 175.105C222.635 171.062 220.59 166.79 218.975 162.35L218.54 180.575C218.535 181.239 218.287 181.879 217.844 182.373C217.4 182.868 216.79 183.183 216.13 183.26L210.934 183.754C210.567 183.776 210.199 183.717 209.858 183.581C209.516 183.444 209.209 183.234 208.959 182.964C208.698 182.667 208.503 182.318 208.387 181.941C208.271 181.563 208.237 181.164 208.287 180.772C213.898 134.962 205.541 98.6892 187.444 90.475C182.961 88.6228 178.079 87.9432 173.26 88.5004C168.775 89.1323 155.163 91.0279 134.953 131.191C121.294 158.677 112.003 188.122 107.413 218.467C107.325 219.126 106.996 219.73 106.488 220.16C105.981 220.59 105.332 220.817 104.667 220.797C97.8248 220.342 91.0282 219.359 84.338 217.855ZM96.9423 95.7076C97.3466 95.7941 97.7211 95.9847 98.0289 96.2605C98.5158 96.7054 98.8302 97.3076 98.9169 97.9612C99.0036 98.6149 98.8571 99.2781 98.5031 99.8345C90.166 112.867 82.0463 126.373 74.3613 140.037C50.3775 182.609 52.037 188.394 52.926 191.534C58.2206 210.036 92.438 214.241 102.415 215.09C107.213 185.038 116.539 155.885 130.073 128.624C149.335 90.2973 163.461 84.2156 172.39 82.9321C178.141 82.2649 183.966 83.0948 189.302 85.3411C203.012 91.561 211.725 110.458 214.194 136.957C214.209 136.246 214.5 135.569 215.005 135.068C215.51 134.567 216.189 134.281 216.901 134.271C217.577 134.287 218.22 134.566 218.692 135.049C219.165 135.533 219.43 136.182 219.429 136.858C219.595 149.216 223.001 161.315 229.307 171.946C238.929 187.743 252.679 194.397 260.917 198.386C293.83 214.419 329.411 208.14 348.93 202.335L344.011 134.271C343.954 133.59 344.15 132.911 344.562 132.365C344.973 131.818 345.572 131.443 346.243 131.309C346.905 131.206 347.581 131.368 348.125 131.76C348.668 132.152 349.036 132.742 349.147 133.402L356.694 172.894L351.103 134.469C350.998 133.837 351.116 133.188 351.437 132.633C351.758 132.079 352.261 131.652 352.861 131.428C353.443 131.21 354.084 131.219 354.659 131.454C355.234 131.688 355.699 132.13 355.963 132.691C363.019 146.819 367.622 162.043 369.575 177.712C370.707 186.842 370.952 196.06 370.306 205.237C378.133 206.637 386.13 206.817 394.013 205.77C406.06 204.1 417.581 199.762 427.736 193.074C428.287 185.909 428.135 178.707 427.282 171.571C422.541 132.948 397.826 106.627 383.503 94.2069C382.993 93.7541 382.667 93.1301 382.587 92.4531C382.507 91.7762 382.678 91.0935 383.068 90.5342C383.429 89.9735 383.997 89.5779 384.648 89.4337C385.299 89.2894 385.981 89.4082 386.545 89.7642C398.27 97.27 409.58 105.404 420.427 114.13C422.58 115.868 424.773 117.665 426.926 119.482C420.219 111.195 412.958 103.371 405.195 96.0631C383.398 75.3278 357.782 59.0189 329.767 48.0414C310.38 40.5797 290.046 35.861 269.353 34.0219C268.784 33.956 268.252 33.7063 267.839 33.3106C267.425 32.915 267.152 32.3951 267.061 31.8301C266.962 31.2505 267.049 30.6546 267.307 30.1266C267.566 29.5987 267.985 29.1654 268.503 28.888C279.719 22.9076 292.467 20.4117 305.111 21.7203C294.16 20.3509 283.041 21.5474 272.632 25.2153C272.041 25.4088 271.399 25.3743 270.833 25.1185C270.266 24.8627 269.816 24.4041 269.57 23.8331C269.304 23.2481 269.247 22.5896 269.409 21.9677C269.571 21.3459 269.942 20.7985 270.459 20.4171C275.181 16.9214 280.198 13.8426 285.454 11.2156L287.094 10.406C282.251 12.2439 277.532 14.3941 272.968 16.8431C264.745 21.2697 257.056 26.6228 250.051 32.7977C249.788 33.0423 249.476 33.2272 249.135 33.3396C248.794 33.4521 248.432 33.4895 248.076 33.4493C219.168 31.1774 190.131 35.7224 163.303 46.7184C116.521 65.8323 89.8302 99.0447 79.7941 111.544C64.9942 130.046 53.0112 150.633 44.2334 172.637L44.9446 173.131C50.1179 160.005 56.4586 147.37 63.8906 135.377C66.202 131.665 68.3159 128.545 69.6593 126.59C77.0874 115.819 85.4501 105.723 94.6506 96.4185C94.9439 96.1196 95.3068 95.8981 95.7068 95.7741C96.1068 95.65 96.5313 95.6272 96.9423 95.7076ZM359.341 155.518L365.268 196.529C365.312 190.531 364.968 184.535 364.241 178.581C363.31 170.767 361.697 163.05 359.42 155.518H359.341Z" fill="#1D1E1C"/>
<path d="M410.924 206.935C410.397 206.806 409.924 206.516 409.57 206.106C409.216 205.695 408.999 205.184 408.948 204.645C405.886 177.455 398.359 159.091 392.314 144.341C384.135 124.378 372.953 97.0896 346.243 75.4482C330.917 63.0873 312.949 54.4188 293.732 50.1144C293.048 49.9342 292.462 49.4959 292.096 48.8921C291.73 48.2882 291.612 47.5658 291.769 46.8772C291.925 46.1886 292.343 45.5874 292.933 45.2005C293.524 44.8135 294.243 44.671 294.937 44.8028C314.865 49.2657 333.496 58.2589 349.384 71.0844C377.043 93.6143 388.62 121.634 397.095 142.169C403.278 157.275 410.924 176.033 414.124 203.993C414.206 204.702 414.014 205.414 413.589 205.987C413.163 206.559 412.535 206.948 411.833 207.073C411.525 207.069 411.219 207.022 410.924 206.935Z" fill="#1D1E1C"/>
<path d="M351.103 202.176C350.545 202.037 350.049 201.718 349.692 201.268C349.335 200.818 349.136 200.263 349.127 199.688C348.219 175.006 342.47 138.476 320.264 104.099C310.919 89.6847 295.312 65.5751 265.54 54.2016C257.925 51.2822 249.95 49.4026 241.833 48.6135C241.146 48.5296 240.521 48.1767 240.095 47.6324C239.669 47.0881 239.477 46.3969 239.561 45.7109C239.621 45.0087 239.955 44.3584 240.491 43.9004C241.027 43.4423 241.722 43.2132 242.425 43.2624C251.015 44.112 259.453 46.1042 267.515 49.1862C298.809 61.1521 314.93 86.1305 324.669 101.058C347.567 136.423 353.474 174.118 354.422 199.451C354.456 200.159 354.216 200.853 353.753 201.389C353.29 201.926 352.638 202.264 351.933 202.334C351.649 202.333 351.368 202.279 351.103 202.176Z" fill="#1D1E1C"/>
<path d="M299.105 202.038C298.724 201.948 298.368 201.774 298.064 201.528C297.76 201.282 297.514 200.97 297.347 200.617C290.473 185.983 284.862 170.789 280.574 155.201C278.087 146.424 276.108 137.51 274.647 128.505C273.386 119.505 271.092 110.68 267.812 102.204C262.102 87.3549 253.489 64.9238 233.436 56.9662C227.698 54.71 221.535 53.7329 215.379 54.1031C214.694 54.1191 214.031 53.8651 213.531 53.3958C213.032 52.9265 212.738 52.2798 212.712 51.5954C212.686 51.2295 212.733 50.8619 212.852 50.5147C212.971 50.1676 213.158 49.8479 213.404 49.575C213.649 49.3021 213.947 49.0816 214.28 48.9266C214.612 48.7716 214.973 48.6853 215.34 48.673C222.236 48.2534 229.14 49.3452 235.57 51.8718C257.677 60.6587 266.784 84.3733 272.83 100.071C276.229 108.895 278.615 118.077 279.942 127.439C281.338 136.266 283.231 145.007 285.612 153.622C289.827 168.896 295.333 183.785 302.069 198.129C302.364 198.775 302.406 199.509 302.186 200.185C301.967 200.861 301.502 201.431 300.883 201.782C300.342 202.082 299.709 202.173 299.105 202.038Z" fill="#1D1E1C"/>
<path d="M77.1866 209.068H77.0483C76.3724 208.862 75.8048 208.399 75.4684 207.778C75.1319 207.157 75.0536 206.429 75.2505 205.751C81.0614 183.925 89.326 162.827 99.8862 142.86C115.237 113.735 134.479 77.5218 173.082 61.2118C183.629 56.7317 194.856 54.0614 206.292 53.3135C206.632 53.3003 206.971 53.3542 207.29 53.4721C207.609 53.59 207.902 53.7696 208.151 54.0007C208.401 54.2318 208.602 54.5098 208.744 54.8188C208.886 55.1277 208.966 55.4617 208.979 55.8014C209.013 56.5093 208.773 57.2031 208.31 57.7396C207.847 58.2761 207.195 58.6143 206.489 58.6843C195.612 59.3501 184.925 61.8469 174.88 66.0692C137.995 81.7474 119.306 116.994 104.292 145.309C93.9535 164.907 85.8553 185.606 80.15 207.014C80.0028 207.665 79.6168 208.237 79.0681 208.618C78.5194 208.998 77.848 209.159 77.1866 209.068Z" fill="#1D1E1C"/>
<path d="M257.697 196.233C257.337 196.149 257 195.987 256.71 195.758C256.42 195.529 256.184 195.24 256.017 194.91C250.088 183.592 245.373 171.678 241.951 159.368C240.529 154.195 238.573 143.887 234.661 123.372L234.009 120.015C230.552 101.809 228.971 93.5159 223.874 82.8335C221.566 78.0198 218.877 73.3979 215.834 69.0115C215.424 68.4234 215.255 67.7008 215.361 66.992C215.468 66.2833 215.842 65.6422 216.407 65.2005C216.923 64.7863 217.583 64.5933 218.242 64.6636C218.901 64.7339 219.505 65.0618 219.923 65.5757L220.042 65.7337C223.264 70.3284 226.099 75.1828 228.517 80.2468C233.93 91.5809 235.669 100.664 239.106 118.771L239.758 122.147C243.709 142.505 245.685 152.733 246.949 157.69C250.246 169.661 254.816 181.246 260.581 192.245C260.905 192.882 260.977 193.617 260.783 194.305C260.589 194.993 260.143 195.583 259.534 195.957C258.971 196.255 258.323 196.352 257.697 196.233Z" fill="#1D1E1C"/>
</svg>
