<svg width="602" height="260" viewBox="0 0 602 260" fill="none" xmlns="http://www.w3.org/2000/svg">
<path d="M7.00571 34.3643C7.82314 33.0357 8.70846 31.7138 9.66055 30.3991C39.3806 -9.03424 112.919 -6.67947 154.83 18.6101C196.741 43.8996 224.513 82.2421 281.093 60.2456C303.146 51.6482 322.108 38.0051 344.443 29.98C393.908 12.3045 438.159 28.76 479.631 53.6784C509.747 71.8851 542.654 74.893 577.689 71.7619C602.417 69.5802 650.154 49.4989 653.379 83.6296C656.052 111.765 656.517 139.925 654.772 167.944C651.459 221.942 615.341 237.568 560.311 252.443C520.825 263.103 480.258 261.807 442.5 244.444C415.788 232.184 389.083 217.209 359.249 215.441C309.283 212.199 273.235 246.96 225.018 250.527C195.099 252.881 166.826 242.58 138.818 234.317C108.232 225.3 79.726 226.495 49.7845 220.478C-5.22622 209.381 18.4503 159.218 14.1905 123.242C11.1366 94.7252 -9.3872 61.3676 7.00571 34.3643Z" fill="#F7A81A"/>
</svg>
