<svg width="568" height="223" viewBox="0 0 568 223" fill="none" xmlns="http://www.w3.org/2000/svg">
<path d="M564.285 46.4618C563.671 45.1869 562.996 43.9117 562.26 42.6367C539.134 4.28895 472.639 -0.418317 432.52 18.5104C392.402 37.4391 363.815 69.461 314.864 44.3535C295.786 34.5459 279.962 20.4719 260.577 11.1547C217.637 -9.39229 176.23 1.34669 136.541 19.9812C107.71 33.6137 77.7731 33.2709 46.4882 27.1902C24.4047 22.9239 -16.7552 0.366389 -22.8281 30.8681C-27.8473 56.0105 -30.8794 81.3807 -31.9068 106.828C-33.9311 155.866 -2.82961 173.323 45.3859 191.86C79.9834 205.149 116.665 207.748 152.305 195.587C177.517 187.005 202.974 175.972 230.026 177.148C275.358 178.865 304.621 213.584 347.746 221.283C374.491 226.187 400.928 219.517 426.937 214.663C455.339 209.367 480.919 213.094 508.462 210.445C559.07 205.542 542.386 158.072 549.563 126.001C554.961 100.551 576.553 72.354 564.285 46.4618Z" fill="#65247F"/>
</svg>
