<svg width="596" height="218" viewBox="0 0 596 218" fill="none" xmlns="http://www.w3.org/2000/svg">
<path d="M643.988 45.4201C643.325 44.1737 642.596 42.9272 641.801 41.6807C616.824 4.19279 545.01 -0.408938 501.682 18.0953C458.354 36.5996 427.48 67.9036 374.613 43.3591C354.009 33.7714 336.919 20.0129 315.984 10.9046C269.608 -9.1817 224.888 1.3165 182.024 19.5332C150.886 32.8601 118.555 32.525 84.7673 26.5806C60.9171 22.4099 16.4644 0.358174 9.90563 30.176C4.48496 54.7546 1.21024 79.556 0.100701 104.433C-2.08556 152.371 31.504 169.437 83.5768 187.558C120.942 200.549 160.558 203.09 199.049 191.201C226.278 182.812 253.771 172.026 282.988 173.176C331.947 174.854 363.551 208.795 410.125 216.321C439.01 221.115 467.562 214.596 495.652 209.85C526.326 204.672 553.953 208.316 583.699 205.727C638.356 200.933 620.337 154.528 628.088 123.176C633.918 98.2962 657.238 70.7317 643.988 45.4201Z" fill="#006AB5"/>
</svg>
