<svg width="602" height="224" viewBox="0 0 602 224" fill="none" xmlns="http://www.w3.org/2000/svg">
<path d="M652.357 34.2369C651.611 32.9982 650.797 31.7632 649.916 30.5321C622.333 -6.43518 548.975 -7.03467 505.942 14.4009C462.91 35.8365 433.291 69.6691 378.067 47.5572C356.544 38.917 338.356 25.8036 316.523 17.6734C268.164 -0.243844 223.253 13.0711 180.676 34.1855C149.752 49.6197 116.826 51.1285 82.094 46.9754C57.5788 44.0697 11.0634 24.0292 6.10679 54.9466C2.00657 80.4325 0.103356 106.024 0.408203 131.568C0.946677 180.795 36.1181 196.351 90.1627 211.929C128.942 223.095 169.41 223.428 207.901 209.046C235.131 198.893 262.492 186.27 292.295 185.775C342.222 184.689 376.346 217.643 424.183 222.684C453.859 225.94 482.543 217.626 510.86 211.156C541.781 204.096 570.11 206.245 600.237 201.889C655.59 193.848 634.575 147.349 640.657 114.792C645.156 88.9735 667.302 59.404 652.357 34.2369Z" fill="#E14591"/>
</svg>
