<svg width="585" height="230" viewBox="0 0 585 230" fill="none" xmlns="http://www.w3.org/2000/svg">
<path d="M-35.3377 28.0171C-34.5612 26.8993 -33.72 25.7885 -32.8149 24.6851C-4.55856 -8.38726 65.6548 -4.97208 105.741 17.404C145.828 39.7801 172.455 73.0213 226.406 55.338C247.434 48.4252 265.497 37.1488 286.795 30.7298C333.966 16.5966 376.261 31.4811 415.928 53.5322C444.733 69.6403 476.158 72.8356 509.596 70.8345C533.197 69.4461 578.712 53.2276 581.891 82.4063C584.526 106.46 585.054 130.493 583.471 154.362C580.469 200.364 546.034 213.004 493.541 224.641C455.876 232.981 417.144 231.099 381.045 215.565C355.507 204.595 329.968 191.309 301.48 189.231C253.769 185.509 219.457 214.474 173.436 216.596C144.881 218.031 117.858 208.703 91.0942 201.118C61.868 192.841 34.6571 193.315 6.05449 187.609C-46.4963 177.09 -24.0415 134.749 -28.2149 103.976C-31.215 79.5902 -50.9077 50.7402 -35.3377 28.0171Z" fill="#7ACADE"/>
</svg>
