<svg width="1440" height="840" viewBox="0 0 1440 840" fill="none" xmlns="http://www.w3.org/2000/svg">
<g clip-path="url(#clip0_117_166)">
<rect width="1440" height="758" transform="translate(0 82)" fill="#A7D0F6"/>
<ellipse cx="154.277" cy="195.176" rx="154.277" ry="195.176" transform="matrix(-1 0 0 1 223.555 175)" fill="url(#paint0_linear_117_166)" fill-opacity="0.65"/>
<ellipse cx="121.661" cy="195.176" rx="121.661" ry="195.176" transform="matrix(-1 0 0 1 412 306.496)" fill="url(#paint1_linear_117_166)" fill-opacity="0.65"/>
<ellipse cx="1367.72" cy="370.176" rx="154.277" ry="195.176" fill="url(#paint2_linear_117_166)" fill-opacity="0.65"/>
<ellipse cx="1146.66" cy="501.672" rx="121.661" ry="195.176" fill="url(#paint3_linear_117_166)" fill-opacity="0.65"/>
<ellipse cx="1376" cy="409.5" rx="149" ry="188.5" fill="url(#paint4_linear_117_166)"/>
<ellipse cx="1162.5" cy="536.5" rx="117.5" ry="188.5" fill="url(#paint5_linear_117_166)"/>
<ellipse cx="149" cy="188.5" rx="149" ry="188.5" transform="matrix(-1 0 0 1 207 208)" fill="url(#paint6_linear_117_166)"/>
<ellipse cx="117.5" cy="188.5" rx="117.5" ry="188.5" transform="matrix(-1 0 0 1 389 335)" fill="url(#paint7_linear_117_166)"/>
<path d="M-91.4164 521.032L-94.7521 521.431L-94.4893 524.78L-66.9871 875.275L-66.7339 878.501H-63.4978H1414.62H1415.3L1415.92 878.249C1458.74 861.066 1510.73 839.279 1558.42 814.58C1606.01 789.929 1649.7 762.186 1675.63 732.975C1688.61 718.35 1697.38 703.092 1699.72 687.428C1702.08 671.615 1697.82 655.829 1685.61 640.454C1673.48 625.181 1653.51 610.311 1624.35 595.935C1595.16 581.544 1556.55 567.545 1506.91 554.123C1308.41 500.444 994.506 481.93 687.623 481.93C380.648 481.929 80.2631 500.459 -91.4164 521.032Z" fill="url(#paint8_linear_117_166)" stroke="#8EB65F" stroke-width="7"/>
<path d="M286.961 588.046C86.2131 552.353 349.097 547.464 520.807 549.56C532.485 549.702 544.051 547.439 555.057 543.535C709.684 488.68 759.277 575.601 964.575 549.805C1177.04 523.108 1223.9 559.906 1190.71 564.957C1157.51 570.007 1075.49 588.046 1179.77 625.204C1284.05 662.363 975.511 668.857 875.529 625.204C775.547 581.552 579.88 613.66 664.63 668.857C749.38 724.054 233.068 696.997 195.574 656.23C158.081 615.464 546.68 634.224 286.961 588.046Z" fill="#B9E18A"/>
<g filter="url(#filter0_f_117_166)">
<ellipse cx="711.5" cy="745" rx="263.5" ry="59" fill="#8EB65F"/>
</g>
<mask id="path-12-inside-1_117_166" fill="white">
<path d="M964.24 727.4C977.997 718.485 975.366 694.862 973.05 671.085C972.179 662.136 971.488 642.265 964.159 647.472C962.471 648.672 961.57 654.742 962.633 669.889C965.894 716.335 967.427 719.13 930.504 736.215C901.19 749.78 889.606 750.745 889.606 737.358L887.714 698.31C887.578 695.497 885.438 693.19 882.643 692.843C879.349 692.435 876.44 694.875 876.398 698.194C876.276 708.065 876.505 726.586 877.243 745.847C878.425 776.702 963.068 728.159 964.24 727.4Z"/>
</mask>
<path d="M973.05 671.085L947.173 673.605L973.05 671.085ZM964.24 727.4L978.378 749.219L978.378 749.219L964.24 727.4ZM877.243 745.847L851.262 746.843L877.243 745.847ZM876.398 698.194L902.396 698.517L876.398 698.194ZM887.714 698.31L861.744 699.568V699.568L887.714 698.31ZM889.606 737.358H915.606V736.729L915.575 736.1L889.606 737.358ZM930.504 736.215L941.423 759.812L941.423 759.812L930.504 736.215ZM962.633 669.889L988.569 668.068L962.633 669.889ZM964.159 647.472L949.1 626.277L949.1 626.277L964.159 647.472ZM882.643 692.843L879.442 718.645H879.442L882.643 692.843ZM947.173 673.605C948.415 686.363 949.307 695.602 948.75 702.812C948.164 710.392 946.518 707.902 950.101 705.58L978.378 749.219C995.719 737.983 999.636 719.225 1000.6 706.82C1001.58 694.045 1000 679.584 998.928 668.564L947.173 673.605ZM950.101 705.58C950.947 705.032 931.059 716.543 911.292 724.258C900.952 728.294 893.786 730.007 890.453 730.099C888.727 730.146 891.668 729.62 895.72 732.328C901.371 736.105 903.11 741.877 903.224 744.852L851.262 746.843C851.671 757.531 856.314 768.536 866.824 775.561C875.736 781.517 885.493 782.255 891.886 782.079C904.794 781.723 919.083 777.038 930.198 772.699C953.341 763.667 976.361 750.527 978.378 749.219L950.101 705.58ZM903.224 744.852C902.498 725.909 902.281 707.842 902.396 698.517L850.4 697.872C850.271 708.288 850.512 727.262 851.262 746.843L903.224 744.852ZM861.744 699.568L863.636 738.616L915.575 736.1L913.684 697.051L861.744 699.568ZM863.606 737.358C863.606 743.699 864.868 754.3 873.278 762.906C882.037 771.87 893.067 773.155 900.105 772.873C907.111 772.591 914.094 770.684 920.192 768.589C926.589 766.392 933.709 763.381 941.423 759.812L919.585 712.619C912.641 715.832 907.321 718.029 903.301 719.409C898.982 720.892 897.574 720.932 898.019 720.915C898.497 720.895 904.798 720.76 910.47 726.564C913.091 729.246 914.413 732.097 915.033 734.136C915.611 736.033 915.606 737.276 915.606 737.358H863.606ZM941.423 759.812C950.478 755.621 959.16 751.438 966.156 746.692C973.769 741.527 980.937 734.696 985.412 724.586C989.556 715.225 990.21 705.589 990.181 697.351C990.151 689.173 989.341 679.067 988.569 668.068L936.697 671.709C937.555 683.934 938.16 691.594 938.181 697.538C938.202 703.42 937.543 704.259 937.862 703.539C938.513 702.069 939.345 702.043 936.963 703.659C933.964 705.694 928.991 708.267 919.585 712.619L941.423 759.812ZM988.569 668.068C988.072 660.979 988.136 657.232 988.271 655.658C988.343 654.813 988.36 655.56 987.87 657.124C987.61 657.952 987.048 659.535 985.926 661.426C984.816 663.296 982.748 666.16 979.218 668.667L949.1 626.277C941.666 631.559 939.097 638.867 938.248 641.578C937.147 645.091 936.69 648.528 936.458 651.243C935.986 656.79 936.131 663.652 936.697 671.709L988.569 668.068ZM879.442 718.645C869.689 717.435 862.22 709.384 861.744 699.568L913.684 697.051C912.935 681.609 901.186 668.944 885.844 667.041L879.442 718.645ZM902.396 698.517C902.238 711.331 890.893 720.066 879.442 718.645L885.844 667.041C867.805 664.803 850.642 678.419 850.4 697.872L902.396 698.517ZM998.928 668.564C998.681 666.032 998.062 655.84 996.417 648.376C995.773 645.45 993.938 637.291 988.105 630.609C984.534 626.517 978.143 621.526 968.851 620.722C959.922 619.949 953.046 623.474 949.1 626.277L979.218 668.667C977.105 670.169 971.854 673.176 964.368 672.528C956.521 671.849 951.393 667.626 948.93 664.804C946.707 662.257 945.859 660.048 945.72 659.69C945.497 659.115 945.508 658.988 945.635 659.565C946.386 662.971 946.548 667.189 947.173 673.605L998.928 668.564Z" fill="url(#paint9_linear_117_166)" mask="url(#path-12-inside-1_117_166)"/>
<mask id="path-14-inside-2_117_166" fill="white">
<path d="M458.674 730.99C444.917 722.075 447.548 698.452 449.864 674.675C450.736 665.726 451.426 645.855 458.755 651.062C460.443 652.262 461.344 658.332 460.281 673.479C457.02 719.925 455.487 722.72 492.41 739.805C521.724 753.37 533.308 754.335 533.308 740.948L535.2 701.9C535.336 699.087 537.476 696.78 540.271 696.433C543.565 696.024 546.474 698.465 546.516 701.784C546.638 711.655 546.409 730.176 545.672 749.437C544.489 780.292 459.846 731.749 458.674 730.99Z"/>
</mask>
<path d="M449.864 674.675L475.741 677.195L449.864 674.675ZM458.674 730.99L444.536 752.809L444.536 752.809L458.674 730.99ZM545.672 749.437L571.652 750.433L545.672 749.437ZM546.516 701.784L520.518 702.107L546.516 701.784ZM535.2 701.9L561.17 703.158V703.158L535.2 701.9ZM533.308 740.948H507.308V740.319L507.339 739.69L533.308 740.948ZM492.41 739.805L481.491 763.401L481.491 763.401L492.41 739.805ZM460.281 673.479L434.345 671.658L460.281 673.479ZM458.755 651.062L473.814 629.867L473.814 629.867L458.755 651.062ZM540.271 696.433L543.472 722.235H543.472L540.271 696.433ZM475.741 677.195C474.499 689.953 473.607 699.192 474.164 706.402C474.75 713.981 476.396 711.491 472.813 709.17L444.536 752.809C427.195 741.573 423.278 722.814 422.319 710.41C421.331 697.635 422.913 683.174 423.986 672.154L475.741 677.195ZM472.813 709.17C471.967 708.622 491.855 720.133 511.622 727.848C521.962 731.884 529.128 733.597 532.461 733.688C534.187 733.736 531.247 733.21 527.194 735.918C521.543 739.695 519.805 745.467 519.691 748.442L571.652 750.433C571.243 761.121 566.6 772.126 556.09 779.151C547.178 785.107 537.421 785.845 531.028 785.669C518.12 785.313 503.831 780.627 492.716 776.289C469.573 767.257 446.554 754.117 444.536 752.809L472.813 709.17ZM519.691 748.442C520.416 729.499 520.633 711.432 520.518 702.107L572.514 701.462C572.643 711.878 572.403 730.852 571.652 750.433L519.691 748.442ZM561.17 703.158L559.278 742.206L507.339 739.69L509.231 700.641L561.17 703.158ZM559.308 740.948C559.308 747.288 558.046 757.89 549.636 766.496C540.877 775.46 529.847 776.745 522.809 776.463C515.804 776.181 508.82 774.273 502.722 772.179C496.325 769.982 489.205 766.971 481.491 763.401L503.329 716.209C510.273 719.422 515.593 721.618 519.613 722.999C523.932 724.482 525.34 724.522 524.895 724.504C524.417 724.485 518.116 724.349 512.444 730.153C509.823 732.836 508.501 735.687 507.881 737.725C507.303 739.623 507.308 740.865 507.308 740.948H559.308ZM481.491 763.401C472.436 759.211 463.754 755.028 456.758 750.281C449.145 745.117 441.977 738.286 437.502 728.176C433.358 718.815 432.704 709.179 432.733 700.941C432.763 692.763 433.573 682.657 434.345 671.658L486.217 675.299C485.359 687.524 484.754 695.184 484.733 701.127C484.712 707.01 485.371 707.849 485.052 707.129C484.401 705.659 483.569 705.633 485.951 707.249C488.95 709.284 493.923 711.856 503.329 716.209L481.491 763.401ZM434.345 671.658C434.842 664.569 434.778 660.822 434.644 659.247C434.572 658.402 434.554 659.149 435.044 660.714C435.304 661.542 435.866 663.125 436.988 665.015C438.098 666.885 440.166 669.749 443.696 672.257L473.814 629.867C481.248 635.149 483.817 642.457 484.666 645.168C485.767 648.681 486.224 652.117 486.456 654.833C486.928 660.38 486.783 667.242 486.217 675.299L434.345 671.658ZM543.472 722.235C553.225 721.025 560.694 712.974 561.17 703.158L509.231 700.641C509.979 685.199 521.728 672.534 537.07 670.631L543.472 722.235ZM520.518 702.107C520.677 714.921 532.021 723.656 543.472 722.235L537.07 670.631C555.11 668.393 572.272 682.009 572.514 701.462L520.518 702.107ZM423.986 672.154C424.233 669.622 424.852 659.43 426.497 651.966C427.141 649.04 428.976 640.88 434.809 634.199C438.381 630.107 444.771 625.115 454.063 624.312C462.992 623.539 469.868 627.064 473.814 629.867L443.696 672.257C445.809 673.759 451.061 676.766 458.546 676.118C466.393 675.439 471.521 671.216 473.984 668.394C476.207 665.847 477.056 663.637 477.194 663.28C477.417 662.704 477.406 662.578 477.279 663.154C476.528 666.561 476.366 670.779 475.741 677.195L423.986 672.154Z" fill="url(#paint10_linear_117_166)" mask="url(#path-14-inside-2_117_166)"/>
<rect x="618.977" y="710.855" width="191.363" height="75.5244" rx="30.5" stroke="url(#paint11_linear_117_166)" stroke-width="11"/>
<path d="M970.034 637.852C983.222 650.438 979.274 671.737 964.213 682.006C925.596 708.337 829.034 733.765 718.2 733.765C578.629 733.765 454.744 697.448 448.475 661.933C440.435 616.386 578.629 587 718.2 587C832.261 587 935.943 605.317 970.034 637.852Z" fill="url(#paint12_linear_117_166)"/>
<ellipse cx="715.373" cy="650.833" rx="252.717" ry="59.7508" fill="url(#paint13_linear_117_166)"/>
<path d="M920.814 646.59C919.632 669.609 828.364 679.241 714.905 679.241C601.446 679.241 509.469 666.105 509.469 645.548C509.469 624.991 601.446 604.797 714.905 604.797C828.364 604.797 921.868 626.046 920.814 646.59Z" fill="#10161C"/>
<ellipse cx="715.141" cy="647.248" rx="205.672" ry="35.9158" fill="#4D4D4D"/>
<path d="M581.518 610.507L574.662 604.793C318.421 655.891 612.509 706.174 593.102 681.849C428.822 650.178 518.555 621.499 581.518 610.507Z" fill="url(#paint14_linear_117_166)"/>
<path d="M849.154 611.163L856.01 605.449C1112.25 656.548 818.163 706.83 837.57 682.505C1001.85 650.834 912.116 622.156 849.154 611.163Z" fill="url(#paint15_linear_117_166)"/>
<path d="M833.045 681.501C732.242 699.786 632.81 689.12 595.694 681.501C547.467 671.869 540.676 708.133 729.801 705.357C906.99 702.756 959.049 658.646 833.045 681.501Z" fill="url(#paint16_linear_117_166)"/>
<g filter="url(#filter1_f_117_166)">
<path d="M951.667 725.638C953.172 720.383 958.866 725.878 956.504 727.938C951.355 733.739 917.436 748.58 908.987 749.923C907.264 750.196 905.915 750.274 904.882 750.218C901.301 750.023 905.077 747.108 908.564 746.193C927.67 741.174 951.175 727.356 951.667 725.638Z" fill="url(#paint17_linear_117_166)"/>
</g>
<g filter="url(#filter2_f_117_166)">
<path d="M543.092 742.128L543.529 721.859C543.551 720.863 542.818 720.028 541.825 720.132C540.851 720.234 540.204 721.073 540.16 722.051L539.26 742.044C539.211 743.119 540.057 744.014 541.134 744.025C542.193 744.036 543.069 743.187 543.092 742.128Z" fill="url(#paint18_linear_117_166)"/>
</g>
<g filter="url(#filter3_f_117_166)">
<path d="M456.728 701.34L457.807 681.079C457.86 680.084 457.154 679.239 456.158 679.328C455.181 679.415 454.507 680.244 454.432 681.22L452.899 701.198C452.817 702.272 453.634 703.178 454.71 703.205C455.768 703.232 456.672 702.397 456.728 701.34Z" fill="url(#paint19_linear_117_166)"/>
</g>
<g filter="url(#filter4_f_117_166)">
<path d="M468.38 727.155C467.04 721.879 460.434 727.403 462.731 729.498C467.696 735.375 501.141 750.721 509.546 752.19C511.441 752.521 512.934 752.599 514.074 752.511C517.651 752.236 514.284 749.318 510.829 748.351C491.885 743.048 468.818 728.88 468.38 727.155Z" fill="url(#paint20_linear_117_166)"/>
</g>
<g filter="url(#filter5_f_117_166)">
<path d="M813.211 775.648C814.6 771.243 817.364 749.603 814.942 741.379C812.695 733.752 808.609 748.647 808.221 756.588C807.866 763.871 806.588 772.271 803.836 775.648C798.076 782.715 779.14 783.664 786.81 786.216C790.392 787.408 810.591 783.961 813.211 775.648Z" fill="url(#paint21_linear_117_166)"/>
</g>
<g filter="url(#filter6_f_117_166)">
<path d="M616.697 774.116C615.316 769.54 614.287 750.041 616.697 741.496C618.906 733.663 622.683 748.877 622.482 757.013C622.309 763.96 622.98 771.832 625.654 775.259C631.384 782.6 652.313 785.429 644.682 788.081C641.119 789.319 619.304 782.752 616.697 774.116Z" fill="url(#paint22_linear_117_166)"/>
</g>
<g filter="url(#filter7_f_117_166)">
<path d="M887.53 742.052L886.08 721.799C886.009 720.805 885.2 720.006 884.219 720.154C883.256 720.299 882.689 721.164 882.736 722.14L883.697 742.138C883.749 743.212 884.677 744.065 885.752 744.029C886.809 743.993 887.606 743.108 887.53 742.052Z" fill="url(#paint23_linear_117_166)"/>
</g>
<g filter="url(#filter8_f_117_166)">
<path d="M972.302 705.202L971.993 684.932C971.978 683.935 971.214 683.113 970.226 683.235C969.256 683.354 968.64 684.204 968.632 685.182L968.468 705.185C968.459 706.261 969.338 707.141 970.415 707.133C971.473 707.125 972.319 706.26 972.302 705.202Z" fill="url(#paint24_linear_117_166)"/>
</g>
<path d="M826.297 102.961C840.257 108.299 859.965 123.08 849.7 157.569" stroke="white" stroke-width="4" stroke-linecap="round" stroke-linejoin="round"/>
<path d="M836.156 89C853.622 95.662 878.279 114.11 865.436 157.157" stroke="white" stroke-width="4" stroke-linecap="round" stroke-linejoin="round"/>
<path d="M532.719 384.43C529.625 369.808 531.343 345.233 565.882 335.135" stroke="white" stroke-width="4" stroke-linecap="round" stroke-linejoin="round"/>
<path d="M515.641 383.73C511.757 365.446 513.869 334.723 556.994 322.146" stroke="white" stroke-width="4" stroke-linecap="round" stroke-linejoin="round"/>
<path d="M848.672 535.555C864.572 535.815 889.891 529.028 893.421 490.902" stroke="white" stroke-width="4" stroke-linecap="round" stroke-linejoin="round"/>
<path d="M852.875 553.246C872.762 553.588 904.421 545.14 908.796 497.542" stroke="white" stroke-width="4" stroke-linecap="round" stroke-linejoin="round"/>
<path d="M1005.15 604.317C1005.76 601.873 1009.24 601.873 1009.85 604.317C1010.23 605.784 1011.83 606.559 1013.21 605.934C1015.51 604.893 1017.67 607.608 1016.15 609.615C1015.23 610.82 1015.63 612.56 1016.98 613.248C1019.22 614.394 1018.45 617.78 1015.93 617.839C1014.42 617.874 1013.3 619.269 1013.61 620.752C1014.11 623.222 1010.98 624.729 1009.36 622.795C1008.39 621.634 1006.61 621.634 1005.64 622.795C1004.02 624.729 1000.89 623.222 1001.39 620.752C1001.7 619.269 1000.58 617.874 999.071 617.839C996.551 617.78 995.778 614.394 998.024 613.248C999.372 612.56 999.769 610.82 998.853 609.615C997.327 607.608 999.492 604.893 1001.79 605.934C1003.17 606.559 1004.77 605.784 1005.15 604.317Z" fill="white"/>
<path d="M1007.04 609.712C1007.18 608.97 1008.24 608.97 1008.38 609.712C1008.47 610.243 1009.12 610.453 1009.51 610.081C1010.06 609.562 1010.92 610.187 1010.6 610.868C1010.36 611.355 1010.76 611.906 1011.3 611.836C1012.05 611.738 1012.38 612.749 1011.71 613.109C1011.24 613.367 1011.24 614.048 1011.71 614.305C1012.38 614.665 1012.05 615.677 1011.3 615.578C1010.76 615.508 1010.36 616.059 1010.6 616.546C1010.92 617.227 1010.06 617.852 1009.51 617.333C1009.12 616.961 1008.47 617.172 1008.38 617.702C1008.24 618.445 1007.18 618.445 1007.04 617.702C1006.94 617.172 1006.29 616.961 1005.9 617.333C1005.35 617.852 1004.49 617.227 1004.82 616.546C1005.05 616.059 1004.65 615.508 1004.11 615.578C1003.37 615.677 1003.04 614.665 1003.7 614.305C1004.17 614.048 1004.17 613.367 1003.7 613.109C1003.04 612.749 1003.37 611.738 1004.11 611.836C1004.65 611.906 1005.05 611.355 1004.82 610.868C1004.49 610.187 1005.35 609.562 1005.9 610.081C1006.29 610.453 1006.94 610.243 1007.04 609.712Z" fill="#EECB2F"/>
<path d="M437.146 557.317C437.763 554.873 441.237 554.873 441.854 557.317C442.225 558.784 443.833 559.559 445.211 558.934C447.508 557.893 449.673 560.608 448.147 562.615C447.231 563.82 447.628 565.56 448.976 566.248C451.222 567.394 450.449 570.78 447.929 570.839C446.416 570.874 445.303 572.269 445.605 573.752C446.11 576.222 442.98 577.729 441.363 575.795C440.392 574.634 438.608 574.634 437.637 575.795C436.02 577.729 432.89 576.222 433.395 573.752C433.697 572.269 432.584 570.874 431.071 570.839C428.551 570.78 427.778 567.394 430.024 566.248C431.372 565.56 431.769 563.82 430.853 562.615C429.327 560.608 431.492 557.893 433.789 558.934C435.167 559.559 436.775 558.784 437.146 557.317Z" fill="white"/>
<path d="M439.038 562.712C439.175 561.97 440.239 561.97 440.376 562.712C440.475 563.243 441.122 563.453 441.514 563.081C442.062 562.562 442.922 563.187 442.597 563.868C442.365 564.355 442.765 564.906 443.3 564.836C444.048 564.738 444.377 565.749 443.714 566.109C443.239 566.367 443.239 567.048 443.714 567.305C444.377 567.665 444.048 568.677 443.3 568.578C442.765 568.508 442.365 569.059 442.597 569.546C442.922 570.227 442.062 570.852 441.514 570.333C441.122 569.961 440.475 570.172 440.376 570.702C440.239 571.445 439.175 571.445 439.038 570.702C438.939 570.172 438.292 569.961 437.9 570.333C437.353 570.852 436.492 570.227 436.817 569.546C437.05 569.059 436.649 568.508 436.114 568.578C435.366 568.677 435.037 567.665 435.7 567.305C436.175 567.048 436.175 566.367 435.7 566.109C435.037 565.749 435.366 564.738 436.114 564.836C436.649 564.906 437.05 564.355 436.817 563.868C436.492 563.187 437.353 562.562 437.9 563.081C438.292 563.453 438.939 563.243 439.038 562.712Z" fill="#EECB2F"/>
<path d="M140.146 557.317C140.763 554.873 144.237 554.873 144.854 557.317C145.225 558.784 146.833 559.559 148.211 558.934C150.508 557.893 152.673 560.608 151.147 562.615C150.231 563.82 150.628 565.56 151.976 566.248C154.222 567.394 153.449 570.78 150.929 570.839C149.416 570.874 148.303 572.269 148.605 573.752C149.11 576.222 145.98 577.729 144.363 575.795C143.392 574.634 141.608 574.634 140.637 575.795C139.02 577.729 135.89 576.222 136.395 573.752C136.697 572.269 135.584 570.874 134.071 570.839C131.551 570.78 130.778 567.394 133.024 566.248C134.372 565.56 134.769 563.82 133.853 562.615C132.327 560.608 134.492 557.893 136.789 558.934C138.167 559.559 139.775 558.784 140.146 557.317Z" fill="white"/>
<path d="M142.038 562.712C142.175 561.97 143.239 561.97 143.376 562.712C143.475 563.243 144.122 563.453 144.514 563.081C145.062 562.562 145.922 563.187 145.597 563.868C145.365 564.355 145.765 564.906 146.3 564.836C147.048 564.738 147.377 565.749 146.714 566.109C146.239 566.367 146.239 567.048 146.714 567.305C147.377 567.665 147.048 568.677 146.3 568.578C145.765 568.508 145.365 569.059 145.597 569.546C145.922 570.227 145.062 570.852 144.514 570.333C144.122 569.961 143.475 570.172 143.376 570.702C143.239 571.445 142.175 571.445 142.038 570.702C141.939 570.172 141.292 569.961 140.9 570.333C140.353 570.852 139.492 570.227 139.817 569.546C140.05 569.059 139.649 568.508 139.114 568.578C138.366 568.677 138.037 567.665 138.7 567.305C139.175 567.048 139.175 566.367 138.7 566.109C138.037 565.749 138.366 564.738 139.114 564.836C139.649 564.906 140.05 564.355 139.817 563.868C139.492 563.187 140.353 562.562 140.9 563.081C141.292 563.453 141.939 563.243 142.038 562.712Z" fill="#EECB2F"/>
<path d="M66.1456 761.317C66.7634 758.873 70.2366 758.873 70.8544 761.317C71.2251 762.784 72.8331 763.559 74.2115 762.934C76.5079 761.893 78.6734 764.608 77.1473 766.615C76.2313 767.82 76.6285 769.56 77.9765 770.248C80.2223 771.394 79.4494 774.78 76.9287 774.839C75.4157 774.874 74.3029 776.269 74.6055 777.752C75.1096 780.222 71.9803 781.729 70.3631 779.795C69.3924 778.634 67.6076 778.634 66.6369 779.795C65.0197 781.729 61.8904 780.222 62.3945 777.752C62.6971 776.269 61.5843 774.874 60.0713 774.839C57.5506 774.78 56.7777 771.394 59.0235 770.248C60.3715 769.56 60.7687 767.82 59.8527 766.615C58.3266 764.608 60.4921 761.893 62.7885 762.934C64.1669 763.559 65.7749 762.784 66.1456 761.317Z" fill="white"/>
<path d="M68.0379 766.712C68.1754 765.97 69.2388 765.97 69.3764 766.712C69.4748 767.243 70.1225 767.453 70.5141 767.081C71.0616 766.562 71.9219 767.187 71.597 767.868C71.3645 768.355 71.7648 768.906 72.3001 768.836C73.0484 768.738 73.377 769.749 72.7137 770.109C72.2393 770.367 72.2393 771.048 72.7137 771.305C73.377 771.665 73.0484 772.677 72.3001 772.578C71.7648 772.508 71.3645 773.059 71.597 773.546C71.9219 774.227 71.0616 774.852 70.5141 774.333C70.1225 773.961 69.4748 774.172 69.3764 774.702C69.2388 775.445 68.1754 775.445 68.0379 774.702C67.9395 774.172 67.2918 773.961 66.9001 774.333C66.3526 774.852 65.4924 774.227 65.8173 773.546C66.0497 773.059 65.6494 772.508 65.1141 772.578C64.3658 772.677 64.0372 771.665 64.7005 771.305C65.175 771.048 65.175 770.367 64.7005 770.109C64.0372 769.749 64.3658 768.738 65.1141 768.836C65.6494 768.906 66.0497 768.355 65.8173 767.868C65.4924 767.187 66.3526 766.562 66.9001 767.081C67.2918 767.453 67.9395 767.243 68.0379 766.712Z" fill="#EECB2F"/>
<path d="M436.146 787.317C436.763 784.873 440.237 784.873 440.854 787.317C441.225 788.784 442.833 789.559 444.211 788.934C446.508 787.893 448.673 790.608 447.147 792.615C446.231 793.82 446.628 795.56 447.976 796.248C450.222 797.394 449.449 800.78 446.929 800.839C445.416 800.874 444.303 802.269 444.605 803.752C445.11 806.222 441.98 807.729 440.363 805.795C439.392 804.634 437.608 804.634 436.637 805.795C435.02 807.729 431.89 806.222 432.395 803.752C432.697 802.269 431.584 800.874 430.071 800.839C427.551 800.78 426.778 797.394 429.024 796.248C430.372 795.56 430.769 793.82 429.853 792.615C428.327 790.608 430.492 787.893 432.789 788.934C434.167 789.559 435.775 788.784 436.146 787.317Z" fill="white"/>
<path d="M438.038 792.712C438.175 791.97 439.239 791.97 439.376 792.712C439.475 793.243 440.122 793.453 440.514 793.081C441.062 792.562 441.922 793.187 441.597 793.868C441.365 794.355 441.765 794.906 442.3 794.836C443.048 794.738 443.377 795.749 442.714 796.109C442.239 796.367 442.239 797.048 442.714 797.305C443.377 797.665 443.048 798.677 442.3 798.578C441.765 798.508 441.365 799.059 441.597 799.546C441.922 800.227 441.062 800.852 440.514 800.333C440.122 799.961 439.475 800.172 439.376 800.702C439.239 801.445 438.175 801.445 438.038 800.702C437.939 800.172 437.292 799.961 436.9 800.333C436.353 800.852 435.492 800.227 435.817 799.546C436.05 799.059 435.649 798.508 435.114 798.578C434.366 798.677 434.037 797.665 434.7 797.305C435.175 797.048 435.175 796.367 434.7 796.109C434.037 795.749 434.366 794.738 435.114 794.836C435.649 794.906 436.05 794.355 435.817 793.868C435.492 793.187 436.353 792.562 436.9 793.081C437.292 793.453 437.939 793.243 438.038 792.712Z" fill="#EECB2F"/>
<path d="M1191.15 623.317C1191.76 620.873 1195.24 620.873 1195.85 623.317C1196.23 624.784 1197.83 625.559 1199.21 624.934C1201.51 623.893 1203.67 626.608 1202.15 628.615C1201.23 629.82 1201.63 631.56 1202.98 632.248C1205.22 633.394 1204.45 636.78 1201.93 636.839C1200.42 636.874 1199.3 638.269 1199.61 639.752C1200.11 642.222 1196.98 643.729 1195.36 641.795C1194.39 640.634 1192.61 640.634 1191.64 641.795C1190.02 643.729 1186.89 642.222 1187.39 639.752C1187.7 638.269 1186.58 636.874 1185.07 636.839C1182.55 636.78 1181.78 633.394 1184.02 632.248C1185.37 631.56 1185.77 629.82 1184.85 628.615C1183.33 626.608 1185.49 623.893 1187.79 624.934C1189.17 625.559 1190.77 624.784 1191.15 623.317Z" fill="white"/>
<path d="M1193.04 628.712C1193.18 627.97 1194.24 627.97 1194.38 628.712C1194.47 629.243 1195.12 629.453 1195.51 629.081C1196.06 628.562 1196.92 629.187 1196.6 629.868C1196.36 630.355 1196.76 630.906 1197.3 630.836C1198.05 630.738 1198.38 631.749 1197.71 632.109C1197.24 632.367 1197.24 633.048 1197.71 633.305C1198.38 633.665 1198.05 634.677 1197.3 634.578C1196.76 634.508 1196.36 635.059 1196.6 635.546C1196.92 636.227 1196.06 636.852 1195.51 636.333C1195.12 635.961 1194.47 636.172 1194.38 636.702C1194.24 637.445 1193.18 637.445 1193.04 636.702C1192.94 636.172 1192.29 635.961 1191.9 636.333C1191.35 636.852 1190.49 636.227 1190.82 635.546C1191.05 635.059 1190.65 634.508 1190.11 634.578C1189.37 634.677 1189.04 633.665 1189.7 633.305C1190.17 633.048 1190.17 632.367 1189.7 632.109C1189.04 631.749 1189.37 630.738 1190.11 630.836C1190.65 630.906 1191.05 630.355 1190.82 629.868C1190.49 629.187 1191.35 628.562 1191.9 629.081C1192.29 629.453 1192.94 629.243 1193.04 628.712Z" fill="#EECB2F"/>
<path d="M1069.15 527.317C1069.76 524.873 1073.24 524.873 1073.85 527.317C1074.23 528.784 1075.83 529.559 1077.21 528.934C1079.51 527.893 1081.67 530.608 1080.15 532.615C1079.23 533.82 1079.63 535.56 1080.98 536.248C1083.22 537.394 1082.45 540.78 1079.93 540.839C1078.42 540.874 1077.3 542.269 1077.61 543.752C1078.11 546.222 1074.98 547.729 1073.36 545.795C1072.39 544.634 1070.61 544.634 1069.64 545.795C1068.02 547.729 1064.89 546.222 1065.39 543.752C1065.7 542.269 1064.58 540.874 1063.07 540.839C1060.55 540.78 1059.78 537.394 1062.02 536.248C1063.37 535.56 1063.77 533.82 1062.85 532.615C1061.33 530.608 1063.49 527.893 1065.79 528.934C1067.17 529.559 1068.77 528.784 1069.15 527.317Z" fill="white"/>
<path d="M1071.04 532.712C1071.18 531.97 1072.24 531.97 1072.38 532.712C1072.47 533.243 1073.12 533.453 1073.51 533.081C1074.06 532.562 1074.92 533.187 1074.6 533.868C1074.36 534.355 1074.76 534.906 1075.3 534.836C1076.05 534.738 1076.38 535.749 1075.71 536.109C1075.24 536.367 1075.24 537.048 1075.71 537.305C1076.38 537.665 1076.05 538.677 1075.3 538.578C1074.76 538.508 1074.36 539.059 1074.6 539.546C1074.92 540.227 1074.06 540.852 1073.51 540.333C1073.12 539.961 1072.47 540.172 1072.38 540.702C1072.24 541.445 1071.18 541.445 1071.04 540.702C1070.94 540.172 1070.29 539.961 1069.9 540.333C1069.35 540.852 1068.49 540.227 1068.82 539.546C1069.05 539.059 1068.65 538.508 1068.11 538.578C1067.37 538.677 1067.04 537.665 1067.7 537.305C1068.17 537.048 1068.17 536.367 1067.7 536.109C1067.04 535.749 1067.37 534.738 1068.11 534.836C1068.65 534.906 1069.05 534.355 1068.82 533.868C1068.49 533.187 1069.35 532.562 1069.9 533.081C1070.29 533.453 1070.94 533.243 1071.04 532.712Z" fill="#EECB2F"/>
<path d="M1381.15 731.317C1381.76 728.873 1385.24 728.873 1385.85 731.317C1386.23 732.784 1387.83 733.559 1389.21 732.934C1391.51 731.893 1393.67 734.608 1392.15 736.615C1391.23 737.82 1391.63 739.56 1392.98 740.248C1395.22 741.394 1394.45 744.78 1391.93 744.839C1390.42 744.874 1389.3 746.269 1389.61 747.752C1390.11 750.222 1386.98 751.729 1385.36 749.795C1384.39 748.634 1382.61 748.634 1381.64 749.795C1380.02 751.729 1376.89 750.222 1377.39 747.752C1377.7 746.269 1376.58 744.874 1375.07 744.839C1372.55 744.78 1371.78 741.394 1374.02 740.248C1375.37 739.56 1375.77 737.82 1374.85 736.615C1373.33 734.608 1375.49 731.893 1377.79 732.934C1379.17 733.559 1380.77 732.784 1381.15 731.317Z" fill="white"/>
<path d="M1383.04 736.712C1383.18 735.97 1384.24 735.97 1384.38 736.712C1384.47 737.243 1385.12 737.453 1385.51 737.081C1386.06 736.562 1386.92 737.187 1386.6 737.868C1386.36 738.355 1386.76 738.906 1387.3 738.836C1388.05 738.738 1388.38 739.749 1387.71 740.109C1387.24 740.367 1387.24 741.048 1387.71 741.305C1388.38 741.665 1388.05 742.677 1387.3 742.578C1386.76 742.508 1386.36 743.059 1386.6 743.546C1386.92 744.227 1386.06 744.852 1385.51 744.333C1385.12 743.961 1384.47 744.172 1384.38 744.702C1384.24 745.445 1383.18 745.445 1383.04 744.702C1382.94 744.172 1382.29 743.961 1381.9 744.333C1381.35 744.852 1380.49 744.227 1380.82 743.546C1381.05 743.059 1380.65 742.508 1380.11 742.578C1379.37 742.677 1379.04 741.665 1379.7 741.305C1380.17 741.048 1380.17 740.367 1379.7 740.109C1379.04 739.749 1379.37 738.738 1380.11 738.836C1380.65 738.906 1381.05 738.355 1380.82 737.868C1380.49 737.187 1381.35 736.562 1381.9 737.081C1382.29 737.453 1382.94 737.243 1383.04 736.712Z" fill="#EECB2F"/>
<path d="M1148.15 776.317C1148.76 773.873 1152.24 773.873 1152.85 776.317C1153.23 777.784 1154.83 778.559 1156.21 777.934C1158.51 776.893 1160.67 779.608 1159.15 781.615C1158.23 782.82 1158.63 784.56 1159.98 785.248C1162.22 786.394 1161.45 789.78 1158.93 789.839C1157.42 789.874 1156.3 791.269 1156.61 792.752C1157.11 795.222 1153.98 796.729 1152.36 794.795C1151.39 793.634 1149.61 793.634 1148.64 794.795C1147.02 796.729 1143.89 795.222 1144.39 792.752C1144.7 791.269 1143.58 789.874 1142.07 789.839C1139.55 789.78 1138.78 786.394 1141.02 785.248C1142.37 784.56 1142.77 782.82 1141.85 781.615C1140.33 779.608 1142.49 776.893 1144.79 777.934C1146.17 778.559 1147.77 777.784 1148.15 776.317Z" fill="white"/>
<path d="M1150.04 781.712C1150.18 780.97 1151.24 780.97 1151.38 781.712C1151.47 782.243 1152.12 782.453 1152.51 782.081C1153.06 781.562 1153.92 782.187 1153.6 782.868C1153.36 783.355 1153.76 783.906 1154.3 783.836C1155.05 783.738 1155.38 784.749 1154.71 785.109C1154.24 785.367 1154.24 786.048 1154.71 786.305C1155.38 786.665 1155.05 787.677 1154.3 787.578C1153.76 787.508 1153.36 788.059 1153.6 788.546C1153.92 789.227 1153.06 789.852 1152.51 789.333C1152.12 788.961 1151.47 789.172 1151.38 789.702C1151.24 790.445 1150.18 790.445 1150.04 789.702C1149.94 789.172 1149.29 788.961 1148.9 789.333C1148.35 789.852 1147.49 789.227 1147.82 788.546C1148.05 788.059 1147.65 787.508 1147.11 787.578C1146.37 787.677 1146.04 786.665 1146.7 786.305C1147.17 786.048 1147.17 785.367 1146.7 785.109C1146.04 784.749 1146.37 783.738 1147.11 783.836C1147.65 783.906 1148.05 783.355 1147.82 782.868C1147.49 782.187 1148.35 781.562 1148.9 782.081C1149.29 782.453 1149.94 782.243 1150.04 781.712Z" fill="#EECB2F"/>
<path d="M1024.15 727.317C1024.76 724.873 1028.24 724.873 1028.85 727.317C1029.23 728.784 1030.83 729.559 1032.21 728.934C1034.51 727.893 1036.67 730.608 1035.15 732.615C1034.23 733.82 1034.63 735.56 1035.98 736.248C1038.22 737.394 1037.45 740.78 1034.93 740.839C1033.42 740.874 1032.3 742.269 1032.61 743.752C1033.11 746.222 1029.98 747.729 1028.36 745.795C1027.39 744.634 1025.61 744.634 1024.64 745.795C1023.02 747.729 1019.89 746.222 1020.39 743.752C1020.7 742.269 1019.58 740.874 1018.07 740.839C1015.55 740.78 1014.78 737.394 1017.02 736.248C1018.37 735.56 1018.77 733.82 1017.85 732.615C1016.33 730.608 1018.49 727.893 1020.79 728.934C1022.17 729.559 1023.77 728.784 1024.15 727.317Z" fill="white"/>
<path d="M1026.04 732.712C1026.18 731.97 1027.24 731.97 1027.38 732.712C1027.47 733.243 1028.12 733.453 1028.51 733.081C1029.06 732.562 1029.92 733.187 1029.6 733.868C1029.36 734.355 1029.76 734.906 1030.3 734.836C1031.05 734.738 1031.38 735.749 1030.71 736.109C1030.24 736.367 1030.24 737.048 1030.71 737.305C1031.38 737.665 1031.05 738.677 1030.3 738.578C1029.76 738.508 1029.36 739.059 1029.6 739.546C1029.92 740.227 1029.06 740.852 1028.51 740.333C1028.12 739.961 1027.47 740.172 1027.38 740.702C1027.24 741.445 1026.18 741.445 1026.04 740.702C1025.94 740.172 1025.29 739.961 1024.9 740.333C1024.35 740.852 1023.49 740.227 1023.82 739.546C1024.05 739.059 1023.65 738.508 1023.11 738.578C1022.37 738.677 1022.04 737.665 1022.7 737.305C1023.17 737.048 1023.17 736.367 1022.7 736.109C1022.04 735.749 1022.37 734.738 1023.11 734.836C1023.65 734.906 1024.05 734.355 1023.82 733.868C1023.49 733.187 1024.35 732.562 1024.9 733.081C1025.29 733.453 1025.94 733.243 1026.04 732.712Z" fill="#EECB2F"/>
<path d="M560.146 531.317C560.763 528.873 564.237 528.873 564.854 531.317C565.225 532.784 566.833 533.559 568.211 532.934C570.508 531.893 572.673 534.608 571.147 536.615C570.231 537.82 570.628 539.56 571.976 540.248C574.222 541.394 573.449 544.78 570.929 544.839C569.416 544.874 568.303 546.269 568.605 547.752C569.11 550.222 565.98 551.729 564.363 549.795C563.392 548.634 561.608 548.634 560.637 549.795C559.02 551.729 555.89 550.222 556.395 547.752C556.697 546.269 555.584 544.874 554.071 544.839C551.551 544.78 550.778 541.394 553.024 540.248C554.372 539.56 554.769 537.82 553.853 536.615C552.327 534.608 554.492 531.893 556.789 532.934C558.167 533.559 559.775 532.784 560.146 531.317Z" fill="white"/>
<path d="M562.038 536.712C562.175 535.97 563.239 535.97 563.376 536.712C563.475 537.243 564.122 537.453 564.514 537.081C565.062 536.562 565.922 537.187 565.597 537.868C565.365 538.355 565.765 538.906 566.3 538.836C567.048 538.738 567.377 539.749 566.714 540.109C566.239 540.367 566.239 541.048 566.714 541.305C567.377 541.665 567.048 542.677 566.3 542.578C565.765 542.508 565.365 543.059 565.597 543.546C565.922 544.227 565.062 544.852 564.514 544.333C564.122 543.961 563.475 544.172 563.376 544.702C563.239 545.445 562.175 545.445 562.038 544.702C561.939 544.172 561.292 543.961 560.9 544.333C560.353 544.852 559.492 544.227 559.817 543.546C560.05 543.059 559.649 542.508 559.114 542.578C558.366 542.677 558.037 541.665 558.7 541.305C559.175 541.048 559.175 540.367 558.7 540.109C558.037 539.749 558.366 538.738 559.114 538.836C559.649 538.906 560.05 538.355 559.817 537.868C559.492 537.187 560.353 536.562 560.9 537.081C561.292 537.453 561.939 537.243 562.038 536.712Z" fill="#EECB2F"/>
<path d="M223.146 531.317C223.763 528.873 227.237 528.873 227.854 531.317C228.225 532.784 229.833 533.559 231.211 532.934C233.508 531.893 235.673 534.608 234.147 536.615C233.231 537.82 233.628 539.56 234.976 540.248C237.222 541.394 236.449 544.78 233.929 544.839C232.416 544.874 231.303 546.269 231.605 547.752C232.11 550.222 228.98 551.729 227.363 549.795C226.392 548.634 224.608 548.634 223.637 549.795C222.02 551.729 218.89 550.222 219.395 547.752C219.697 546.269 218.584 544.874 217.071 544.839C214.551 544.78 213.778 541.394 216.024 540.248C217.372 539.56 217.769 537.82 216.853 536.615C215.327 534.608 217.492 531.893 219.789 532.934C221.167 533.559 222.775 532.784 223.146 531.317Z" fill="white"/>
<path d="M225.038 536.712C225.175 535.97 226.239 535.97 226.376 536.712C226.475 537.243 227.122 537.453 227.514 537.081C228.062 536.562 228.922 537.187 228.597 537.868C228.365 538.355 228.765 538.906 229.3 538.836C230.048 538.738 230.377 539.749 229.714 540.109C229.239 540.367 229.239 541.048 229.714 541.305C230.377 541.665 230.048 542.677 229.3 542.578C228.765 542.508 228.365 543.059 228.597 543.546C228.922 544.227 228.062 544.852 227.514 544.333C227.122 543.961 226.475 544.172 226.376 544.702C226.239 545.445 225.175 545.445 225.038 544.702C224.939 544.172 224.292 543.961 223.9 544.333C223.353 544.852 222.492 544.227 222.817 543.546C223.05 543.059 222.649 542.508 222.114 542.578C221.366 542.677 221.037 541.665 221.7 541.305C222.175 541.048 222.175 540.367 221.7 540.109C221.037 539.749 221.366 538.738 222.114 538.836C222.649 538.906 223.05 538.355 222.817 537.868C222.492 537.187 223.353 536.562 223.9 537.081C224.292 537.453 224.939 537.243 225.038 536.712Z" fill="#EECB2F"/>
<path d="M241.146 758.317C241.763 755.873 245.237 755.873 245.854 758.317C246.225 759.784 247.833 760.559 249.211 759.934C251.508 758.893 253.673 761.608 252.147 763.615C251.231 764.82 251.628 766.56 252.976 767.248C255.222 768.394 254.449 771.78 251.929 771.839C250.416 771.874 249.303 773.269 249.605 774.752C250.11 777.222 246.98 778.729 245.363 776.795C244.392 775.634 242.608 775.634 241.637 776.795C240.02 778.729 236.89 777.222 237.395 774.752C237.697 773.269 236.584 771.874 235.071 771.839C232.551 771.78 231.778 768.394 234.024 767.248C235.372 766.56 235.769 764.82 234.853 763.615C233.327 761.608 235.492 758.893 237.789 759.934C239.167 760.559 240.775 759.784 241.146 758.317Z" fill="white"/>
<path d="M243.038 763.712C243.175 762.97 244.239 762.97 244.376 763.712C244.475 764.243 245.122 764.453 245.514 764.081C246.062 763.562 246.922 764.187 246.597 764.868C246.365 765.355 246.765 765.906 247.3 765.836C248.048 765.738 248.377 766.749 247.714 767.109C247.239 767.367 247.239 768.048 247.714 768.305C248.377 768.665 248.048 769.677 247.3 769.578C246.765 769.508 246.365 770.059 246.597 770.546C246.922 771.227 246.062 771.852 245.514 771.333C245.122 770.961 244.475 771.172 244.376 771.702C244.239 772.445 243.175 772.445 243.038 771.702C242.939 771.172 242.292 770.961 241.9 771.333C241.353 771.852 240.492 771.227 240.817 770.546C241.05 770.059 240.649 769.508 240.114 769.578C239.366 769.677 239.037 768.665 239.7 768.305C240.175 768.048 240.175 767.367 239.7 767.109C239.037 766.749 239.366 765.738 240.114 765.836C240.649 765.906 241.05 765.355 240.817 764.868C240.492 764.187 241.353 763.562 241.9 764.081C242.292 764.453 242.939 764.243 243.038 763.712Z" fill="#EECB2F"/>
<path d="M248 627.85C248.919 624.216 254.081 624.216 255 627.85C255.551 630.031 257.941 631.182 259.99 630.253C263.404 628.705 266.623 632.742 264.354 635.725C262.993 637.516 263.583 640.103 265.587 641.125C268.925 642.829 267.776 647.863 264.029 647.949C261.78 648.001 260.126 650.076 260.576 652.28C261.325 655.952 256.673 658.192 254.269 655.317C252.827 653.591 250.173 653.591 248.731 655.317C246.327 658.192 241.675 655.952 242.424 652.28C242.874 650.076 241.22 648.001 238.971 647.949C235.224 647.863 234.075 642.829 237.413 641.125C239.417 640.103 240.007 637.516 238.646 635.725C236.377 632.742 239.596 628.705 243.01 630.253C245.059 631.182 247.449 630.031 248 627.85Z" fill="white"/>
<path d="M250.811 635.87C251.015 634.767 252.596 634.767 252.8 635.87C252.947 636.66 253.909 636.972 254.492 636.42C255.305 635.648 256.584 636.577 256.101 637.589C255.756 638.314 256.351 639.133 257.147 639.028C258.259 638.882 258.747 640.385 257.761 640.92C257.056 641.303 257.056 642.316 257.761 642.699C258.747 643.234 258.259 644.737 257.147 644.591C256.351 644.486 255.756 645.305 256.101 646.03C256.584 647.042 255.305 647.971 254.492 647.199C253.909 646.647 252.947 646.959 252.8 647.749C252.596 648.852 251.015 648.852 250.811 647.749C250.664 646.959 249.702 646.647 249.119 647.199C248.306 647.971 247.027 647.042 247.51 646.03C247.855 645.305 247.26 644.486 246.465 644.591C245.352 644.737 244.864 643.234 245.85 642.699C246.555 642.316 246.555 641.303 245.85 640.92C244.864 640.385 245.352 638.882 246.465 639.028C247.26 639.133 247.855 638.314 247.51 637.589C247.027 636.577 248.306 635.648 249.119 636.42C249.702 636.972 250.664 636.66 250.811 635.87Z" fill="#EECB2F"/>
<path d="M47.0003 539.85C47.9185 536.216 53.0815 536.216 53.9997 539.85C54.5509 542.031 56.9412 543.182 58.9901 542.253C62.4036 540.705 65.6227 544.742 63.3541 547.725C61.9925 549.516 62.5829 552.103 64.5866 553.125C67.925 554.829 66.7762 559.863 63.0291 559.949C60.7801 560.001 59.1259 562.076 59.5757 564.28C60.3251 567.952 55.6734 570.192 53.2694 567.317C51.8265 565.591 49.1735 565.591 47.7306 567.317C45.3266 570.192 40.6749 567.952 41.4243 564.28C41.8741 562.076 40.2199 560.001 37.9709 559.949C34.2238 559.863 33.0749 554.829 36.4134 553.125C38.4171 552.103 39.0075 549.516 37.6459 547.725C35.3773 544.742 38.5964 540.705 42.0099 542.253C44.0588 543.182 46.4491 542.031 47.0003 539.85Z" fill="white"/>
<path d="M49.8107 547.87C50.0152 546.767 51.5959 546.767 51.8004 547.87C51.9467 548.66 52.9095 548.972 53.4916 548.42C54.3055 547.648 55.5842 548.577 55.1013 549.589C54.7558 550.314 55.3508 551.133 56.1465 551.028C57.2589 550.882 57.7473 552.385 56.7613 552.92C56.0561 553.303 56.0561 554.316 56.7614 554.699C57.7473 555.234 57.2589 556.737 56.1465 556.591C55.3508 556.486 54.7558 557.305 55.1013 558.03C55.5842 559.042 54.3055 559.971 53.4916 559.199C52.9095 558.647 51.9467 558.959 51.8004 559.749C51.5959 560.852 50.0152 560.852 49.8107 559.749C49.6645 558.959 48.7017 558.647 48.1195 559.199C47.3056 559.971 46.0269 559.042 46.5098 558.03C46.8553 557.305 46.2603 556.486 45.4646 556.591C44.3523 556.737 43.8638 555.234 44.8498 554.699C45.555 554.316 45.555 553.303 44.8498 552.92C43.8638 552.385 44.3523 550.882 45.4646 551.028C46.2603 551.133 46.8553 550.314 46.5098 549.589C46.0269 548.577 47.3056 547.648 48.1195 548.42C48.7017 548.972 49.6645 548.66 49.8107 547.87Z" fill="#EECB2F"/>
<path d="M162 828.85C162.919 825.216 168.081 825.216 169 828.85C169.551 831.031 171.941 832.182 173.99 831.253C177.404 829.705 180.623 833.742 178.354 836.725C176.993 838.516 177.583 841.103 179.587 842.125C182.925 843.829 181.776 848.863 178.029 848.949C175.78 849.001 174.126 851.076 174.576 853.28C175.325 856.952 170.673 859.192 168.269 856.317C166.827 854.591 164.173 854.591 162.731 856.317C160.327 859.192 155.675 856.952 156.424 853.28C156.874 851.076 155.22 849.001 152.971 848.949C149.224 848.863 148.075 843.829 151.413 842.125C153.417 841.103 154.007 838.516 152.646 836.725C150.377 833.742 153.596 829.705 157.01 831.253C159.059 832.182 161.449 831.031 162 828.85Z" fill="white"/>
<path d="M164.811 836.87C165.015 835.767 166.596 835.767 166.8 836.87C166.947 837.66 167.909 837.972 168.492 837.42C169.305 836.648 170.584 837.577 170.101 838.589C169.756 839.314 170.351 840.133 171.147 840.028C172.259 839.882 172.747 841.385 171.761 841.92C171.056 842.303 171.056 843.316 171.761 843.699C172.747 844.234 172.259 845.737 171.147 845.591C170.351 845.486 169.756 846.305 170.101 847.03C170.584 848.042 169.305 848.971 168.492 848.199C167.909 847.647 166.947 847.959 166.8 848.749C166.596 849.852 165.015 849.852 164.811 848.749C164.664 847.959 163.702 847.647 163.119 848.199C162.306 848.971 161.027 848.042 161.51 847.03C161.855 846.305 161.26 845.486 160.465 845.591C159.352 845.737 158.864 844.234 159.85 843.699C160.555 843.316 160.555 842.303 159.85 841.92C158.864 841.385 159.352 839.882 160.465 840.028C161.26 840.133 161.855 839.314 161.51 838.589C161.027 837.577 162.306 836.648 163.119 837.42C163.702 837.972 164.664 837.66 164.811 836.87Z" fill="#EECB2F"/>
<path d="M386 670.85C386.919 667.216 392.081 667.216 393 670.85C393.551 673.031 395.941 674.182 397.99 673.253C401.404 671.705 404.623 675.742 402.354 678.725C400.993 680.516 401.583 683.103 403.587 684.125C406.925 685.829 405.776 690.863 402.029 690.949C399.78 691.001 398.126 693.076 398.576 695.28C399.325 698.952 394.673 701.192 392.269 698.317C390.827 696.591 388.173 696.591 386.731 698.317C384.327 701.192 379.675 698.952 380.424 695.28C380.874 693.076 379.22 691.001 376.971 690.949C373.224 690.863 372.075 685.829 375.413 684.125C377.417 683.103 378.007 680.516 376.646 678.725C374.377 675.742 377.596 671.705 381.01 673.253C383.059 674.182 385.449 673.031 386 670.85Z" fill="white"/>
<path d="M388.811 678.87C389.015 677.767 390.596 677.767 390.8 678.87C390.947 679.66 391.909 679.972 392.492 679.42C393.305 678.648 394.584 679.577 394.101 680.589C393.756 681.314 394.351 682.133 395.147 682.028C396.259 681.882 396.747 683.385 395.761 683.92C395.056 684.303 395.056 685.316 395.761 685.699C396.747 686.234 396.259 687.737 395.147 687.591C394.351 687.486 393.756 688.305 394.101 689.03C394.584 690.042 393.305 690.971 392.492 690.199C391.909 689.647 390.947 689.959 390.8 690.749C390.596 691.852 389.015 691.852 388.811 690.749C388.664 689.959 387.702 689.647 387.119 690.199C386.306 690.971 385.027 690.042 385.51 689.03C385.855 688.305 385.26 687.486 384.465 687.591C383.352 687.737 382.864 686.234 383.85 685.699C384.555 685.316 384.555 684.303 383.85 683.92C382.864 683.385 383.352 681.882 384.465 682.028C385.26 682.133 385.855 681.314 385.51 680.589C385.027 679.577 386.306 678.648 387.119 679.42C387.702 679.972 388.664 679.66 388.811 678.87Z" fill="#EECB2F"/>
<path d="M333 536.85C333.919 533.216 339.081 533.216 340 536.85C340.551 539.031 342.941 540.182 344.99 539.253C348.404 537.705 351.623 541.742 349.354 544.725C347.993 546.516 348.583 549.103 350.587 550.125C353.925 551.829 352.776 556.863 349.029 556.949C346.78 557.001 345.126 559.076 345.576 561.28C346.325 564.952 341.673 567.192 339.269 564.317C337.827 562.591 335.173 562.591 333.731 564.317C331.327 567.192 326.675 564.952 327.424 561.28C327.874 559.076 326.22 557.001 323.971 556.949C320.224 556.863 319.075 551.829 322.413 550.125C324.417 549.103 325.007 546.516 323.646 544.725C321.377 541.742 324.596 537.705 328.01 539.253C330.059 540.182 332.449 539.031 333 536.85Z" fill="white"/>
<path d="M335.811 544.87C336.015 543.767 337.596 543.767 337.8 544.87C337.947 545.66 338.909 545.972 339.492 545.42C340.305 544.648 341.584 545.577 341.101 546.589C340.756 547.314 341.351 548.133 342.147 548.028C343.259 547.882 343.747 549.385 342.761 549.92C342.056 550.303 342.056 551.316 342.761 551.699C343.747 552.234 343.259 553.737 342.147 553.591C341.351 553.486 340.756 554.305 341.101 555.03C341.584 556.042 340.305 556.971 339.492 556.199C338.909 555.647 337.947 555.959 337.8 556.749C337.596 557.852 336.015 557.852 335.811 556.749C335.664 555.959 334.702 555.647 334.119 556.199C333.306 556.971 332.027 556.042 332.51 555.03C332.855 554.305 332.26 553.486 331.465 553.591C330.352 553.737 329.864 552.234 330.85 551.699C331.555 551.316 331.555 550.303 330.85 549.92C329.864 549.385 330.352 547.882 331.465 548.028C332.26 548.133 332.855 547.314 332.51 546.589C332.027 545.577 333.306 544.648 334.119 545.42C334.702 545.972 335.664 545.66 335.811 544.87Z" fill="#EECB2F"/>
<path d="M1171 534.85C1171.92 531.216 1177.08 531.216 1178 534.85C1178.55 537.031 1180.94 538.182 1182.99 537.253C1186.4 535.705 1189.62 539.742 1187.35 542.725C1185.99 544.516 1186.58 547.103 1188.59 548.125C1191.93 549.829 1190.78 554.863 1187.03 554.949C1184.78 555.001 1183.13 557.076 1183.58 559.28C1184.33 562.952 1179.67 565.192 1177.27 562.317C1175.83 560.591 1173.17 560.591 1171.73 562.317C1169.33 565.192 1164.67 562.952 1165.42 559.28C1165.87 557.076 1164.22 555.001 1161.97 554.949C1158.22 554.863 1157.07 549.829 1160.41 548.125C1162.42 547.103 1163.01 544.516 1161.65 542.725C1159.38 539.742 1162.6 535.705 1166.01 537.253C1168.06 538.182 1170.45 537.031 1171 534.85Z" fill="white"/>
<path d="M1173.81 542.87C1174.02 541.767 1175.6 541.767 1175.8 542.87C1175.95 543.66 1176.91 543.972 1177.49 543.42C1178.31 542.648 1179.58 543.577 1179.1 544.589C1178.76 545.314 1179.35 546.133 1180.15 546.028C1181.26 545.882 1181.75 547.385 1180.76 547.92C1180.06 548.303 1180.06 549.316 1180.76 549.699C1181.75 550.234 1181.26 551.737 1180.15 551.591C1179.35 551.486 1178.76 552.305 1179.1 553.03C1179.58 554.042 1178.31 554.971 1177.49 554.199C1176.91 553.647 1175.95 553.959 1175.8 554.749C1175.6 555.852 1174.02 555.852 1173.81 554.749C1173.66 553.959 1172.7 553.647 1172.12 554.199C1171.31 554.971 1170.03 554.042 1170.51 553.03C1170.86 552.305 1170.26 551.486 1169.46 551.591C1168.35 551.737 1167.86 550.234 1168.85 549.699C1169.56 549.316 1169.56 548.303 1168.85 547.92C1167.86 547.385 1168.35 545.882 1169.46 546.028C1170.26 546.133 1170.86 545.314 1170.51 544.589C1170.03 543.577 1171.31 542.648 1172.12 543.42C1172.7 543.972 1173.66 543.66 1173.81 542.87Z" fill="#EECB2F"/>
<path d="M958 499.85C958.919 496.216 964.081 496.216 965 499.85C965.551 502.031 967.941 503.182 969.99 502.253C973.404 500.705 976.623 504.742 974.354 507.725C972.993 509.516 973.583 512.103 975.587 513.125C978.925 514.829 977.776 519.863 974.029 519.949C971.78 520.001 970.126 522.076 970.576 524.28C971.325 527.952 966.673 530.192 964.269 527.317C962.827 525.591 960.173 525.591 958.731 527.317C956.327 530.192 951.675 527.952 952.424 524.28C952.874 522.076 951.22 520.001 948.971 519.949C945.224 519.863 944.075 514.829 947.413 513.125C949.417 512.103 950.007 509.516 948.646 507.725C946.377 504.742 949.596 500.705 953.01 502.253C955.059 503.182 957.449 502.031 958 499.85Z" fill="white"/>
<path d="M960.811 507.87C961.015 506.767 962.596 506.767 962.8 507.87C962.947 508.66 963.909 508.972 964.492 508.42C965.305 507.648 966.584 508.577 966.101 509.589C965.756 510.314 966.351 511.133 967.147 511.028C968.259 510.882 968.747 512.385 967.761 512.92C967.056 513.303 967.056 514.316 967.761 514.699C968.747 515.234 968.259 516.737 967.147 516.591C966.351 516.486 965.756 517.305 966.101 518.03C966.584 519.042 965.305 519.971 964.492 519.199C963.909 518.647 962.947 518.959 962.8 519.749C962.596 520.852 961.015 520.852 960.811 519.749C960.664 518.959 959.702 518.647 959.119 519.199C958.306 519.971 957.027 519.042 957.51 518.03C957.855 517.305 957.26 516.486 956.465 516.591C955.352 516.737 954.864 515.234 955.85 514.699C956.555 514.316 956.555 513.303 955.85 512.92C954.864 512.385 955.352 510.882 956.465 511.028C957.26 511.133 957.855 510.314 957.51 509.589C957.027 508.577 958.306 507.648 959.119 508.42C959.702 508.972 960.664 508.66 960.811 507.87Z" fill="#EECB2F"/>
<path d="M1104 645.85C1104.92 642.216 1110.08 642.216 1111 645.85C1111.55 648.031 1113.94 649.182 1115.99 648.253C1119.4 646.705 1122.62 650.742 1120.35 653.725C1118.99 655.516 1119.58 658.103 1121.59 659.125C1124.93 660.829 1123.78 665.863 1120.03 665.949C1117.78 666.001 1116.13 668.076 1116.58 670.28C1117.33 673.952 1112.67 676.192 1110.27 673.317C1108.83 671.591 1106.17 671.591 1104.73 673.317C1102.33 676.192 1097.67 673.952 1098.42 670.28C1098.87 668.076 1097.22 666.001 1094.97 665.949C1091.22 665.863 1090.07 660.829 1093.41 659.125C1095.42 658.103 1096.01 655.516 1094.65 653.725C1092.38 650.742 1095.6 646.705 1099.01 648.253C1101.06 649.182 1103.45 648.031 1104 645.85Z" fill="white"/>
<path d="M1106.81 653.87C1107.02 652.767 1108.6 652.767 1108.8 653.87C1108.95 654.66 1109.91 654.972 1110.49 654.42C1111.31 653.648 1112.58 654.577 1112.1 655.589C1111.76 656.314 1112.35 657.133 1113.15 657.028C1114.26 656.882 1114.75 658.385 1113.76 658.92C1113.06 659.303 1113.06 660.316 1113.76 660.699C1114.75 661.234 1114.26 662.737 1113.15 662.591C1112.35 662.486 1111.76 663.305 1112.1 664.03C1112.58 665.042 1111.31 665.971 1110.49 665.199C1109.91 664.647 1108.95 664.959 1108.8 665.749C1108.6 666.852 1107.02 666.852 1106.81 665.749C1106.66 664.959 1105.7 664.647 1105.12 665.199C1104.31 665.971 1103.03 665.042 1103.51 664.03C1103.86 663.305 1103.26 662.486 1102.46 662.591C1101.35 662.737 1100.86 661.234 1101.85 660.699C1102.56 660.316 1102.56 659.303 1101.85 658.92C1100.86 658.385 1101.35 656.882 1102.46 657.028C1103.26 657.133 1103.86 656.314 1103.51 655.589C1103.03 654.577 1104.31 653.648 1105.12 654.42C1105.7 654.972 1106.66 654.66 1106.81 653.87Z" fill="#EECB2F"/>
<path d="M906 761.85C906.919 758.216 912.081 758.216 913 761.85C913.551 764.031 915.941 765.182 917.99 764.253C921.404 762.705 924.623 766.742 922.354 769.725C920.993 771.516 921.583 774.103 923.587 775.125C926.925 776.829 925.776 781.863 922.029 781.949C919.78 782.001 918.126 784.076 918.576 786.28C919.325 789.952 914.673 792.192 912.269 789.317C910.827 787.591 908.173 787.591 906.731 789.317C904.327 792.192 899.675 789.952 900.424 786.28C900.874 784.076 899.22 782.001 896.971 781.949C893.224 781.863 892.075 776.829 895.413 775.125C897.417 774.103 898.007 771.516 896.646 769.725C894.377 766.742 897.596 762.705 901.01 764.253C903.059 765.182 905.449 764.031 906 761.85Z" fill="white"/>
<path d="M908.811 769.87C909.015 768.767 910.596 768.767 910.8 769.87C910.947 770.66 911.909 770.972 912.492 770.42C913.305 769.648 914.584 770.577 914.101 771.589C913.756 772.314 914.351 773.133 915.147 773.028C916.259 772.882 916.747 774.385 915.761 774.92C915.056 775.303 915.056 776.316 915.761 776.699C916.747 777.234 916.259 778.737 915.147 778.591C914.351 778.486 913.756 779.305 914.101 780.03C914.584 781.042 913.305 781.971 912.492 781.199C911.909 780.647 910.947 780.959 910.8 781.749C910.596 782.852 909.015 782.852 908.811 781.749C908.664 780.959 907.702 780.647 907.119 781.199C906.306 781.971 905.027 781.042 905.51 780.03C905.855 779.305 905.26 778.486 904.465 778.591C903.352 778.737 902.864 777.234 903.85 776.699C904.555 776.316 904.555 775.303 903.85 774.92C902.864 774.385 903.352 772.882 904.465 773.028C905.26 773.133 905.855 772.314 905.51 771.589C905.027 770.577 906.306 769.648 907.119 770.42C907.702 770.972 908.664 770.66 908.811 769.87Z" fill="#EECB2F"/>
<path d="M1359 538.85C1359.92 535.216 1365.08 535.216 1366 538.85C1366.55 541.031 1368.94 542.182 1370.99 541.253C1374.4 539.705 1377.62 543.742 1375.35 546.725C1373.99 548.516 1374.58 551.103 1376.59 552.125C1379.93 553.829 1378.78 558.863 1375.03 558.949C1372.78 559.001 1371.13 561.076 1371.58 563.28C1372.33 566.952 1367.67 569.192 1365.27 566.317C1363.83 564.591 1361.17 564.591 1359.73 566.317C1357.33 569.192 1352.67 566.952 1353.42 563.28C1353.87 561.076 1352.22 559.001 1349.97 558.949C1346.22 558.863 1345.07 553.829 1348.41 552.125C1350.42 551.103 1351.01 548.516 1349.65 546.725C1347.38 543.742 1350.6 539.705 1354.01 541.253C1356.06 542.182 1358.45 541.031 1359 538.85Z" fill="white"/>
<path d="M1361.81 546.87C1362.02 545.767 1363.6 545.767 1363.8 546.87C1363.95 547.66 1364.91 547.972 1365.49 547.42C1366.31 546.648 1367.58 547.577 1367.1 548.589C1366.76 549.314 1367.35 550.133 1368.15 550.028C1369.26 549.882 1369.75 551.385 1368.76 551.92C1368.06 552.303 1368.06 553.316 1368.76 553.699C1369.75 554.234 1369.26 555.737 1368.15 555.591C1367.35 555.486 1366.76 556.305 1367.1 557.03C1367.58 558.042 1366.31 558.971 1365.49 558.199C1364.91 557.647 1363.95 557.959 1363.8 558.749C1363.6 559.852 1362.02 559.852 1361.81 558.749C1361.66 557.959 1360.7 557.647 1360.12 558.199C1359.31 558.971 1358.03 558.042 1358.51 557.03C1358.86 556.305 1358.26 555.486 1357.46 555.591C1356.35 555.737 1355.86 554.234 1356.85 553.699C1357.56 553.316 1357.56 552.303 1356.85 551.92C1355.86 551.385 1356.35 549.882 1357.46 550.028C1358.26 550.133 1358.86 549.314 1358.51 548.589C1358.03 547.577 1359.31 546.648 1360.12 547.42C1360.7 547.972 1361.66 547.66 1361.81 546.87Z" fill="#EECB2F"/>
<path d="M127.27 791.487C232.377 838.381 133.279 869.026 65.2587 839.846C59.4187 867.868 25.5828 889.713 -63.0407 752.922C-151.664 616.131 -59.9746 631.851 -18.8165 686.718C5.34826 466.315 71.3251 601.636 51.5813 696.825C229.591 485.714 201.339 670.305 104.739 748.419C240.493 682.094 201.014 773.519 127.27 791.487Z" fill="#8EB65F" stroke="#B9E18A" stroke-width="8" stroke-linecap="round" stroke-linejoin="round"/>
<path d="M1283.04 777.496C1160.82 801.777 1259.4 859.421 1338.23 844.964C1338.21 876.565 1369.34 908.493 1494.03 783.39C1618.73 658.287 1517.72 652.37 1461.73 701.152C1485.08 458.012 1384.79 587.171 1384.61 694.498C1242.26 423.049 1231.23 628.678 1316.59 736.77C1186.97 631.613 1208.61 739.803 1283.04 777.496Z" fill="#8EB65F" stroke="#B9E18A" stroke-width="8" stroke-linecap="round" stroke-linejoin="round"/>
<path d="M1291 607L1400 796" stroke="#B9E18A" stroke-width="3" stroke-linecap="round"/>
<path d="M1246 717L1395 804" stroke="#B9E18A" stroke-width="3" stroke-linecap="round"/>
<path d="M1439 598L1409 793" stroke="#B9E18A" stroke-width="3" stroke-linecap="round"/>
<path d="M1256 814H1397" stroke="#B9E18A" stroke-width="3" stroke-linecap="round"/>
<path d="M16.5469 785.312L149.566 639.002" stroke="#B9E18A" stroke-width="3" stroke-linecap="round"/>
<path d="M24.1094 803.051L170.902 745.046" stroke="#B9E18A" stroke-width="3" stroke-linecap="round"/>
<path d="M6 781L24.0257 602.002" stroke="#B9E18A" stroke-width="3" stroke-linecap="round"/>
</g>
<defs>
<filter id="filter0_f_117_166" x="432" y="670" width="559" height="150" filterUnits="userSpaceOnUse" color-interpolation-filters="sRGB">
<feFlood flood-opacity="0" result="BackgroundImageFix"/>
<feBlend mode="normal" in="SourceGraphic" in2="BackgroundImageFix" result="shape"/>
<feGaussianBlur stdDeviation="8" result="effect1_foregroundBlur_117_166"/>
</filter>
<filter id="filter1_f_117_166" x="902.436" y="722.427" width="55.6343" height="28.8076" filterUnits="userSpaceOnUse" color-interpolation-filters="sRGB">
<feFlood flood-opacity="0" result="BackgroundImageFix"/>
<feBlend mode="normal" in="SourceGraphic" in2="BackgroundImageFix" result="shape"/>
<feGaussianBlur stdDeviation="0.5" result="effect1_foregroundBlur_117_166"/>
</filter>
<filter id="filter2_f_117_166" x="538.257" y="719.123" width="6.27197" height="25.9026" filterUnits="userSpaceOnUse" color-interpolation-filters="sRGB">
<feFlood flood-opacity="0" result="BackgroundImageFix"/>
<feBlend mode="normal" in="SourceGraphic" in2="BackgroundImageFix" result="shape"/>
<feGaussianBlur stdDeviation="0.5" result="effect1_foregroundBlur_117_166"/>
</filter>
<filter id="filter3_f_117_166" x="451.893" y="678.322" width="6.9165" height="25.8845" filterUnits="userSpaceOnUse" color-interpolation-filters="sRGB">
<feFlood flood-opacity="0" result="BackgroundImageFix"/>
<feBlend mode="normal" in="SourceGraphic" in2="BackgroundImageFix" result="shape"/>
<feGaussianBlur stdDeviation="0.5" result="effect1_foregroundBlur_117_166"/>
</filter>
<filter id="filter4_f_117_166" x="461.25" y="723.938" width="55.354" height="29.6069" filterUnits="userSpaceOnUse" color-interpolation-filters="sRGB">
<feFlood flood-opacity="0" result="BackgroundImageFix"/>
<feBlend mode="normal" in="SourceGraphic" in2="BackgroundImageFix" result="shape"/>
<feGaussianBlur stdDeviation="0.5" result="effect1_foregroundBlur_117_166"/>
</filter>
<filter id="filter5_f_117_166" x="784.008" y="738.268" width="32.8931" height="49.1777" filterUnits="userSpaceOnUse" color-interpolation-filters="sRGB">
<feFlood flood-opacity="0" result="BackgroundImageFix"/>
<feBlend mode="normal" in="SourceGraphic" in2="BackgroundImageFix" result="shape"/>
<feGaussianBlur stdDeviation="0.5" result="effect1_foregroundBlur_117_166"/>
</filter>
<filter id="filter6_f_117_166" x="614.25" y="738.32" width="33.0859" height="50.9116" filterUnits="userSpaceOnUse" color-interpolation-filters="sRGB">
<feFlood flood-opacity="0" result="BackgroundImageFix"/>
<feBlend mode="normal" in="SourceGraphic" in2="BackgroundImageFix" result="shape"/>
<feGaussianBlur stdDeviation="0.5" result="effect1_foregroundBlur_117_166"/>
</filter>
<filter id="filter7_f_117_166" x="881.733" y="719.136" width="6.80225" height="25.8938" filterUnits="userSpaceOnUse" color-interpolation-filters="sRGB">
<feFlood flood-opacity="0" result="BackgroundImageFix"/>
<feBlend mode="normal" in="SourceGraphic" in2="BackgroundImageFix" result="shape"/>
<feGaussianBlur stdDeviation="0.5" result="effect1_foregroundBlur_117_166"/>
</filter>
<filter id="filter8_f_117_166" x="967.468" y="682.223" width="5.83496" height="25.9102" filterUnits="userSpaceOnUse" color-interpolation-filters="sRGB">
<feFlood flood-opacity="0" result="BackgroundImageFix"/>
<feBlend mode="normal" in="SourceGraphic" in2="BackgroundImageFix" result="shape"/>
<feGaussianBlur stdDeviation="0.5" result="effect1_foregroundBlur_117_166"/>
</filter>
<linearGradient id="paint0_linear_117_166" x1="154.277" y1="0" x2="154.277" y2="390.352" gradientUnits="userSpaceOnUse">
<stop stop-color="#DBF7F6"/>
<stop offset="1" stop-color="white"/>
</linearGradient>
<linearGradient id="paint1_linear_117_166" x1="121.661" y1="0" x2="121.661" y2="390.352" gradientUnits="userSpaceOnUse">
<stop stop-color="#DBF7F6"/>
<stop offset="1" stop-color="white"/>
</linearGradient>
<linearGradient id="paint2_linear_117_166" x1="1367.72" y1="175" x2="1367.72" y2="565.352" gradientUnits="userSpaceOnUse">
<stop stop-color="#DBF7F6"/>
<stop offset="1" stop-color="white"/>
</linearGradient>
<linearGradient id="paint3_linear_117_166" x1="1146.66" y1="306.496" x2="1146.66" y2="696.848" gradientUnits="userSpaceOnUse">
<stop stop-color="#DBF7F6"/>
<stop offset="1" stop-color="white"/>
</linearGradient>
<linearGradient id="paint4_linear_117_166" x1="1376" y1="221" x2="1376" y2="598" gradientUnits="userSpaceOnUse">
<stop stop-color="#DBF7F6"/>
<stop offset="1" stop-color="white"/>
</linearGradient>
<linearGradient id="paint5_linear_117_166" x1="1162.5" y1="348" x2="1162.5" y2="725" gradientUnits="userSpaceOnUse">
<stop stop-color="#DBF7F6"/>
<stop offset="1" stop-color="white"/>
</linearGradient>
<linearGradient id="paint6_linear_117_166" x1="149" y1="0" x2="149" y2="377" gradientUnits="userSpaceOnUse">
<stop stop-color="#DBF7F6"/>
<stop offset="1" stop-color="white"/>
</linearGradient>
<linearGradient id="paint7_linear_117_166" x1="117.5" y1="0" x2="117.5" y2="377" gradientUnits="userSpaceOnUse">
<stop stop-color="#DBF7F6"/>
<stop offset="1" stop-color="white"/>
</linearGradient>
<linearGradient id="paint8_linear_117_166" x1="748" y1="456.5" x2="778" y2="979.5" gradientUnits="userSpaceOnUse">
<stop stop-color="#BBE182"/>
<stop offset="0.796106" stop-color="#96BE67"/>
</linearGradient>
<linearGradient id="paint9_linear_117_166" x1="904.736" y1="668.628" x2="928.101" y2="735.202" gradientUnits="userSpaceOnUse">
<stop offset="0.463055" stop-color="#696870"/>
<stop offset="1" stop-color="#969899"/>
</linearGradient>
<linearGradient id="paint10_linear_117_166" x1="525.071" y1="665.035" x2="489.503" y2="736.428" gradientUnits="userSpaceOnUse">
<stop offset="0.512317" stop-color="#696870"/>
<stop offset="1" stop-color="#969899"/>
</linearGradient>
<linearGradient id="paint11_linear_117_166" x1="714.658" y1="705.355" x2="714.658" y2="744.536" gradientUnits="userSpaceOnUse">
<stop offset="0.727959" stop-color="#696870"/>
<stop offset="1" stop-color="#969899"/>
</linearGradient>
<linearGradient id="paint12_linear_117_166" x1="715.086" y1="587" x2="715.086" y2="733.765" gradientUnits="userSpaceOnUse">
<stop stop-color="#315EB6"/>
<stop offset="1" stop-color="#1B3B93"/>
</linearGradient>
<linearGradient id="paint13_linear_117_166" x1="416.794" y1="650.833" x2="1020.81" y2="650.833" gradientUnits="userSpaceOnUse">
<stop stop-color="#5290E5"/>
<stop offset="0.513736" stop-color="#2E5AB2"/>
<stop offset="1" stop-color="#5390E4"/>
</linearGradient>
<linearGradient id="paint14_linear_117_166" x1="469.484" y1="646.586" x2="552.462" y2="646.586" gradientUnits="userSpaceOnUse">
<stop offset="0.407406" stop-color="#5391E6"/>
<stop offset="1" stop-color="#2E5BB3" stop-opacity="0"/>
</linearGradient>
<linearGradient id="paint15_linear_117_166" x1="961.188" y1="647.242" x2="878.21" y2="647.242" gradientUnits="userSpaceOnUse">
<stop offset="0.407406" stop-color="#5391E6"/>
<stop offset="1" stop-color="#2E5BB3" stop-opacity="0"/>
</linearGradient>
<linearGradient id="paint16_linear_117_166" x1="569.045" y1="682.502" x2="870.827" y2="674.631" gradientUnits="userSpaceOnUse">
<stop stop-color="#5591EB" stop-opacity="0"/>
<stop offset="0.492648" stop-color="#5592EE"/>
<stop offset="1" stop-color="#5591EB" stop-opacity="0"/>
</linearGradient>
<linearGradient id="paint17_linear_117_166" x1="956.439" y1="725.787" x2="925.172" y2="759.506" gradientUnits="userSpaceOnUse">
<stop stop-color="#969899" stop-opacity="0"/>
<stop offset="0.495104" stop-color="#D9D9D9"/>
<stop offset="1" stop-color="#969899"/>
<stop offset="1" stop-color="#969899" stop-opacity="0.51"/>
</linearGradient>
<linearGradient id="paint18_linear_117_166" x1="541.627" y1="720.067" x2="541.173" y2="744.21" gradientUnits="userSpaceOnUse">
<stop stop-color="#D9D9D9"/>
<stop offset="1" stop-color="#D9D9D9" stop-opacity="0"/>
</linearGradient>
<linearGradient id="paint19_linear_117_166" x1="455.962" y1="679.26" x2="455.142" y2="703.404" gradientUnits="userSpaceOnUse">
<stop stop-color="#D9D9D9"/>
<stop offset="1" stop-color="#D9D9D9" stop-opacity="0"/>
</linearGradient>
<linearGradient id="paint20_linear_117_166" x1="462.59" y1="727.677" x2="492.845" y2="761.807" gradientUnits="userSpaceOnUse">
<stop stop-color="#969899" stop-opacity="0"/>
<stop offset="0.495104" stop-color="#D9D9D9"/>
<stop offset="1" stop-color="#969899"/>
<stop offset="1" stop-color="#969899" stop-opacity="0.51"/>
</linearGradient>
<linearGradient id="paint21_linear_117_166" x1="810.561" y1="740.416" x2="807.18" y2="789.158" gradientUnits="userSpaceOnUse">
<stop stop-color="#D7D7D7"/>
<stop offset="1" stop-color="#969899" stop-opacity="0.24"/>
</linearGradient>
<linearGradient id="paint22_linear_117_166" x1="621.056" y1="740.496" x2="624.723" y2="791.115" gradientUnits="userSpaceOnUse">
<stop stop-color="#D7D7D7"/>
<stop offset="1" stop-color="#969899" stop-opacity="0.24"/>
</linearGradient>
<linearGradient id="paint23_linear_117_166" x1="884.016" y1="720.098" x2="884.633" y2="744.241" gradientUnits="userSpaceOnUse">
<stop stop-color="#D9D9D9"/>
<stop offset="1" stop-color="#D9D9D9" stop-opacity="0"/>
</linearGradient>
<linearGradient id="paint24_linear_117_166" x1="970.026" y1="683.173" x2="969.995" y2="707.316" gradientUnits="userSpaceOnUse">
<stop stop-color="#D9D9D9"/>
<stop offset="1" stop-color="#D9D9D9" stop-opacity="0"/>
</linearGradient>
<clipPath id="clip0_117_166">
<rect width="1440" height="758" fill="white" transform="translate(0 82)"/>
</clipPath>
</defs>
</svg>
